<svg width="25" height="23" viewBox="0 0 25 23" fill="none" xmlns="http://www.w3.org/2000/svg">
<g id="bars-solid 1" clip-path="url(#clip0_25_529)">
<path id="Vector" d="M0 2.20719C0 1.1809 0.799665 0.348602 1.78571 0.348602H23.2143C24.202 0.348602 25 1.1809 25 2.20719C25 3.23522 24.202 4.06577 23.2143 4.06577H1.78571C0.799665 4.06577 0 3.23522 0 2.20719ZM0 11.5001C0 10.4721 0.799665 9.64153 1.78571 9.64153H23.2143C24.202 9.64153 25 10.4721 25 11.5001C25 12.5281 24.202 13.3587 23.2143 13.3587H1.78571C0.799665 13.3587 0 12.5281 0 11.5001ZM23.2143 22.6516H1.78571C0.799665 22.6516 0 21.8211 0 20.793C0 19.765 0.799665 18.9345 1.78571 18.9345H23.2143C24.202 18.9345 25 19.765 25 20.793C25 21.8211 24.202 22.6516 23.2143 22.6516Z" fill="#2E318B"/>
</g>
<defs>
<clipPath id="clip0_25_529">
<rect width="25" height="23" fill="white"/>
</clipPath>
</defs>
</svg>
