<svg width="45" height="45" viewBox="0 0 45 45" fill="none" xmlns="http://www.w3.org/2000/svg">
<path d="M16.1719 4.21875H28.8281C29.2148 4.21875 29.5312 4.53516 29.5312 4.92188V8.4375H15.4688V4.92188C15.4688 4.53516 15.7852 4.21875 16.1719 4.21875ZM11.25 4.92188V8.4375H5.625C2.52246 8.4375 0 10.96 0 14.0625V36.5625C0 39.665 2.52246 42.1875 5.625 42.1875H39.375C42.4775 42.1875 45 39.665 45 36.5625V14.0625C45 10.96 42.4775 8.4375 39.375 8.4375H33.75V4.92188C33.75 2.20605 31.5439 0 28.8281 0H16.1719C13.4561 0 11.25 2.20605 11.25 4.92188ZM19.6875 18.2812C19.6875 17.5078 20.3203 16.875 21.0938 16.875H23.9062C24.6797 16.875 25.3125 17.5078 25.3125 18.2812V22.5H29.5312C30.3047 22.5 30.9375 23.1328 30.9375 23.9062V26.7188C30.9375 27.4922 30.3047 28.125 29.5312 28.125H25.3125V32.3438C25.3125 33.1172 24.6797 33.75 23.9062 33.75H21.0938C20.3203 33.75 19.6875 33.1172 19.6875 32.3438V28.125H15.4688C14.6953 28.125 14.0625 27.4922 14.0625 26.7188V23.9062C14.0625 23.1328 14.6953 22.5 15.4688 22.5H19.6875V18.2812Z" fill="#2E318B"/>
</svg>
