<svg width="10" height="11" viewBox="0 0 10 11" fill="none" xmlns="http://www.w3.org/2000/svg">
<g id="calendar-regular-2 1" clip-path="url(#clip0_8_194)">
<path id="Vector" d="M3.39286 0.515625C3.39286 0.229883 3.15402 0 2.85714 0C2.56027 0 2.32143 0.229883 2.32143 0.515625V1.375H1.42857C0.640625 1.375 0 1.9916 0 2.75V3.09375V4.125V9.625C0 10.3834 0.640625 11 1.42857 11H8.57143C9.35938 11 10 10.3834 10 9.625V4.125V3.09375V2.75C10 1.9916 9.35938 1.375 8.57143 1.375H7.67857V0.515625C7.67857 0.229883 7.43973 0 7.14286 0C6.84598 0 6.60714 0.229883 6.60714 0.515625V1.375H3.39286V0.515625ZM1.07143 4.125H8.92857V9.625C8.92857 9.81406 8.76786 9.96875 8.57143 9.96875H1.42857C1.23214 9.96875 1.07143 9.81406 1.07143 9.625V4.125Z" fill="#F7F7FC"/>
</g>
<defs>
<clipPath id="clip0_8_194">
<rect width="10" height="11" fill="white"/>
</clipPath>
</defs>
</svg>
