<svg width="61" height="37" viewBox="0 0 61 37" fill="none" xmlns="http://www.w3.org/2000/svg">
<g clip-path="url(#clip0_68_214)">
<path d="M18.5 3.00604e-06C8.28273 3.45265e-06 -1.25527e-06 8.28274 -8.08661e-07 18.5C-3.6205e-07 28.7173 8.28273 37 18.5 37L41.9375 37C52.4695 37 61 28.7212 61 18.5C61 8.27875 52.4695 1.52118e-06 41.9375 1.98155e-06L18.5 3.00604e-06ZM43.8437 21.275C44.6021 21.275 45.3294 20.9826 45.8656 20.4622C46.4019 19.9418 46.7031 19.236 46.7031 18.5C46.7031 17.764 46.4019 17.0582 45.8656 16.5378C45.3294 16.0174 44.6021 15.725 43.8437 15.725C43.0854 15.725 42.3581 16.0174 41.8219 16.5378C41.2856 17.0582 40.9844 17.764 40.9844 18.5C40.9844 19.236 41.2856 19.9418 41.8219 20.4622C42.3581 20.9826 43.0854 21.275 43.8437 21.275ZM43.8437 12.95C45.3605 12.95 46.815 13.5347 47.8875 14.5756C48.96 15.6164 49.5625 17.028 49.5625 18.5C49.5625 19.972 48.96 21.3836 47.8875 22.4244C46.815 23.4653 45.3605 24.05 43.8437 24.05C42.327 24.05 40.8725 23.4653 39.8 22.4244C38.7275 21.3836 38.125 19.972 38.125 18.5C38.125 17.028 38.7275 15.6164 39.8 14.5756C40.8725 13.5347 42.327 12.95 43.8437 12.95ZM25.7344 18.5C25.7344 19.236 26.0356 19.9418 26.5719 20.4622C27.1081 20.9826 27.8354 21.275 28.5937 21.275C29.3521 21.275 30.0794 20.9826 30.6156 20.4622C31.1519 19.9418 31.4531 19.236 31.4531 18.5C31.4531 17.764 31.1519 17.0582 30.6156 16.5378C30.0794 16.0174 29.3521 15.725 28.5937 15.725C27.8354 15.725 27.1081 16.0174 26.5719 16.5378C26.0356 17.0582 25.7344 17.764 25.7344 18.5ZM34.3125 18.5C34.3125 19.972 33.71 21.3836 32.6375 22.4244C31.565 23.4653 30.1105 24.05 28.5937 24.05C27.077 24.05 25.6225 23.4653 24.55 22.4244C23.4775 21.3836 22.875 19.972 22.875 18.5C22.875 17.0281 23.4775 15.6164 24.55 14.5756C25.6225 13.5347 27.077 12.95 28.5937 12.95C30.1105 12.95 31.565 13.5347 32.6375 14.5756C33.71 15.6164 34.3125 17.028 34.3125 18.5ZM19.0625 18.5C19.0625 19.2288 18.9146 19.9505 18.6272 20.6239C18.3398 21.2973 17.9185 21.9091 17.3875 22.4244C16.8565 22.9398 16.2261 23.3486 15.5322 23.6275C14.8384 23.9064 14.0947 24.05 13.3437 24.05C12.5928 24.05 11.8491 23.9064 11.1553 23.6275C10.4614 23.3486 9.83102 22.9398 9.29998 22.4244C8.76895 21.9091 8.34771 21.2973 8.06031 20.6239C7.77292 19.9505 7.625 19.2288 7.625 18.5C7.625 17.7712 7.77292 17.0495 8.06031 16.3761C8.34771 15.7028 8.76895 15.0909 9.29998 14.5756C9.83102 14.0602 10.4614 13.6514 11.1553 13.3725C11.8491 13.0936 12.5928 12.95 13.3437 12.95C14.0947 12.95 14.8384 13.0936 15.5322 13.3725C16.2261 13.6514 16.8565 14.0602 17.3875 14.5756C17.9185 15.0909 18.3398 15.7028 18.6272 16.3761C18.9146 17.0495 19.0625 17.7712 19.0625 18.5Z" fill="#2E318B"/>
</g>
<defs>
<clipPath id="clip0_68_214">
<rect width="37" height="61" fill="white" transform="translate(0 37) rotate(-90)"/>
</clipPath>
</defs>
</svg>
