<svg width="53" height="58" viewBox="0 0 53 58" fill="none" xmlns="http://www.w3.org/2000/svg">
<g id="arrow-left-light 1">
<path id="Vector" d="M-7.62939e-06 29C-7.62939e-06 28.0031 0.875439 27.1875 1.96383 27.1875H46.5986L29.9533 10.2746C29.2249 9.53479 29.2843 8.38736 30.0855 7.7156C30.4632 7.40861 30.9364 7.25002 31.4096 7.25002C31.9425 7.25002 32.4754 7.44826 32.8623 7.84474L52.4889 27.7822C53.1694 28.4726 53.1694 29.5279 52.4889 30.2178L32.8623 50.1553C32.13 50.8986 30.8879 50.9483 30.0881 50.2792C29.2869 49.6066 29.2275 48.4599 29.9559 47.7202L46.5986 30.8125H1.96265C0.875435 30.8125 -7.62939e-06 29.9969 -7.62939e-06 29Z" fill="#2E318B"/>
</g>
</svg>
