<svg width="56" height="45" viewBox="0 0 56 45" fill="none" xmlns="http://www.w3.org/2000/svg">
<path d="M28.2975 7.48828L19.8275 14.3789C18.4188 15.5215 18.1475 17.5781 19.215 19.0459C20.3438 20.6104 22.54 20.918 24.0537 19.7314L32.7425 12.9463C33.355 12.4717 34.23 12.5771 34.7113 13.1924C35.1925 13.8076 35.0788 14.6865 34.4662 15.1699L32.6375 16.5938L44.8 27.8437V11.25H44.7387L44.3975 11.0303L38.045 6.94336C36.7062 6.08203 35.14 5.625 33.5475 5.625C31.64 5.625 29.785 6.28418 28.2975 7.48828ZM30.2925 18.4219L25.7687 21.9551C23.0125 24.1172 19.0138 23.5547 16.9487 20.707C15.0062 18.0264 15.4962 14.2822 18.06 12.1992L25.34 6.28418C24.325 5.85352 23.2313 5.63379 22.12 5.63379C20.475 5.625 18.8737 6.11719 17.5 7.03125L11.2 11.25V30.9375H13.6675L21.665 38.2676C23.38 39.8408 26.0312 39.7178 27.5975 37.9951C28.0787 37.459 28.4025 36.835 28.5688 36.1846L30.0562 37.5557C31.7625 39.1289 34.4225 39.0146 35.9887 37.3008C36.3825 36.8701 36.6712 36.3691 36.855 35.8506C38.5525 36.9932 40.8625 36.7559 42.2887 35.1914C43.855 33.4775 43.7412 30.8057 42.035 29.2324L30.2925 18.4219ZM1.4 11.25C0.63 11.25 0 11.8828 0 12.6562V30.9375C0 32.4932 1.25125 33.75 2.8 33.75H5.6C7.14875 33.75 8.4 32.4932 8.4 30.9375V11.25H1.4ZM4.2 28.125C4.5713 28.125 4.9274 28.2732 5.18995 28.5369C5.4525 28.8006 5.6 29.1583 5.6 29.5312C5.6 29.9042 5.4525 30.2619 5.18995 30.5256C4.9274 30.7893 4.5713 30.9375 4.2 30.9375C3.8287 30.9375 3.4726 30.7893 3.21005 30.5256C2.9475 30.2619 2.8 29.9042 2.8 29.5312C2.8 29.1583 2.9475 28.8006 3.21005 28.5369C3.4726 28.2732 3.8287 28.125 4.2 28.125ZM47.6 11.25V30.9375C47.6 32.4932 48.8512 33.75 50.4 33.75H53.2C54.7487 33.75 56 32.4932 56 30.9375V12.6562C56 11.8828 55.37 11.25 54.6 11.25H47.6ZM50.4 29.5312C50.4 29.1583 50.5475 28.8006 50.81 28.5369C51.0726 28.2732 51.4287 28.125 51.8 28.125C52.1713 28.125 52.5274 28.2732 52.79 28.5369C53.0525 28.8006 53.2 29.1583 53.2 29.5312C53.2 29.9042 53.0525 30.2619 52.79 30.5256C52.5274 30.7893 52.1713 30.9375 51.8 30.9375C51.4287 30.9375 51.0726 30.7893 50.81 30.5256C50.5475 30.2619 50.4 29.9042 50.4 29.5312Z" fill="#2E318B"/>
</svg>
