<svg width="56" height="45" viewBox="0 0 56 45" fill="none" xmlns="http://www.w3.org/2000/svg">
<g clip-path="url(#clip0_68_249)">
<path d="M28 5.625C21.1575 5.625 15.4613 10.5557 14.245 17.0684C13.72 16.9453 13.1687 16.875 12.6 16.875C11.0512 16.875 9.61625 17.3848 8.4525 18.2461C9.1875 8.04199 17.6575 0 28 0C38.3425 0 46.8125 8.04199 47.5475 18.2461C46.3838 17.3848 44.9487 16.875 43.4 16.875C42.8312 16.875 42.2887 16.9453 41.755 17.0684C40.5387 10.5557 34.8425 5.625 28 5.625ZM15.7325 26.7188C16.3975 27.4658 16.8 28.4502 16.8 29.5312C16.8 30.6123 16.3975 31.5967 15.7325 32.3438C16.3975 33.0908 16.8 34.0752 16.8 35.1562C16.8 36.2373 16.3975 37.2217 15.7325 37.9688C16.3975 38.7158 16.8 39.7002 16.8 40.7812C16.8 43.1104 14.9187 45 12.6 45C10.6663 45 9.03 43.6816 8.54875 41.8887C8.0675 42.082 7.5425 42.1875 7 42.1875C4.68125 42.1875 2.8 40.2979 2.8 37.9688C2.8 37.4238 2.905 36.8965 3.0975 36.4131C1.3125 35.9297 0 34.2861 0 32.3438C0 30.4014 1.3125 28.7578 3.0975 28.2744C2.905 27.791 2.8 27.2637 2.8 26.7188C2.8 24.3896 4.68125 22.5 7 22.5C7.5425 22.5 8.0675 22.6055 8.54875 22.7988C9.03 21.0059 10.6663 19.6875 12.6 19.6875C14.9187 19.6875 16.8 21.5771 16.8 23.9062C16.8 24.9873 16.3975 25.9717 15.7325 26.7188ZM40.2675 26.7188C39.6025 25.9717 39.2 24.9873 39.2 23.9062C39.2 21.5771 41.0812 19.6875 43.4 19.6875C45.3337 19.6875 46.97 21.0059 47.4512 22.7988C47.9325 22.6055 48.4487 22.5 49 22.5C51.3187 22.5 53.2 24.3896 53.2 26.7188C53.2 27.2637 53.095 27.791 52.9025 28.2744C54.6875 28.7578 56 30.4014 56 32.3438C56 34.2861 54.6875 35.9297 52.9025 36.4131C53.095 36.8965 53.2 37.415 53.2 37.9688C53.2 40.2979 51.3187 42.1875 49 42.1875C48.4575 42.1875 47.9325 42.082 47.4512 41.8887C46.97 43.6816 45.3337 45 43.4 45C41.0812 45 39.2 43.1104 39.2 40.7812C39.2 39.7002 39.6025 38.7158 40.2675 37.9688C39.6025 37.2217 39.2 36.2373 39.2 35.1562C39.2 34.0752 39.6025 33.0908 40.2675 32.3438C39.6025 31.5967 39.2 30.6123 39.2 29.5312C39.2 28.4502 39.6025 27.4658 40.2675 26.7188Z" fill="#2E318B"/>
</g>
<defs>
<clipPath id="clip0_68_249">
<rect width="56" height="45" fill="white"/>
</clipPath>
</defs>
</svg>
