<svg width="34" height="45" viewBox="0 0 34 45" fill="none" xmlns="http://www.w3.org/2000/svg">
<g clip-path="url(#clip0_68_307)">
<path d="M15.3443 0.46582C16.3625 -0.149414 17.6464 -0.149414 18.6646 0.46582L20.2495 1.42383C20.7719 1.74023 21.374 1.89844 21.9849 1.88086L23.8354 1.83691C25.0308 1.81055 26.1375 2.44336 26.7131 3.48047L27.5985 5.09766C27.8907 5.63379 28.3334 6.06445 28.8646 6.35449L30.4938 7.2334C31.5386 7.80469 32.1849 8.90332 32.1495 10.0898L32.1052 11.9268C32.0875 12.5332 32.2558 13.1309 32.5657 13.6494L33.5308 15.2227C34.1506 16.2334 34.1506 17.5078 33.5308 18.5186L32.5657 20.0918C32.2469 20.6104 32.0875 21.208 32.1052 21.8145L32.1495 23.6514C32.1761 24.8379 31.5386 25.9365 30.4938 26.5078L28.8646 27.3867C28.3245 27.6768 27.8907 28.1162 27.5985 28.6436L26.7131 30.2607C26.1375 31.2979 25.0308 31.9395 23.8354 31.9043L21.9849 31.8604C21.374 31.8428 20.7719 32.0098 20.2495 32.3174L18.6646 33.2754C17.6464 33.8906 16.3625 33.8906 15.3443 33.2754L13.7594 32.3174C13.237 32.001 12.6349 31.8428 12.024 31.8604L10.1735 31.9043C8.97815 31.9307 7.87138 31.2979 7.29586 30.2607L6.41045 28.6523C6.11826 28.1162 5.67555 27.6855 5.1443 27.3955L3.51513 26.5166C2.47034 25.9453 1.82399 24.8467 1.8594 23.6602L1.90367 21.8232C1.92138 21.2168 1.75315 20.6191 1.44326 20.1006L0.469299 18.5186C-0.150492 17.5078 -0.150492 16.2334 0.469299 15.2227L1.4344 13.6494C1.75315 13.1309 1.91253 12.5332 1.89482 11.9268L1.85055 10.0898C1.82399 8.90332 2.46149 7.80469 3.50628 7.2334L5.13545 6.36328C5.67555 6.07324 6.1094 5.63379 6.40159 5.10645L7.28701 3.48926C7.86253 2.45215 8.9693 1.81055 10.1646 1.8457L12.0151 1.88965C12.6261 1.90723 13.2282 1.74023 13.7506 1.43262L15.3443 0.46582ZM24.0834 16.875C24.0834 15.0102 23.3371 13.2218 22.0087 11.9032C20.6803 10.5845 18.8786 9.84375 17 9.84375C15.1214 9.84375 13.3197 10.5845 11.9914 11.9032C10.663 13.2218 9.9167 15.0102 9.9167 16.875C9.9167 18.7398 10.663 20.5282 11.9914 21.8468C13.3197 23.1655 15.1214 23.9063 17 23.9063C18.8786 23.9063 20.6803 23.1655 22.0087 21.8468C23.3371 20.5282 24.0834 18.7398 24.0834 16.875ZM5.70211 43.2773L7.7917 34.2773C8.57972 34.6025 9.43857 34.7695 10.324 34.752L12.1568 34.708C12.1745 34.708 12.1922 34.7168 12.2099 34.7256L13.7683 35.666C15.7516 36.8613 18.2396 36.8613 20.2229 35.666L21.7901 34.7168C21.8078 34.708 21.8256 34.6992 21.8433 34.6992L23.6761 34.7432C24.5615 34.7607 25.4203 34.5938 26.2084 34.2686L28.2979 43.2686C28.4131 43.752 28.2537 44.2617 27.8907 44.6045C27.5276 44.9473 27.0052 45.0703 26.5271 44.9385L17 42.2402L7.47295 44.9473C6.99482 45.0879 6.47242 44.9561 6.1094 44.6133C5.74638 44.2705 5.59586 43.7607 5.70211 43.2773Z" fill="#2E318B"/>
</g>
<defs>
<clipPath id="clip0_68_307">
<rect width="34" height="45" fill="white"/>
</clipPath>
</defs>
</svg>
