<svg width="8" height="11" viewBox="0 0 8 11" fill="none" xmlns="http://www.w3.org/2000/svg">
<g id="location-dot-solid 1" clip-path="url(#clip0_8_189)">
<path id="Vector" d="M3.50625 10.725C2.41875 9.3457 0 6.00273 0 4.125C0 1.8468 1.79083 0 4 0C6.20833 0 8 1.8468 8 4.125C8 6.00273 5.5625 9.3457 4.49375 10.725C4.2375 11.0537 3.7625 11.0537 3.50625 10.725ZM4 5.5C4.73542 5.5 5.33333 4.8834 5.33333 4.125C5.33333 3.3666 4.73542 2.75 4 2.75C3.26458 2.75 2.66667 3.3666 2.66667 4.125C2.66667 4.8834 3.26458 5.5 4 5.5Z" fill="#F7F7FC"/>
</g>
<defs>
<clipPath id="clip0_8_189">
<rect width="8" height="11" fill="white"/>
</clipPath>
</defs>
</svg>
