<svg width="126" height="38" viewBox="0 0 126 38" fill="none" xmlns="http://www.w3.org/2000/svg">
<g clip-path="url(#clip0_0_47)">
<path d="M42.6539 26.8235V27.7052L39.5982 31.3562H42.7419V32.449H37.7749V31.5673L40.8306 27.9163H37.8629V26.8235H42.6539Z" fill="#2DA4DB"/>
<path d="M45.1437 26.8235V30.2013C45.1437 31.0954 45.4078 31.5052 46.1246 31.5052C46.8539 31.5052 47.1054 31.1078 47.1054 30.2013V26.8235H48.5767V30.2013C48.5767 31.7908 47.7845 32.5608 46.1246 32.5608C44.4647 32.5608 43.6725 31.7908 43.6725 30.2013V26.8235H45.1437Z" fill="#2DA4DB"/>
<path d="M51.3431 32.449H49.8719V26.8235H52.1228C53.6066 26.8235 54.2982 27.283 54.2982 28.3758C54.2982 29.1209 53.9336 29.5928 53.2042 29.8163C53.6443 29.9157 53.9336 30.251 54.2354 30.847L55.0276 32.449H53.4683L52.7767 31.0457C52.5126 30.5118 52.2863 30.3131 51.7707 30.3131H51.3557V32.449H51.3431ZM52.827 28.5869C52.827 28.0653 52.5629 27.8667 51.9719 27.8667H51.3557V29.3072H51.9719C52.5629 29.3196 52.827 29.1209 52.827 28.5869Z" fill="#2DA4DB"/>
<path d="M57.2156 26.8235V32.4614H55.7443V26.8235H57.2156Z" fill="#2DA4DB"/>
<path d="M62.5599 26.8235V31.3562H65.1378V32.449H61.0887V26.8235H62.5599Z" fill="#2DA4DB"/>
<path d="M67.3886 26.8235V31.9026C67.3886 33.3059 66.6216 34.0013 65.0623 34.0013H64.7605V32.9085H64.9868C65.603 32.9085 65.9174 32.5732 65.9174 31.915V26.8235H67.3886Z" fill="#2DA4DB"/>
<path d="M70.1551 26.8235V30.2013C70.1551 31.0954 70.4192 31.5052 71.1359 31.5052C71.8653 31.5052 72.1168 31.1078 72.1168 30.2013V26.8235H73.588V30.2013C73.588 31.7908 72.7958 32.5608 71.1359 32.5608C69.4761 32.5608 68.6838 31.7908 68.6838 30.2013V26.8235H70.1551Z" fill="#2DA4DB"/>
<path d="M79.5862 30.8346C79.5862 31.9274 78.8443 32.449 77.3353 32.449H74.8958V26.8235H77.0964C78.6431 26.8235 79.3473 27.2457 79.3473 28.3137C79.3473 28.8601 79.0832 29.2575 78.5928 29.4438C79.209 29.6176 79.5862 30.1268 79.5862 30.8346ZM77.8761 28.4006C77.8761 28.0157 77.6371 27.8046 77.1719 27.8046H76.3545V28.9967H77.1719C77.6371 28.9967 77.8761 28.798 77.8761 28.4006ZM78.115 30.7229C78.115 30.2261 77.8132 29.9902 77.2222 29.9902H76.3671V31.468H77.2222C77.8132 31.468 78.115 31.2196 78.115 30.7229Z" fill="#2DA4DB"/>
<path d="M82.1767 26.8235V31.3562H84.7545V32.449H80.7054V26.8235H82.1767Z" fill="#2DA4DB"/>
<path d="M87.0054 26.8235V31.9026C87.0054 33.3059 86.2383 34.0013 84.6791 34.0013H84.3773V32.9085H84.6036C85.2198 32.9085 85.5341 32.5732 85.5341 31.915V26.8235H87.0054Z" fill="#2DA4DB"/>
<path d="M89.4575 31.4307L89.0928 32.4614H87.609L89.7216 26.8235H91.4695L93.5821 32.4614H92.0982L91.7336 31.4307H89.4575ZM91.394 30.3876L90.6144 28.1523L89.8348 30.3876H91.394Z" fill="#2DA4DB"/>
<path d="M95.8455 26.8235L97.9204 30.6856V26.8235H99.3162V32.4614H97.6689L95.594 28.5993V32.4614H94.1982V26.8235H95.8455Z" fill="#2DA4DB"/>
<path d="M101.768 31.4307L101.404 32.4614H99.9198L102.032 26.8235H103.78L105.893 32.4614H104.409L104.044 31.4307H101.768ZM103.692 30.3876L102.913 28.1523L102.133 30.3876H103.692Z" fill="#2DA4DB"/>
<path d="M42.4276 7.1902C46.1749 7.1902 48.7653 7.42615 50.8527 9.42549C52.3365 10.8412 53.0533 12.6667 53.0533 15.0137C53.0533 17.3608 52.3365 19.2111 50.8527 20.6268C48.7653 22.6013 46.1749 22.8621 42.4276 22.8621H38.1144V7.1902H42.4276ZM42.2138 19.8072H43.6725C47.0425 19.8072 48.8282 18.1059 48.8282 15.0137C48.8282 11.9216 47.0425 10.2451 43.6725 10.2451H42.2138V19.8072Z" fill="#2E318B"/>
<path d="M60.2838 7.1902V22.8621H56.197V7.1902H60.2838Z" fill="#2E318B"/>
<path d="M68.382 7.1902V21.3346C68.382 25.2464 66.2443 27.1588 61.8934 27.1588H61.0635V24.1039H61.6922C63.3898 24.1039 64.2826 23.1601 64.2826 21.3346V7.1902H68.382Z" fill="#2E318B"/>
<path d="M75.6126 20.0059L74.6066 22.8621H70.4946L76.3671 7.1902H81.2461L87.1186 22.8621H83.0066L82.0006 20.0059H75.6126ZM80.9821 17.1L78.8066 10.866L76.6312 17.1H80.9821Z" fill="#2E318B"/>
<path d="M100.272 10.9902C98.5114 10.2203 96.8389 9.8353 95.3802 9.8353C93.4437 9.8353 92.5132 10.3569 92.5132 11.4745C92.5132 12.3935 93.2048 12.766 94.7138 13.0641L96.4491 13.4118C99.8192 14.0824 101.328 15.2993 101.328 18.0562C101.328 21.5209 99.2784 23.1725 95.0156 23.1725C93.0162 23.1725 90.9916 22.8124 88.9419 22.0549V18.6275C90.9665 19.7078 92.8653 20.2418 94.6257 20.2418C96.4365 20.2418 97.3922 19.6209 97.3922 18.5405C97.3922 17.3856 96.5874 17.0379 94.9778 16.6902L93.3934 16.3425C90.2748 15.6719 88.8162 14.3059 88.8162 11.7601C88.8162 8.64314 90.9036 6.90457 94.7389 6.90457C96.4994 6.90457 98.3353 7.16536 100.284 7.67451V10.9902H100.272Z" fill="#2E318B"/>
<path d="M108.999 7.1902V12.9026L114.896 7.1902H119.637L111.992 14.6039L120.417 22.8621H115.311L108.999 16.6902V22.8621H104.912V7.1902H108.999Z" fill="#2E318B"/>
<path d="M125.874 7.1902V22.8621H121.787V7.1902H125.874Z" fill="#2E318B"/>
<path d="M96.776 3.01764L94.9527 4.7562L93.1168 3.01764H90.6647L93.1922 5.97319H94.9527H96.7132L99.2407 3.01764H96.776Z" fill="#2E318B"/>
<path d="M40.9437 25.234L40.1641 25.9667L39.397 25.234H38.3533L39.4222 26.4882H40.1641H40.9186L41.9874 25.234H40.9437Z" fill="#2DA4DB"/>
<path d="M27.5515 29.6301C30.23 26.5006 31.8521 22.4523 31.8521 18.0438C31.8521 8.13398 23.691 0.062088 13.6437 0.062088H2.48983C1.18205 0.062088 0.125763 1.10522 0.125763 2.39673C0.125763 3.68823 1.18205 4.73137 2.48983 4.73137H13.6437C21.0755 4.73137 27.124 10.7046 27.124 18.0438C27.124 25.383 21.0755 31.3562 13.6437 31.3562H2.48983C1.18205 31.3562 0.125763 32.3993 0.125763 33.6908C0.125763 34.9823 1.18205 36.0255 2.48983 36.0255H13.6437C16.3347 36.0255 18.8874 35.4418 21.1886 34.3987L27.8533 37.7516C28.4695 38.0621 29.224 37.9379 29.7018 37.4412C30.1294 37.0065 30.2551 36.3608 30.0288 35.802L27.5515 29.6301Z" fill="#2E318B"/>
<path d="M13.7695 25.1719C12.9647 25.1719 12.2982 24.5261 12.2982 23.719V15.6967C12.2982 15.4235 12.0719 15.2124 11.8078 15.2124C11.5437 15.2124 11.3174 15.4359 11.3174 15.6967V23.7935C11.3174 24.551 10.6886 25.1843 9.92157 25.1843C9.1545 25.1843 8.51319 24.5634 8.51319 23.7935V15.7712C8.51319 15.4608 8.26169 15.2124 7.94732 15.2124C7.63295 15.2124 7.38145 15.4608 7.38145 15.7712V22.1046C7.38145 22.8621 6.75271 23.483 5.98564 23.483C5.21857 23.483 4.58983 22.8621 4.58983 22.1046V17.9196C4.58983 17.5967 4.32576 17.3235 3.98624 17.3235C3.65929 17.3235 3.38264 17.5843 3.38264 17.9196V22.1046C3.38264 22.3281 3.19402 22.5144 2.96768 22.5144C2.74133 22.5144 2.5527 22.3281 2.5527 22.1046V17.9072C2.5527 17.1248 3.19402 16.4791 3.99881 16.4791C4.79103 16.4791 5.44492 17.1124 5.44492 17.9072V22.1046C5.44492 22.4026 5.69642 22.651 5.99822 22.651C6.30001 22.651 6.55151 22.4026 6.55151 22.1046V15.7712C6.55151 15.0013 7.18025 14.3804 7.95989 14.3804C8.73953 14.3804 9.36827 15.0013 9.36827 15.7712V23.7935C9.36827 24.1039 9.61977 24.3523 9.93414 24.3523C10.2485 24.3523 10.5 24.1039 10.5 23.7935V15.6967C10.5 14.9765 11.1036 14.3804 11.8329 14.3804C12.5623 14.3804 13.1659 14.9765 13.1659 15.6967V23.719C13.1659 24.0667 13.4425 24.3399 13.7946 24.3399C14.1467 24.3399 14.4234 24.0667 14.4234 23.719V17.3856C14.4234 16.6654 15.027 16.0693 15.7563 16.0693C16.4856 16.0693 17.0892 16.6654 17.0892 17.3856V22.6261C17.0892 22.949 17.3533 23.2222 17.6928 23.2222C18.0198 23.2222 18.2964 22.9614 18.2964 22.6261V20.2791C18.2964 19.4967 18.9377 18.851 19.7425 18.851C20.5473 18.851 21.1886 19.4843 21.1886 20.2791V23.632C21.1886 23.8555 21 24.0418 20.7737 24.0418C20.5473 24.0418 20.3587 23.8555 20.3587 23.632V20.2791C20.3587 19.9562 20.0946 19.683 19.7551 19.683C19.4156 19.683 19.1515 19.9438 19.1515 20.2791V22.6261C19.1515 23.4085 18.5102 24.0542 17.7054 24.0542C16.9132 24.0542 16.2593 23.4209 16.2593 22.6261V17.3856C16.2593 17.1124 16.0329 16.9013 15.7689 16.9013C15.5048 16.9013 15.2785 17.1248 15.2785 17.3856V23.719C15.2407 24.5261 14.5743 25.1719 13.7695 25.1719Z" fill="#2E318B"/>
<path d="M3.9611 15.8582C3.15631 15.8582 2.48984 15.2124 2.48984 14.4052C2.48984 13.6105 3.14373 12.9523 3.9611 12.9523C4.76589 12.9523 5.43236 13.598 5.43236 14.4052C5.43236 15.2124 4.77846 15.8582 3.9611 15.8582ZM3.9611 13.7843C3.609 13.7843 3.33235 14.0575 3.33235 14.4052C3.33235 14.7529 3.609 15.0261 3.9611 15.0261C4.31319 15.0261 4.58984 14.7529 4.58984 14.4052C4.58984 14.0699 4.31319 13.7843 3.9611 13.7843Z" fill="#2E318B"/>
<path d="M7.92219 13.7222C7.1174 13.7222 6.45093 13.0765 6.45093 12.2693C6.45093 11.4745 7.10482 10.8163 7.92219 10.8163C8.72698 10.8163 9.39345 11.4621 9.39345 12.2693C9.39345 13.0765 8.72698 13.7222 7.92219 13.7222ZM7.92219 11.6484C7.57009 11.6484 7.29344 11.9216 7.29344 12.2693C7.29344 12.617 7.57009 12.8902 7.92219 12.8902C8.27428 12.8902 8.55093 12.617 8.55093 12.2693C8.55093 11.934 8.27428 11.6484 7.92219 11.6484Z" fill="#2E318B"/>
<path d="M11.8455 13.7222C11.0407 13.7222 10.3743 13.0765 10.3743 12.2693C10.3743 11.4745 11.0282 10.8163 11.8455 10.8163C12.6503 10.8163 13.3168 11.4621 13.3168 12.2693C13.3168 13.0765 12.6503 13.7222 11.8455 13.7222ZM11.8455 11.6484C11.4934 11.6484 11.2168 11.9216 11.2168 12.2693C11.2168 12.617 11.4934 12.8902 11.8455 12.8902C12.1976 12.8902 12.4743 12.617 12.4743 12.2693C12.4743 11.934 12.185 11.6484 11.8455 11.6484Z" fill="#2E318B"/>
<path d="M15.7563 15.4856C14.9515 15.4856 14.285 14.8399 14.285 14.0327C14.285 13.2255 14.9389 12.5797 15.7563 12.5797C16.5611 12.5797 17.2275 13.2255 17.2275 14.0327C17.2275 14.8399 16.5737 15.4856 15.7563 15.4856ZM15.7563 13.4118C15.4042 13.4118 15.1275 13.685 15.1275 14.0327C15.1275 14.3804 15.4042 14.6536 15.7563 14.6536C16.1084 14.6536 16.385 14.3804 16.385 14.0327C16.385 13.685 16.1084 13.4118 15.7563 13.4118Z" fill="#2E318B"/>
<path d="M19.7048 18.3046C18.9 18.3046 18.2336 17.6588 18.2336 16.8516C18.2336 16.0569 18.8874 15.3987 19.7048 15.3987C20.5096 15.3987 21.1761 16.0444 21.1761 16.8516C21.1761 17.6464 20.5222 18.3046 19.7048 18.3046ZM19.7048 16.2307C19.3527 16.2307 19.0761 16.5039 19.0761 16.8516C19.0761 17.1993 19.3527 17.4725 19.7048 17.4725C20.0569 17.4725 20.3336 17.1993 20.3336 16.8516C20.3461 16.5039 20.0569 16.2307 19.7048 16.2307Z" fill="#2E318B"/>
</g>
<defs>
<clipPath id="clip0_0_47">
<rect width="126" height="38" fill="white"/>
</clipPath>
</defs>
</svg>
