<svg width="45" height="45" viewBox="0 0 45 45" fill="none" xmlns="http://www.w3.org/2000/svg">
<g clip-path="url(#clip0_68_241)">
<path d="M22.5 39.375C34.9278 39.375 45 31.1924 45 21.0938C45 10.9951 34.9278 2.8125 22.5 2.8125C10.0723 2.8125 4.96479e-05 10.9951 4.96479e-05 21.0938C4.96479e-05 25.0576 1.55571 28.7227 4.19243 31.7197C4.02544 33.873 3.19048 35.7891 2.31157 37.248C1.82817 38.0566 1.33599 38.707 0.975636 39.1465C0.791065 39.3662 0.65044 39.5332 0.544972 39.6475C0.492237 39.7002 0.457081 39.7441 0.430714 39.7705L0.404347 39.7969C4.96497e-05 40.2012 -0.114208 40.7988 0.105518 41.3262C0.325245 41.8535 0.835011 42.1963 1.4063 42.1963C3.92876 42.1963 6.4688 41.4141 8.57817 40.5C10.5909 39.6211 12.3047 38.5752 13.3506 37.8106C16.1456 38.8213 19.2393 39.3838 22.5 39.3838V39.375ZM11.25 18.2813C11.996 18.2813 12.7113 18.5776 13.2388 19.105C13.7662 19.6325 14.0625 20.3478 14.0625 21.0938C14.0625 21.8397 13.7662 22.555 13.2388 23.0825C12.7113 23.6099 11.996 23.9063 11.25 23.9063C10.5041 23.9063 9.78876 23.6099 9.26131 23.0825C8.73387 22.555 8.43755 21.8397 8.43755 21.0938C8.43755 20.3478 8.73387 19.6325 9.26131 19.105C9.78876 18.5776 10.5041 18.2813 11.25 18.2813ZM22.5 18.2813C23.246 18.2813 23.9613 18.5776 24.4888 19.105C25.0162 19.6325 25.3125 20.3478 25.3125 21.0938C25.3125 21.8397 25.0162 22.555 24.4888 23.0825C23.9613 23.6099 23.246 23.9063 22.5 23.9063C21.7541 23.9063 21.0388 23.6099 20.5113 23.0825C19.9839 22.555 19.6875 21.8397 19.6875 21.0938C19.6875 20.3478 19.9839 19.6325 20.5113 19.105C21.0388 18.5776 21.7541 18.2813 22.5 18.2813ZM30.9375 21.0938C30.9375 20.3478 31.2339 19.6325 31.7613 19.105C32.2888 18.5776 33.0041 18.2813 33.75 18.2813C34.496 18.2813 35.2113 18.5776 35.7388 19.105C36.2662 19.6325 36.5625 20.3478 36.5625 21.0938C36.5625 21.8397 36.2662 22.555 35.7388 23.0825C35.2113 23.6099 34.496 23.9063 33.75 23.9063C33.0041 23.9063 32.2888 23.6099 31.7613 23.0825C31.2339 22.555 30.9375 21.8397 30.9375 21.0938Z" fill="#2E318B"/>
</g>
<defs>
<clipPath id="clip0_68_241">
<rect width="45" height="45" fill="white"/>
</clipPath>
</defs>
</svg>
