<svg width="45" height="45" viewBox="0 0 45 45" fill="none" xmlns="http://www.w3.org/2000/svg">
<g clip-path="url(#clip0_68_216)">
<path d="M2.81212 2.8122C2.81212 2.06628 3.10844 1.35091 3.63589 0.823462C4.16333 0.296016 4.8787 -0.000300298 5.62462 -0.000300298C6.37055 -0.000300298 7.08592 0.296016 7.61336 0.823462C8.14081 1.35091 8.43712 2.06628 8.43712 2.8122C8.43712 3.55812 8.14081 4.27349 7.61336 4.80094C7.08592 5.32838 6.37055 5.6247 5.62462 5.6247C4.8787 5.6247 4.16333 5.32838 3.63589 4.80094C3.10844 4.27349 2.81212 3.55812 2.81212 2.8122ZM39.3746 14.0622C39.3746 13.3163 39.6709 12.6009 40.1984 12.0735C40.7258 11.546 41.4412 11.2497 42.1871 11.2497C42.933 11.2497 43.6484 11.546 44.1759 12.0735C44.7033 12.6009 44.9996 13.3163 44.9996 14.0622C44.9996 14.8081 44.7033 15.5235 44.1759 16.0509C43.6484 16.5784 42.933 16.8747 42.1871 16.8747C41.4412 16.8747 40.7258 16.5784 40.1984 16.0509C39.6709 15.5235 39.3746 14.8081 39.3746 14.0622ZM42.1871 36.5622C42.933 36.5622 43.6484 36.8585 44.1759 37.386C44.7033 37.9134 44.9996 38.6288 44.9996 39.3747C44.9996 40.1206 44.7033 40.836 44.1759 41.3634C43.6484 41.8909 42.933 42.1872 42.1871 42.1872C41.4412 42.1872 40.7258 41.8909 40.1984 41.3634C39.6709 40.836 39.3746 40.1206 39.3746 39.3747C39.3746 38.6288 39.6709 37.9134 40.1984 37.386C40.7258 36.8585 41.4412 36.5622 42.1871 36.5622ZM14.6774 13.447C13.8512 12.6208 13.8512 11.2849 14.6774 10.4675L15.4069 9.73798C16.8746 8.27021 17.7975 6.3454 18.026 4.27997L18.2897 1.87177C18.4215 0.720403 19.4674 -0.114558 20.6276 0.00848876C21.7877 0.131536 22.6227 1.17743 22.4908 2.33759L22.2272 4.74579C21.8932 7.76044 20.5397 10.5729 18.3951 12.7175L17.6656 13.447C16.8395 14.2731 15.5035 14.2731 14.6861 13.447H14.6774ZM31.5524 27.3337L32.2731 26.6042C34.4176 24.4597 37.2301 23.1061 40.2447 22.7722L42.6529 22.5085C43.8131 22.3767 44.8502 23.2116 44.982 24.3718C45.1139 25.5319 44.2789 26.569 43.1188 26.7009L40.7106 26.9645C38.6451 27.1931 36.7203 28.1159 35.2526 29.5837L34.5406 30.322C33.7145 31.1481 32.3785 31.1481 31.5611 30.322C30.7438 29.4958 30.735 28.1599 31.5611 27.3425L31.5524 27.3337ZM44.4986 0.74677C45.2545 1.63447 45.1402 2.9704 44.2526 3.71747L43.3736 4.46454C42.0729 5.56318 40.4117 6.14325 38.7154 6.09931C37.2565 6.06415 36.026 7.18915 35.9381 8.64814L35.7799 11.2849C35.5602 15.0202 32.4137 17.903 28.6783 17.8063C28.0104 17.7888 27.36 18.0173 26.859 18.4479L25.9801 19.195C25.0924 19.9509 23.7565 19.8366 23.0094 18.9489C22.2623 18.0612 22.3678 16.7253 23.2555 15.9782L24.1344 15.2311C25.4352 14.1325 27.0963 13.5524 28.7926 13.5964C30.2516 13.6315 31.482 12.5065 31.5699 11.0476L31.7281 8.41083C31.9479 4.67548 35.0943 1.79267 38.8297 1.88935C39.4977 1.90693 40.1481 1.67841 40.649 1.24775L41.5279 0.500676C42.4156 -0.255183 43.7516 -0.140925 44.4986 0.74677ZM13.236 17.7009L27.2985 31.7634C27.9752 32.4401 28.2652 33.4157 28.0543 34.3474C27.8434 35.279 27.1842 36.0524 26.2965 36.3864L22.8072 37.696L7.30334 22.1921L8.61291 18.7028C8.94689 17.8063 9.72033 17.1472 10.652 16.945C11.5836 16.7429 12.5592 17.0329 13.236 17.7009ZM4.23595 30.3747L6.22228 25.0837L19.9156 38.777L14.6246 40.7634L4.23595 30.3747ZM3.1549 33.2663L11.733 41.8444L3.7965 44.8239C2.76818 45.2106 1.59923 44.9558 0.817007 44.1823C0.0347808 43.4089 -0.211313 42.2311 0.175406 41.2028L3.14611 33.2663H3.1549Z" fill="#2E318B"/>
</g>
<defs>
<clipPath id="clip0_68_216">
<rect width="45" height="45" fill="white"/>
</clipPath>
</defs>
</svg>
