<svg width="68" height="68" viewBox="0 0 68 68" fill="none" xmlns="http://www.w3.org/2000/svg">
<g id="Group 15">
<path id="Vector" d="M49.0477 21.5768L40.0859 30.5388L43.5472 34L52.509 25.0381L49.0477 21.5768Z" fill="#F7F7FC"/>
<path id="Vector_2" d="M30.9323 39.6928L21.9703 48.6545L25.4315 52.1158L34.3935 43.154L30.9323 39.6928Z" fill="#F7F7FC"/>
<path id="Vector_3" d="M43.3554 15.8844L34.3936 24.8464L37.8547 28.3076L46.8166 19.3456L43.3554 15.8844Z" fill="#F7F7FC"/>
<path id="Vector_4" d="M25.24 34L16.2781 42.9619L19.7393 46.4231L28.7012 37.4613L25.24 34Z" fill="#F7F7FC"/>
<path id="Vector_5" d="M19.7392 21.5771L16.278 25.0383L25.2399 34.0003L28.7011 30.539L19.7392 21.5771Z" fill="#F7F7FC"/>
<path id="Vector_6" d="M25.4316 15.8845L21.9703 19.3457L30.9322 28.3077L34.3935 24.8465L25.4316 15.8845Z" fill="#F7F7FC"/>
<path id="Vector_7" d="M43.5472 34.0002L40.0859 37.4614L49.0477 46.4232L52.5089 42.962L43.5472 34.0002Z" fill="#F7F7FC"/>
<path id="Vector_8" d="M37.8547 39.6926L34.3936 43.1538L43.3554 52.1156L46.8166 48.6544L37.8547 39.6926Z" fill="#F7F7FC"/>
<path id="Vector_9" d="M47 55.4864L43.5174 52L34.5 61.0271L25.4827 52L22 55.4864L34.5 68L47 55.4864Z" fill="#F7F7FC"/>
<path id="Vector_10" d="M16 25.3434L12.5136 22L0 34L12.5136 46L16 42.6566L6.97287 34L16 25.3434Z" fill="#F7F7FC"/>
<path id="Vector_11" d="M56.2685 22L53 25.3434L61.4633 34L53 42.6566L56.2685 46L68 34L56.2685 22Z" fill="#F7F7FC"/>
<path id="Vector_12" d="M43.5174 16L47 12.5136L34.5 0L22 12.5136L25.4827 16L34.5 6.97271L43.5174 16Z" fill="#F7F7FC"/>
</g>
</svg>
