<svg width="68" height="68" viewBox="0 0 68 68" fill="none" xmlns="http://www.w3.org/2000/svg">
<path d="M45 2C44.8371 1.82915 44.6728 1.65856 44.508 1.49633C44.3375 1.32801 44.169 1.16451 44 1C44.169 1.16578 44.3379 1.33154 44.5069 1.50112C44.6712 1.66335 44.8356 1.82788 45 2Z" fill="#F7F7FC"/>
<path d="M43.3975 1.23017L43.3963 1.23364L43.3999 1.23485L43.4011 1.23138L43.3975 1.23017Z" fill="#F7F7FC"/>
<path d="M51.3727 4.37401C51.5831 4.58335 51.7917 4.78975 52 5C51.7917 4.78902 51.584 4.57969 51.3748 4.37145L51.2165 4.21375L51.3727 4.37401Z" fill="#F7F7FC"/>
<path d="M46.1565 2.14897C46.3857 2.3678 46.6354 2.62118 46.9391 2.93615C46.9596 2.95677 46.9793 2.97844 47 3C46.9795 2.97844 46.9595 2.95629 46.9388 2.9352C46.6346 2.61929 46.3862 2.36968 46.1565 2.14897Z" fill="#F7F7FC"/>
<path d="M23 15C26.7535 11.0264 31.6275 8.24119 37 7C31.6267 8.23915 26.7521 11.0246 23 15Z" fill="#F7F7FC"/>
<path d="M7.41391 51.0683C2.7491 46.6423 0.0848113 40.6111 0.0029195 34.2917L0.00116047 34.2019V34.0962C-3.32246e-07 34.0637 0.000200138 34.0321 0 34C0.000200138 34.0317 0.000199918 34.0635 0.000400056 34.0953C0.000600194 34.1308 0.00116047 34.1664 0.00116047 34.2019L0.00236064 34.2922C0.1008 40.6124 2.76606 46.6416 7.4225 51.0774C12.0789 55.5133 18.3528 57.9998 24.8891 58C25.9291 57.9989 26.9681 57.9354 28 57.81C26.9683 57.9351 25.9296 57.9985 24.8899 57.9997C18.3458 58.0158 12.0618 55.5233 7.41391 51.0683Z" fill="#F7F7FC"/>
<path d="M0.332224 32.4348L0.33197 32.4377L0.334118 32.4379L0.334372 32.4349L0.332224 32.4348Z" fill="#F7F7FC"/>
<path d="M0.394653 28.5661L0.390028 28.5974L0.383627 28.6388C0.374578 28.6967 0.36533 28.7549 0.35798 28.8129V28.8184L0.356638 28.8223L0.356044 28.8239C0.354701 28.8349 0.35316 28.8464 0.351618 28.8576C0.346995 28.892 0.341979 28.9261 0.337711 28.9618L0.323839 29.0525L0.32131 29.0687L0.317674 29.0961L0.317279 29.0982L0.315739 29.1123L0.313209 29.1258L0.312063 29.1323L0.308982 29.16L0.306649 29.1813L0.305898 29.1852L0.302817 29.1995C0.288117 29.3102 0.273454 29.4225 0.258794 29.535C0.246939 29.6338 0.235639 29.7361 0.224258 29.8375C0.219832 29.8761 0.215603 29.9138 0.211138 29.9524V29.9558L0.209793 29.9609L0.209398 29.9632C0.194737 30.0847 0.181739 30.2082 0.168896 30.3297C0.159807 30.4202 0.152496 30.5127 0.143209 30.6053V30.6144L0.134159 30.7052C0.130484 30.7413 0.127996 30.7773 0.125111 30.8136C0.121989 30.8517 0.118511 30.8901 0.115626 30.9282C0.113532 30.9477 0.112345 30.9677 0.110607 30.9873C0.107919 31.0167 0.105038 31.0459 0.102904 31.0752C0.100414 31.1122 0.0978831 31.1487 0.0953936 31.1853L0.0919174 31.2366C0.0808923 31.3616 0.0716456 31.4924 0.064256 31.6429L0.0635053 31.6446L0.0625164 31.6465V31.652C0.0588809 31.7159 0.0559557 31.7798 0.0526758 31.8437C0.0490403 31.9105 0.0451683 31.9771 0.0422836 32.0438L0.0414937 32.0499L0.040544 32.0566V32.0711L0.0392024 32.0928C0.0386096 32.1077 0.0380149 32.1222 0.0368689 32.1382V32.1599L0.0366729 32.1619L0.0349333 32.1834C0.0309817 32.2586 0.0285728 32.3341 0.0258857 32.41C0.0247002 32.4422 0.023159 32.4739 0.0222106 32.5065C0.0165992 32.6444 0.0129617 32.7732 0.0110254 32.9055C0.00928666 32.9255 0.00928882 32.9473 0.00928882 32.969V33.0144C0.00561378 33.1234 0.00367513 33.2303 0.00367513 33.3391L0.00252948 33.4005L0.00193856 33.4278V33.5421C0.000792583 33.5749 0.000990494 33.6077 0.000792911 33.6407C0.000792911 33.6641 0 33.6876 0 33.711C0 33.7337 0.000792911 33.7576 0.000792911 33.7809C0.000990494 33.8133 0.000792583 33.8451 0.00193856 33.8779V33.9849L0.00367513 34.0756C0.100879 40.4536 2.73217 46.5379 7.32924 51.0143C11.9263 55.4907 18.1202 57.9999 24.573 58C25.5995 57.9987 26.6249 57.9348 27.6434 57.8086C28.1025 57.7523 28.5602 57.6878 29.014 57.6064L29.0128 57.6058C24.3853 54.8289 20.6565 50.803 18.2654 46.002C18.1233 45.7164 17.9881 45.4283 17.8563 45.1387C17.8418 45.107 17.826 45.0762 17.8118 45.0444C15.8447 40.654 15.0546 35.8368 15.5177 31.0569C15.9807 26.277 17.6812 21.6955 20.4554 17.7539C21.2123 16.6825 22.0435 15.6644 22.9431 14.707C27.3304 10.043 33.1978 7.00058 39.5734 6.08366C45.949 5.16674 52.4502 6.43037 58 9.66521L57.9979 9.6631C57.9961 9.66037 57.9937 9.65804 57.9909 9.65627C57.9523 9.6183 57.9101 9.57813 57.8697 9.53837C57.8165 9.48708 57.7617 9.43576 57.7071 9.38447C57.6903 9.36861 57.6737 9.35278 57.6569 9.33696L57.6554 9.33564L57.6423 9.32439L57.6374 9.31884L57.6295 9.3097C57.5834 9.26583 57.5307 9.21872 57.4813 9.17298C57.4287 9.12395 57.3791 9.07646 57.3233 9.02685L57.3175 9.02021L57.3123 9.01407L57.2994 9.00321C57.2903 8.99481 57.2814 8.987 57.2723 8.9786C57.2122 8.9227 57.1527 8.86817 57.0921 8.81454L57.0809 8.80367L57.0022 8.7329L56.9627 8.69797C56.8755 8.61961 56.7888 8.54195 56.7028 8.46625C56.604 8.37926 56.5083 8.29762 56.413 8.21601C56.3831 8.18988 56.3503 8.16376 56.3196 8.13762C56.2544 8.08211 56.1897 8.02661 56.1212 7.9711L55.9892 7.86172L55.9175 7.80222L55.9157 7.79859L55.8625 7.75562L55.8348 7.73332C55.7558 7.66809 55.6807 7.60628 55.6036 7.5464L55.5923 7.53648L55.587 7.53211L55.5797 7.52636L55.5706 7.51933C55.5137 7.47222 55.4549 7.42679 55.3981 7.3814L55.3978 7.38105L55.3925 7.37589L55.3886 7.37397L55.3851 7.37226C55.2016 7.22538 55.0088 7.07663 54.8163 6.93167L54.8126 6.92803L54.807 6.92441C54.7557 6.88437 54.7043 6.84627 54.6511 6.80635L54.5882 6.75905L54.5502 6.73022C54.5417 6.72339 54.5327 6.71725 54.5238 6.71096L54.5153 6.70487L54.513 6.70296L54.5062 6.69761L54.501 6.69437L54.4916 6.68847L54.3839 6.60874L54.3447 6.57976L54.1979 6.47256C54.1828 6.46166 54.1668 6.45061 54.1514 6.43955C54.1234 6.41971 54.0958 6.39987 54.0676 6.38022L54.0088 6.33846L54.008 6.33752L54.0051 6.33483L54.0018 6.33311L53.9979 6.33124C53.9402 6.2887 53.8823 6.24823 53.8244 6.20819C53.8107 6.19866 53.797 6.18814 53.7831 6.17881L53.7667 6.16775L53.752 6.1571C53.6106 6.05905 53.4693 5.9612 53.3262 5.86315L53.3225 5.86142L53.321 5.86049L53.3152 5.85759C53.2515 5.81371 53.1874 5.7703 53.1228 5.72736C53.1074 5.71724 53.0923 5.70635 53.0767 5.69611L53.075 5.69419L53.0694 5.69057C52.9737 5.62877 52.8778 5.56524 52.7805 5.50325L52.7647 5.49294L52.7644 5.49259L52.7574 5.48743L52.7483 5.48208C52.7277 5.46872 52.7072 5.45576 52.6866 5.4426C52.6173 5.39799 52.5479 5.35313 52.4786 5.30977L52.4676 5.30255L52.4668 5.30217L52.4566 5.29529C52.3539 5.22814 52.2492 5.16463 52.1427 5.09939L52.1319 5.09329L52.1299 5.09215L52.1153 5.08318C52.0088 5.01607 51.9005 4.94891 51.7903 4.8854L51.6178 4.78201L51.6161 4.78009C51.5891 4.76407 51.5632 4.74884 51.5368 4.73321C51.504 4.71368 51.4706 4.69391 51.438 4.67485L51.4312 4.67141L51.4307 4.67102L51.4298 4.67028L51.425 4.66723C51.4049 4.6552 51.3845 4.64434 51.3644 4.6325C51.2865 4.58746 51.2083 4.54325 51.1296 4.4984L51.0707 4.46407C51.0433 4.44825 51.0171 4.43375 50.9901 4.41828C50.9177 4.37672 50.8458 4.33497 50.7736 4.29528C50.7665 4.29137 50.7591 4.28801 50.7522 4.28422C50.2688 4.01679 49.7753 3.75989 49.2798 3.51613C49.2688 3.51059 49.258 3.50441 49.2468 3.49894L49.2414 3.49687L49.2377 3.49534L49.2265 3.48999C49.1183 3.4337 49.0083 3.38109 48.8964 3.33034L48.6044 3.19245L48.6027 3.19055C48.595 3.18613 48.5859 3.18253 48.5772 3.17851L48.5604 3.1707L48.5531 3.16706L48.5506 3.16651L48.5458 3.16515C48.2008 3.00383 47.8834 2.86397 47.577 2.73526L47.5691 2.73136L47.5625 2.72812L47.5555 2.72561L47.5478 2.72277C47.4743 2.68995 47.401 2.65925 47.3258 2.62835L47.2945 2.61577L47.2725 2.60663L47.2685 2.60394L47.2672 2.60299L47.135 2.54862C47.0885 2.52995 47.0408 2.51069 46.9934 2.49159C46.9712 2.48265 46.9499 2.47366 46.9276 2.4651C46.5992 2.33444 46.3294 2.22932 46.0817 2.13854L45.9331 2.0842L45.9126 2.07674L45.7567 2.01897C45.3404 1.87018 44.9071 1.72311 44.4725 1.58713L44.467 1.58541L44.4615 1.5835C44.4543 1.58123 44.4472 1.57931 44.4401 1.57701C44.3573 1.55049 44.2745 1.52513 44.1917 1.50013C44.1066 1.474 44.0215 1.44845 43.9364 1.42291C43.8857 1.40763 43.8351 1.3924 43.7844 1.37674C43.5953 1.32205 43.4155 1.27146 43.243 1.22439L43.2343 1.22306L43.232 1.22267L43.2272 1.22095L43.221 1.21884C43.1977 1.21275 43.1739 1.20626 43.1502 1.19997C43.1126 1.19005 43.0748 1.17994 43.0375 1.17001L43.0143 1.16334L42.9808 1.15361C42.6225 1.05865 42.2563 0.973369 41.8897 0.889071C41.6739 0.839266 41.4584 0.791805 41.2406 0.745828C40.8749 0.668757 40.5087 0.592076 40.1401 0.526099C40.0024 0.502427 39.8665 0.478799 39.7292 0.457041L39.7218 0.455324H39.7128C39.5769 0.431886 39.4394 0.409925 39.3016 0.389925C39.2381 0.380355 39.1748 0.371223 39.1109 0.361887C39.0311 0.349856 38.9508 0.337669 38.8723 0.326732C38.48 0.272773 38.0857 0.225412 37.6893 0.184657C36.9258 0.106062 36.1563 0.0535998 35.386 0.0252011C34.9577 0.00934155 34.5291 0 34.1012 0C33.3799 0 32.6565 0.025943 31.9349 0.0707871C31.8591 0.0753575 31.7828 0.0772711 31.707 0.0825055C30.9097 0.137194 30.1156 0.218873 29.33 0.326803C29.1888 0.346647 29.0475 0.368408 28.908 0.388447C28.9043 0.389542 28.9005 0.390359 28.8967 0.390903L28.8916 0.392035L0.396588 28.557L0.394653 28.5661Z" fill="#F7F7FC"/>
<path d="M67.6128 39.3919L67.6164 39.3665L67.6201 39.3391C67.6274 39.292 67.6348 39.243 67.6402 39.1959L67.6421 39.185L67.6439 39.1669L67.6475 39.1469C67.6568 39.0853 67.6678 39.0219 67.6752 38.96L67.6788 38.9184L67.6862 38.8766C67.6898 38.8566 67.6917 38.8367 67.6954 38.8186L67.7211 38.608L67.7413 38.4631C67.7597 38.3233 67.7743 38.1926 67.789 38.0621L67.7907 38.044C67.8054 37.919 67.8184 37.801 67.8293 37.6812C67.8386 37.5815 67.8496 37.4871 67.857 37.3946V37.3892L67.8661 37.2984C67.8734 37.2313 67.879 37.1661 67.8827 37.1006L67.8844 37.0753L67.8863 37.0499C67.8954 36.9647 67.901 36.8794 67.9064 36.7941V36.7815L67.9083 36.7596C67.9193 36.6364 67.9286 36.5057 67.936 36.3589V36.3497C67.9451 36.2174 67.9524 36.0884 67.9597 35.9616L67.9616 35.9234V35.8708L67.9634 35.8183C67.9707 35.7113 67.9743 35.6024 67.978 35.4935C67.9836 35.3466 67.9873 35.207 67.9909 35.0672L67.9927 35.0491V34.9858C67.9946 34.8858 67.9964 34.7843 67.9964 34.6827V34.5684L67.9983 34.5503C68 34.4631 68 34.3762 68 34.2909C68 34.2003 68 34.1076 67.9983 34.0187V34.0115L67.9964 33.9245C67.9 27.5462 65.269 21.4614 60.6718 16.9848C56.0745 12.5082 49.8801 9.99927 43.427 10C41.9378 9.99943 40.4515 10.1312 38.9862 10.3937C45.37 14.2162 49.9642 20.3806 51.7654 27.5405C53.5666 34.7003 52.4284 42.2739 48.5995 48.607C44.7705 54.94 38.562 59.518 31.3297 61.3411C24.0975 63.1642 16.4293 62.0841 10 58.3369L10.0073 58.3441L10.0274 58.3621L10.0457 58.3804C10.0652 58.4016 10.0861 58.4216 10.1082 58.4401L10.1762 58.5055C10.2311 58.5599 10.2861 58.6125 10.343 58.6651L10.3521 58.6741L10.3633 58.6833C10.455 58.7703 10.5632 58.8736 10.6697 58.9698L10.6863 58.9825L10.701 58.997C10.7707 59.0625 10.8403 59.1277 10.9119 59.1912L10.9175 59.1966L10.9248 59.2021C11.0477 59.3144 11.1726 59.4252 11.3009 59.5359L11.3084 59.5412L11.3158 59.5484C11.3983 59.6211 11.4807 59.6936 11.5652 59.7663L11.5816 59.7789L11.6369 59.826L11.6423 59.8279L11.8847 60.0347L11.9341 60.0764L11.9453 60.0873C12.0113 60.1416 12.0757 60.1962 12.1434 60.2486L12.1691 60.2687L12.1928 60.2904C12.2497 60.3394 12.3139 60.3902 12.3856 60.4465L12.4093 60.4646L12.4313 60.4827C12.4826 60.5262 12.534 60.5679 12.5835 60.6042L12.6001 60.617L12.6148 60.6295C12.7963 60.7747 12.9855 60.9199 13.1763 61.0632C13.2166 61.096 13.2589 61.1267 13.2992 61.1576C13.3468 61.1938 13.3928 61.2283 13.4404 61.2628C13.4681 61.2827 13.4937 61.3008 13.5176 61.3208L13.5635 61.3534C13.6386 61.4097 13.7158 61.466 13.7927 61.5223L13.8643 61.573C13.9029 61.6001 13.9414 61.6273 13.9799 61.6546L13.9946 61.6653L14.0112 61.6764C14.0661 61.718 14.125 61.758 14.1817 61.7979L14.2442 61.8414C14.3837 61.9394 14.5267 62.0373 14.6699 62.1353L14.6828 62.1426L14.6957 62.1517C14.7581 62.1952 14.8222 62.237 14.8846 62.2786L14.9323 62.3095L15.0901 62.4129L15.2572 62.5235C15.3416 62.5778 15.4297 62.636 15.5196 62.6904C15.6096 62.7483 15.6975 62.8029 15.7838 62.8573H16.0003L16.3876 63.2217C16.4463 63.2582 16.5068 63.2944 16.5674 63.3289C16.6849 63.3978 16.8042 63.4666 16.9234 63.5321L16.9344 63.5393L16.9454 63.5466C17.039 63.6009 17.1326 63.6517 17.2281 63.7043C17.7309 63.9856 18.2409 64.2521 18.7511 64.5008C18.8649 64.5569 18.9768 64.6115 19.0888 64.6639C19.1053 64.6731 19.1217 64.6803 19.1383 64.6895C19.2448 64.7383 19.3494 64.7871 19.4557 64.8379C19.777 64.9867 20.1054 65.1318 20.4265 65.2678L20.4338 65.2697L20.4411 65.2733C20.5202 65.3077 20.6026 65.3422 20.6816 65.3749C20.7055 65.384 20.7312 65.3949 20.7588 65.4077C20.8651 65.4512 20.9716 65.4947 21.0798 65.5382C21.3422 65.6436 21.6266 65.7524 21.9238 65.863L21.9331 65.8664L21.9423 65.8703C22.034 65.9047 22.1258 65.9392 22.2194 65.9719L22.2322 65.9755L22.2431 65.9792C22.6781 66.1371 23.1093 66.282 23.5242 66.411L23.5388 66.4163L23.5515 66.4199C23.6361 66.4489 23.7187 66.4743 23.803 66.4999L23.8159 66.5016L23.8269 66.5052C23.9534 66.5453 24.08 66.5833 24.2067 66.6214L24.3132 66.6521C24.4654 66.6938 24.6159 66.7375 24.7664 66.7791C24.8507 66.8028 24.926 66.8226 25.0012 66.8426L25.0196 66.8462C25.9592 67.0967 26.9151 67.3072 27.8585 67.472L27.8695 67.4757L27.8805 67.4776C27.9941 67.4974 28.1172 67.5193 28.2714 67.5447H28.2804L28.2878 67.5464C28.4402 67.5718 28.5668 67.5918 28.6824 67.608L28.7007 67.61L28.719 67.6136C28.8512 67.6353 28.9851 67.6534 29.1173 67.6718L29.1283 67.6735C32.2937 68.1088 35.5049 68.1088 38.6704 67.6735L38.7036 67.6679C38.8301 67.6498 38.955 67.6336 39.0797 67.6136L39.098 67.61L39.1109 67.608L67.6055 39.441C67.607 39.4245 67.6094 39.4081 67.6128 39.3919Z" fill="#F7F7FC"/>
</svg>
