<svg width="30" height="45" viewBox="0 0 30 45" fill="none" xmlns="http://www.w3.org/2000/svg">
<g clip-path="url(#clip0_68_225)">
<path d="M28.3999 11.108C27.9304 11.747 27.2521 12.2385 26.4695 12.5826C26.3652 12.6318 26.2086 12.6318 26.0521 12.5826C25.9999 12.5826 25.9478 12.5826 25.8434 12.5334C25.6347 12.4843 25.5825 12.2385 25.5304 12.0911C25.4782 11.8944 25.4782 11.6978 25.426 11.5012C25.113 10.4198 24.1217 9.63337 22.8695 9.33845C22.3999 9.24014 21.9304 9.24014 21.513 9.28929C21.2521 9.28929 20.9391 9.19099 20.8869 8.99437C20.7825 8.79776 20.8347 8.55199 21.0434 8.35537C21.5652 8.01129 22.1912 7.76552 22.8695 7.61806C23.5478 7.51975 24.3304 7.4706 24.9565 7.66722C26.626 8.06045 27.9825 9.14183 28.3999 10.6164C28.4521 10.6656 28.4521 10.7148 28.4521 10.7639C28.5043 10.8622 28.4521 10.9605 28.3999 11.108Z" fill="#2E318B"/>
<path d="M17.9652 8.30625C17.8609 8.60117 17.5478 8.79779 17.2348 8.69948C17.0783 8.69948 16.9739 8.50287 16.9217 8.40456C16.7652 8.15879 16.5043 7.91302 16.2435 7.66725C15.8261 7.32317 15.2522 7.0774 14.6783 6.88079C13.3217 6.53671 11.913 6.83163 10.8696 7.56894C10.713 7.7164 10.5565 7.7164 10.3478 7.66725C10.2435 7.66725 10.1391 7.6181 10.087 7.51979C9.56522 7.12656 9.2 6.68417 8.88696 6.14348C8.78261 5.99602 8.83478 5.75025 8.93913 5.60279C10.2435 4.32479 12.3304 3.83325 14.313 4.32479C15.7217 4.66887 16.9217 5.50448 17.6 6.68417C17.8087 7.0774 17.9652 7.47063 18.0696 7.86387C18.0174 8.06048 18.0696 8.20794 17.9652 8.30625Z" fill="#2E318B"/>
<path d="M20.1565 7.76555C19.9999 7.91301 19.7391 7.96216 19.5826 7.91301C19.5304 7.91301 19.426 7.91301 19.3739 7.86386C19.113 7.71639 19.0086 7.42147 19.1652 7.22486C19.5826 6.48755 19.6347 5.60278 19.3739 4.81632C18.9565 3.58747 17.8086 2.55524 16.3478 2.21116C16.1391 2.16201 15.9304 2.01455 15.9304 1.81793C15.8782 1.62132 15.9826 1.4247 16.0869 1.32639C16.6608 0.933163 17.2869 0.63824 18.0173 0.441625C18.1739 0.392471 18.3304 0.441625 18.4869 0.490779C19.9478 1.08062 20.9391 2.21116 21.4086 3.48916C21.9304 5.01293 21.4608 6.58586 20.1565 7.76555Z" fill="#2E318B"/>
<path d="M21.3564 36.5697L21.6173 39.0274L19.3738 37.7002L16.9217 38.6341L17.5999 36.2748L15.8782 34.3578L18.539 34.2594L19.9477 32.0967L20.8347 34.4561L23.3912 34.9968L21.3564 36.5697Z" fill="#2E318B"/>
<path d="M19.6869 9.92833C19.5826 9.83002 19.6347 9.68256 19.5304 9.58425C19.4261 9.48594 19.2695 9.38763 19.0608 9.38763C18.8521 9.38763 18.6956 9.38763 18.5913 9.5351C18.5391 9.6334 18.4869 9.73171 18.3826 9.83002C14.8869 15.2369 0.434746 37.8477 0.434746 38.1426C0.278224 41.5834 7.89562 43.6479 14.4695 44.4343C18.0174 44.8276 21.4608 44.8767 24.1217 44.5818C27.513 44.1394 29.3391 43.1072 29.7043 41.5834C29.913 41.141 21.6695 15.9251 19.6869 9.92833ZM15.0434 40.6495C8.99127 39.9613 5.44344 38.4376 4.55649 37.7002C4.76518 37.3562 5.80866 35.7341 7.26953 33.473L8.26083 34.0629V37.6019L11.2347 35.4392L14.8347 36.5206L13.5826 33.2272L15.7739 30.3763L12.0174 30.4746L10.5043 28.5085C13.6869 23.3965 17.2869 17.6946 18.2782 16.1709C18.5913 17.0556 19.2695 19.1692 20.0521 21.7252L18.7478 22.8558L15.7217 22.2168L17.0261 24.8711L15.4608 27.3779L18.5391 27.0339L20.5739 29.2458L21.2 26.3949L21.5652 26.2474C23.6521 32.5882 25.8434 39.5189 26.0521 40.2563C24.9043 40.6986 21.0956 41.3868 15.0434 40.6495Z" fill="#2E318B"/>
</g>
<defs>
<clipPath id="clip0_68_225">
<rect width="30" height="45" fill="white"/>
</clipPath>
</defs>
</svg>
