<svg width="81" height="68" viewBox="0 0 81 68" fill="none" xmlns="http://www.w3.org/2000/svg">
<path d="M36.2771 14.8072L43.4038 27.1846C44.208 27.1696 45.0169 27.1625 45.8304 27.1635C47.9163 27.1635 49.9728 27.2095 52 27.3017L36.2768 0L19 30C22.0006 29.3139 25.1832 28.7396 28.511 28.2917L36.2771 14.8072ZM23.4834 26.7701L36.2771 4.55553L47.9936 24.9025C47.2725 24.8903 46.5501 24.8857 45.8305 24.8857C45.4594 24.8857 45.0848 24.8872 44.7065 24.8903L38.2448 13.6683L36.2771 10.2515L34.3079 13.6683L27.0977 26.1886C25.8784 26.3647 24.6707 26.5591 23.4834 26.7701Z" fill="#F7F7FC"/>
<path d="M25.7209 68C16.7737 64.1058 11.3061 58.8941 11.3061 53.1682C11.3356 51.201 11.9413 49.2846 13.0496 47.6518H63.8918L54.6293 31.7623C58.1535 31.4723 61.8025 31.3198 65.5398 31.3198C70.3952 31.3149 75.247 31.58 80.0723 32.114C80.383 32.1485 80.6917 32.1835 81 32.2204C80.1849 32.016 79.3553 31.8206 78.5111 31.6343L78.5096 31.6337C70.1333 29.8502 61.587 28.9675 53.0194 29.0009C52.9646 29 52.9091 29 52.8544 29C50.7493 29 48.6756 29.0482 46.6334 29.1445C45.9533 29.1762 45.2772 29.2131 44.605 29.2551C38.5631 29.6084 32.5599 30.4447 26.6541 31.7559C26.1832 31.8627 25.717 31.9723 25.2553 32.0848C22.2153 32.8136 19.2243 33.7303 16.3 34.8295C6.25441 38.6484 4.14768e-10 44.0281 4.14768e-10 49.9873C-7.5515e-05 57.6381 10.3114 64.3335 25.7209 68ZM46.6072 32.6888L51.0479 40.3076H21.6937C27.9102 36.8731 36.5534 34.1971 46.6072 32.6888Z" fill="#F7F7FC"/>
</svg>
