<svg id="svg" version="1.1" xmlns="http://www.w3.org/2000/svg" xmlns:xlink="http://www.w3.org/1999/xlink" width="400" height="123.13924050632912" viewBox="0, 0, 400,123.13924050632912"><g id="svgg"><path id="path0" d="M177.409 0.509 C 177.209 0.730,177.070 0.779,176.994 0.657 C 176.919 0.536,176.843 0.569,176.773 0.751 C 176.714 0.905,176.706 1.096,176.756 1.176 C 176.806 1.257,176.693 1.418,176.506 1.535 C 176.320 1.651,176.167 1.839,176.167 1.951 C 176.167 2.063,176.017 2.235,175.833 2.333 C 175.650 2.431,175.501 2.603,175.502 2.714 C 175.502 2.826,175.259 3.129,174.960 3.389 C 174.661 3.649,174.529 3.812,174.667 3.753 C 174.804 3.693,174.654 3.884,174.333 4.177 C 174.012 4.471,173.844 4.659,173.958 4.595 C 174.412 4.344,174.171 4.675,172.988 5.923 C 172.811 6.109,172.667 6.349,172.667 6.455 C 172.667 6.561,172.528 6.746,172.358 6.866 C 172.188 6.985,171.924 7.327,171.771 7.625 C 171.617 7.923,171.417 8.167,171.325 8.167 C 171.233 8.167,171.085 8.335,170.996 8.542 C 170.745 9.124,170.444 9.558,170.125 9.799 C 169.965 9.920,169.833 10.123,169.833 10.250 C 169.833 10.377,169.697 10.579,169.530 10.699 C 169.364 10.819,169.085 11.160,168.911 11.458 C 168.737 11.756,168.541 12.000,168.475 12.000 C 168.409 12.000,168.186 12.300,167.980 12.667 C 167.774 13.033,167.553 13.333,167.488 13.333 C 167.424 13.333,167.247 13.596,167.095 13.917 C 166.942 14.237,166.748 14.500,166.663 14.500 C 166.578 14.500,166.396 14.718,166.258 14.984 C 166.120 15.251,165.910 15.569,165.790 15.693 C 165.670 15.816,165.389 16.179,165.166 16.500 C 164.942 16.821,164.589 17.270,164.380 17.498 C 164.171 17.727,164.000 17.990,164.000 18.083 C 164.000 18.177,163.850 18.347,163.667 18.461 C 163.483 18.576,163.333 18.777,163.333 18.909 C 163.333 19.040,163.202 19.246,163.042 19.366 C 162.881 19.485,162.648 19.781,162.524 20.023 C 162.399 20.264,162.044 20.752,161.735 21.106 C 161.426 21.460,161.172 21.827,161.170 21.922 C 161.168 22.016,161.017 22.201,160.833 22.333 C 160.650 22.465,160.500 22.669,160.500 22.785 C 160.500 22.902,160.350 23.091,160.167 23.205 C 159.983 23.320,159.833 23.474,159.833 23.547 C 159.833 23.683,159.282 24.495,158.833 25.019 C 158.696 25.180,158.358 25.621,158.083 26.000 C 157.808 26.379,157.471 26.822,157.333 26.984 C 156.981 27.400,156.693 27.855,156.504 28.292 C 156.415 28.498,156.264 28.667,156.168 28.667 C 156.073 28.667,155.871 28.926,155.720 29.243 C 155.569 29.560,155.391 29.785,155.324 29.744 C 155.258 29.703,155.077 29.936,154.922 30.262 C 154.768 30.587,154.542 30.892,154.420 30.938 C 154.299 30.985,154.153 31.149,154.097 31.303 C 153.955 31.693,153.637 32.196,153.287 32.586 C 152.547 33.413,152.167 33.891,152.167 33.994 C 152.167 34.056,151.960 34.344,151.708 34.634 C 151.456 34.924,150.987 35.547,150.667 36.020 C 150.346 36.492,149.915 37.046,149.708 37.250 C 149.502 37.454,149.332 37.688,149.331 37.769 C 149.329 37.850,149.104 38.171,148.831 38.481 C 148.557 38.791,148.333 39.092,148.333 39.149 C 148.333 39.207,148.072 39.553,147.753 39.918 C 147.434 40.284,147.172 40.679,147.170 40.797 C 147.168 40.914,147.048 41.056,146.904 41.111 C 146.759 41.167,146.572 41.371,146.488 41.564 C 146.300 41.996,145.998 42.462,145.667 42.835 C 145.101 43.471,144.843 43.833,144.955 43.833 C 145.021 43.833,144.907 43.950,144.704 44.093 C 144.500 44.235,144.333 44.463,144.333 44.598 C 144.333 44.733,144.222 44.886,144.087 44.938 C 143.951 44.990,143.675 45.363,143.474 45.767 C 143.272 46.170,143.052 46.500,142.984 46.500 C 142.916 46.500,142.688 46.779,142.478 47.119 C 142.268 47.459,141.962 47.891,141.798 48.077 C 140.270 49.819,139.599 49.666,148.793 49.672 C 157.632 49.678,157.094 49.604,157.580 50.881 C 157.746 51.319,157.968 51.732,158.071 51.797 C 158.175 51.863,158.400 52.235,158.572 52.625 C 158.743 53.015,158.937 53.333,159.003 53.333 C 159.068 53.333,159.253 53.690,159.414 54.125 C 159.576 54.560,159.801 54.993,159.916 55.086 C 160.030 55.179,160.293 55.648,160.499 56.128 C 160.706 56.607,160.930 57.000,160.998 57.000 C 161.066 57.000,161.250 57.337,161.408 57.750 C 161.565 58.163,161.754 58.500,161.827 58.500 C 161.899 58.500,162.120 58.875,162.317 59.333 C 162.515 59.792,162.732 60.167,162.801 60.167 C 162.870 60.167,163.074 60.551,163.255 61.020 C 163.436 61.490,163.672 61.908,163.780 61.950 C 163.888 61.992,164.109 62.396,164.271 62.847 C 164.433 63.298,164.629 63.667,164.706 63.667 C 164.782 63.667,164.990 64.004,165.167 64.417 C 165.343 64.829,165.551 65.167,165.628 65.167 C 165.705 65.167,165.903 65.542,166.068 66.001 C 166.233 66.460,166.459 66.892,166.571 66.960 C 166.682 67.028,166.905 67.416,167.065 67.823 C 167.225 68.230,167.453 68.643,167.571 68.740 C 167.689 68.837,167.916 69.254,168.075 69.666 C 168.234 70.078,168.433 70.459,168.518 70.511 C 168.693 70.620,169.307 71.712,169.845 72.875 C 170.046 73.310,170.269 73.667,170.340 73.667 C 170.410 73.667,170.639 74.079,170.848 74.583 C 171.057 75.087,171.278 75.500,171.339 75.500 C 171.400 75.500,171.591 75.819,171.764 76.208 C 171.937 76.598,172.200 77.050,172.348 77.213 C 172.495 77.375,172.713 77.803,172.832 78.162 C 172.951 78.522,173.136 78.850,173.245 78.892 C 173.353 78.933,173.578 79.322,173.743 79.756 C 173.909 80.190,174.185 80.685,174.356 80.856 C 174.527 81.027,174.667 81.274,174.667 81.405 C 174.667 81.536,174.764 81.742,174.884 81.863 C 175.003 81.984,175.280 82.458,175.499 82.917 C 175.718 83.375,175.986 83.825,176.095 83.917 C 176.204 84.008,176.419 84.424,176.573 84.841 C 177.094 86.252,177.886 86.284,178.409 84.914 C 178.570 84.492,178.743 84.187,178.792 84.237 C 178.842 84.286,179.063 83.936,179.284 83.459 C 179.506 82.981,179.739 82.552,179.803 82.504 C 179.867 82.456,180.069 82.117,180.252 81.750 C 180.434 81.383,180.640 81.058,180.710 81.027 C 180.780 80.996,180.995 80.603,181.189 80.152 C 181.383 79.702,181.594 79.333,181.659 79.333 C 181.723 79.333,181.958 78.940,182.179 78.458 C 182.401 77.977,182.685 77.475,182.811 77.343 C 182.936 77.211,183.113 76.893,183.203 76.635 C 183.292 76.377,183.427 76.167,183.501 76.167 C 183.576 76.167,183.808 75.810,184.018 75.375 C 184.228 74.940,184.497 74.484,184.616 74.363 C 184.736 74.242,184.833 74.068,184.833 73.976 C 184.833 73.885,185.063 73.477,185.343 73.070 C 185.623 72.663,185.930 72.105,186.026 71.831 C 186.121 71.557,186.260 71.333,186.335 71.333 C 186.409 71.333,186.642 70.977,186.851 70.542 C 187.061 70.106,187.330 69.651,187.450 69.530 C 187.569 69.409,187.667 69.235,187.667 69.143 C 187.667 69.052,187.896 68.644,188.176 68.236 C 188.456 67.829,188.763 67.272,188.859 66.998 C 188.954 66.724,189.098 66.500,189.178 66.500 C 189.258 66.500,189.485 66.125,189.683 65.667 C 189.880 65.208,190.092 64.833,190.155 64.833 C 190.218 64.833,190.406 64.515,190.574 64.125 C 190.741 63.735,191.006 63.267,191.162 63.083 C 191.318 62.900,191.542 62.506,191.660 62.208 C 191.778 61.910,191.928 61.667,191.995 61.667 C 192.062 61.667,192.256 61.356,192.428 60.976 C 192.599 60.595,192.818 60.202,192.915 60.101 C 193.104 59.902,193.750 58.724,194.364 57.458 C 194.575 57.023,194.809 56.667,194.884 56.667 C 194.959 56.667,194.973 56.592,194.917 56.500 C 194.860 56.408,194.893 56.333,194.990 56.333 C 195.087 56.333,195.167 56.232,195.167 56.108 C 195.167 55.984,195.341 55.694,195.553 55.465 C 195.766 55.236,196.037 54.814,196.155 54.529 C 196.273 54.243,196.546 53.804,196.762 53.553 C 196.977 53.303,197.122 53.066,197.083 53.028 C 197.045 52.989,197.227 52.647,197.489 52.267 C 197.750 51.887,198.081 51.296,198.223 50.955 C 198.366 50.613,198.553 50.333,198.639 50.333 C 198.724 50.333,198.834 50.183,198.882 50.000 C 198.967 49.673,199.109 49.667,206.579 49.667 L 214.189 49.667 214.078 49.292 C 214.016 49.085,213.843 48.818,213.692 48.697 C 213.540 48.576,213.435 48.407,213.458 48.322 C 213.481 48.236,213.423 48.167,213.329 48.167 C 213.235 48.167,213.087 47.979,213.000 47.750 C 212.913 47.521,212.768 47.333,212.679 47.333 C 212.589 47.333,212.384 47.052,212.224 46.708 C 212.063 46.365,211.797 45.985,211.633 45.866 C 211.468 45.746,211.333 45.558,211.333 45.449 C 211.333 45.339,211.107 44.987,210.831 44.667 C 210.555 44.346,210.239 43.882,210.129 43.637 C 210.019 43.392,209.878 43.222,209.816 43.261 C 209.754 43.299,209.579 43.069,209.427 42.749 C 209.275 42.429,209.085 42.167,209.003 42.167 C 208.922 42.167,208.811 42.025,208.756 41.852 C 208.701 41.679,208.490 41.353,208.286 41.129 C 207.769 40.557,207.167 39.706,207.167 39.547 C 207.167 39.474,207.017 39.320,206.833 39.205 C 206.650 39.091,206.500 38.889,206.500 38.757 C 206.500 38.625,206.402 38.457,206.283 38.383 C 206.163 38.310,205.894 37.969,205.686 37.625 C 205.477 37.281,205.254 37.000,205.191 37.000 C 205.128 37.000,204.893 36.664,204.669 36.254 C 204.445 35.844,204.165 35.471,204.047 35.426 C 203.930 35.381,203.833 35.233,203.833 35.098 C 203.833 34.963,203.699 34.754,203.534 34.634 C 203.369 34.515,203.058 34.127,202.843 33.773 C 202.627 33.420,202.274 32.940,202.058 32.707 C 201.843 32.475,201.667 32.201,201.667 32.099 C 201.667 31.997,201.517 31.820,201.333 31.705 C 201.150 31.591,201.000 31.386,201.000 31.250 C 201.000 31.114,200.850 30.909,200.667 30.795 C 200.483 30.680,200.333 30.526,200.333 30.453 C 200.333 30.292,199.726 29.422,199.208 28.841 C 199.002 28.610,198.833 28.344,198.833 28.250 C 198.833 28.157,198.683 27.987,198.500 27.872 C 198.317 27.758,198.167 27.553,198.167 27.417 C 198.167 27.281,198.017 27.076,197.833 26.961 C 197.650 26.847,197.500 26.693,197.500 26.620 C 197.500 26.478,196.892 25.579,196.541 25.200 C 196.425 25.076,196.245 24.811,196.139 24.612 C 196.034 24.413,195.809 24.152,195.640 24.032 C 195.471 23.912,195.333 23.710,195.333 23.583 C 195.333 23.456,195.202 23.254,195.042 23.134 C 194.881 23.013,194.637 22.717,194.500 22.474 C 194.203 21.950,193.568 21.106,193.025 20.512 C 192.809 20.276,192.531 19.886,192.406 19.645 C 192.281 19.404,192.064 19.163,191.923 19.109 C 191.782 19.055,191.667 18.900,191.667 18.765 C 191.667 18.630,191.535 18.420,191.375 18.299 C 191.029 18.037,190.729 17.588,190.481 16.959 C 190.382 16.707,190.245 16.535,190.177 16.577 C 190.109 16.619,189.887 16.356,189.683 15.993 C 189.479 15.630,189.240 15.333,189.152 15.333 C 189.064 15.333,188.920 15.144,188.832 14.912 C 188.744 14.681,188.558 14.448,188.419 14.395 C 188.280 14.341,188.167 14.226,188.167 14.139 C 188.167 14.052,188.260 14.034,188.375 14.100 C 188.490 14.165,188.411 14.039,188.200 13.818 C 187.212 12.783,186.667 12.101,186.667 11.899 C 186.667 11.778,186.517 11.598,186.333 11.500 C 186.150 11.402,186.000 11.209,186.000 11.072 C 186.000 10.935,185.885 10.779,185.745 10.725 C 185.605 10.671,185.341 10.299,185.158 9.897 C 184.975 9.495,184.755 9.167,184.670 9.167 C 184.584 9.167,184.316 8.829,184.075 8.417 C 183.833 8.004,183.579 7.667,183.511 7.667 C 183.404 7.667,182.963 6.909,182.929 6.667 C 182.922 6.621,182.782 6.433,182.617 6.250 C 181.792 5.334,180.978 4.208,180.889 3.859 C 180.814 3.566,180.754 3.524,180.647 3.692 C 180.537 3.866,180.505 3.852,180.503 3.629 C 180.501 3.471,180.313 3.218,180.083 3.068 C 179.854 2.918,179.667 2.700,179.667 2.585 C 179.667 2.469,179.555 2.281,179.419 2.168 C 179.282 2.055,179.206 1.904,179.250 1.833 C 179.294 1.761,179.141 1.579,178.910 1.428 C 178.679 1.276,178.520 1.099,178.556 1.034 C 178.769 0.661,177.710 0.176,177.409 0.509 M369.875 46.623 C 369.394 46.657,369.000 46.760,369.000 46.852 C 369.000 46.944,368.922 46.972,368.827 46.913 C 368.732 46.854,367.977 46.898,367.149 47.011 C 366.216 47.139,365.728 47.270,365.864 47.356 C 366.014 47.451,365.946 47.496,365.650 47.497 C 365.411 47.499,364.999 47.571,364.733 47.659 C 364.467 47.746,363.929 47.899,363.537 48.000 C 363.144 48.100,362.867 48.254,362.921 48.341 C 362.975 48.429,362.860 48.500,362.666 48.500 C 362.265 48.500,361.644 48.792,361.461 49.067 C 361.378 49.191,361.338 49.180,361.336 49.032 C 361.334 48.912,361.257 48.861,361.164 48.918 C 361.071 48.976,361.038 49.093,361.090 49.178 C 361.174 49.314,360.824 49.411,360.458 49.353 C 360.390 49.342,360.333 49.408,360.333 49.500 C 360.333 49.592,360.221 49.667,360.083 49.667 C 359.946 49.667,359.685 49.815,359.504 49.996 C 359.323 50.177,358.984 50.373,358.750 50.432 C 358.516 50.490,358.248 50.682,358.154 50.857 C 358.060 51.033,357.912 51.132,357.825 51.078 C 357.738 51.024,357.667 51.056,357.667 51.149 C 357.667 51.242,357.404 51.442,357.083 51.595 C 356.762 51.747,356.500 51.975,356.500 52.102 C 356.500 52.229,356.390 52.333,356.255 52.333 C 355.950 52.333,354.000 54.269,354.000 54.572 C 354.000 54.695,353.813 54.918,353.583 55.068 C 353.354 55.218,353.167 55.420,353.167 55.517 C 353.167 55.613,352.942 55.917,352.667 56.192 C 352.392 56.467,352.167 56.799,352.167 56.929 C 352.167 57.060,352.094 57.167,352.005 57.167 C 351.916 57.167,351.887 57.279,351.940 57.417 C 351.992 57.554,351.951 57.667,351.848 57.667 C 351.746 57.667,351.531 57.948,351.372 58.292 C 351.213 58.635,350.984 59.022,350.862 59.150 C 350.740 59.278,350.677 59.522,350.721 59.692 C 350.766 59.861,350.736 60.000,350.654 60.000 C 350.573 60.000,350.457 60.206,350.397 60.458 C 350.338 60.710,350.175 61.048,350.035 61.208 C 349.825 61.450,349.822 61.500,350.016 61.503 C 350.197 61.505,350.203 61.535,350.039 61.639 C 349.811 61.784,349.333 64.011,349.333 64.931 C 349.333 65.244,349.258 65.500,349.167 65.500 C 349.063 65.500,349.000 66.444,349.000 68.000 C 349.000 69.375,349.058 70.500,349.130 70.500 C 349.201 70.500,349.354 71.191,349.469 72.035 C 349.584 72.880,349.732 73.611,349.797 73.660 C 349.863 73.710,349.935 74.047,349.957 74.409 C 349.981 74.788,350.105 75.129,350.249 75.209 C 350.387 75.287,350.500 75.528,350.500 75.746 C 350.500 75.964,350.612 76.255,350.749 76.391 C 350.937 76.580,350.947 76.660,350.790 76.723 C 350.657 76.777,350.678 76.812,350.848 76.820 C 351.015 76.828,351.227 77.171,351.424 77.750 C 351.595 78.254,351.819 78.667,351.920 78.667 C 352.021 78.667,352.210 78.935,352.339 79.264 C 352.468 79.592,352.707 79.932,352.870 80.020 C 353.033 80.107,353.167 80.248,353.167 80.332 C 353.167 80.542,356.403 83.761,356.747 83.892 C 356.898 83.950,356.974 84.074,356.916 84.167 C 356.858 84.262,357.032 84.381,357.312 84.437 C 357.587 84.492,357.852 84.641,357.901 84.769 C 357.950 84.896,358.096 85.000,358.227 85.000 C 358.358 85.000,358.509 85.117,358.564 85.261 C 358.619 85.404,358.740 85.474,358.833 85.417 C 358.926 85.359,359.047 85.429,359.102 85.573 C 359.157 85.716,359.288 85.835,359.393 85.836 C 359.498 85.838,359.768 86.034,359.994 86.272 C 360.220 86.509,360.431 86.623,360.464 86.523 C 360.498 86.424,360.695 86.527,360.904 86.752 C 361.112 86.977,361.426 87.187,361.600 87.219 C 362.031 87.297,363.222 87.878,363.372 88.083 C 363.454 88.194,363.497 88.194,363.500 88.083 C 363.503 87.972,363.546 87.972,363.628 88.083 C 363.788 88.301,364.942 88.833,365.256 88.833 C 365.390 88.833,365.500 88.898,365.500 88.977 C 365.500 89.056,365.912 89.251,366.416 89.409 C 366.920 89.568,367.376 89.767,367.428 89.851 C 367.480 89.936,367.593 89.962,367.679 89.909 C 367.765 89.856,367.946 89.923,368.081 90.057 C 368.216 90.192,368.630 90.354,369.000 90.417 C 369.370 90.479,369.766 90.623,369.880 90.737 C 370.070 90.927,372.189 91.667,372.543 91.667 C 372.628 91.667,372.891 91.819,373.127 92.005 C 373.461 92.267,373.588 92.295,373.693 92.130 C 373.796 91.968,373.829 91.966,373.831 92.122 C 373.832 92.235,374.040 92.376,374.292 92.436 C 374.544 92.496,374.878 92.656,375.035 92.793 C 375.192 92.929,375.431 92.998,375.566 92.946 C 375.701 92.894,375.835 92.904,375.864 92.968 C 375.942 93.140,377.217 93.743,377.458 93.722 C 377.573 93.712,377.667 93.770,377.667 93.852 C 377.667 93.933,377.723 93.986,377.792 93.970 C 377.986 93.923,379.207 94.551,379.520 94.858 C 379.673 95.009,380.030 95.183,380.312 95.245 C 380.594 95.307,380.808 95.446,380.788 95.554 C 380.767 95.662,380.853 95.728,380.979 95.701 C 381.106 95.675,381.316 95.806,381.447 95.993 C 381.578 96.180,381.759 96.333,381.849 96.333 C 382.127 96.333,383.496 97.843,383.602 98.266 C 383.658 98.486,383.790 98.667,383.897 98.667 C 384.103 98.667,384.500 100.122,384.500 100.880 C 384.500 101.129,384.556 101.333,384.625 101.333 C 384.694 101.333,384.750 101.558,384.750 101.833 C 384.750 102.108,384.688 102.333,384.612 102.333 C 384.536 102.333,384.489 102.577,384.508 102.875 C 384.545 103.473,384.217 104.500,383.989 104.500 C 383.909 104.500,383.887 104.612,383.940 104.750 C 383.992 104.888,383.948 105.000,383.841 105.000 C 383.734 105.000,383.684 105.059,383.728 105.132 C 383.773 105.204,383.590 105.410,383.322 105.590 C 383.054 105.770,382.862 105.992,382.895 106.083 C 382.998 106.363,382.489 106.818,382.193 106.712 C 382.041 106.658,381.970 106.673,382.036 106.746 C 382.166 106.890,381.476 107.500,381.182 107.500 C 381.082 107.500,381.000 107.602,381.000 107.727 C 381.000 107.857,380.605 108.079,380.083 108.243 C 379.579 108.401,379.167 108.607,379.167 108.700 C 379.167 108.793,379.063 108.829,378.937 108.781 C 378.811 108.732,378.638 108.762,378.554 108.846 C 377.994 109.406,369.995 109.365,369.647 108.801 C 369.585 108.702,369.340 108.658,369.101 108.704 C 368.862 108.750,368.667 108.731,368.667 108.663 C 368.667 108.595,368.517 108.500,368.333 108.452 C 368.143 108.402,367.999 108.447,367.997 108.557 C 367.996 108.691,367.955 108.687,367.863 108.543 C 367.791 108.429,367.370 108.268,366.928 108.185 C 366.486 108.103,366.067 107.942,365.997 107.828 C 365.926 107.714,365.636 107.612,365.351 107.602 C 365.067 107.592,364.834 107.535,364.834 107.476 C 364.834 107.418,364.651 107.324,364.428 107.268 C 364.206 107.212,363.924 107.069,363.803 106.949 C 363.682 106.830,363.250 106.600,362.843 106.438 C 362.437 106.277,362.024 106.038,361.927 105.909 C 361.830 105.779,361.566 105.646,361.342 105.613 C 361.118 105.580,360.905 105.466,360.870 105.360 C 360.835 105.254,360.699 105.167,360.569 105.167 C 360.440 105.167,360.333 105.089,360.333 104.995 C 360.333 104.900,360.202 104.773,360.042 104.712 C 359.881 104.652,359.662 104.523,359.555 104.426 C 359.448 104.329,359.163 104.100,358.922 103.917 C 358.682 103.733,358.261 103.377,357.987 103.125 C 357.310 102.502,356.938 102.548,356.206 103.343 C 355.863 103.715,355.342 104.251,355.046 104.533 C 354.750 104.815,354.542 105.099,354.582 105.164 C 354.645 105.266,352.064 107.846,347.936 111.808 C 347.330 112.391,346.836 112.916,346.839 112.975 C 346.850 113.201,347.273 113.611,347.875 113.979 C 348.219 114.189,348.500 114.434,348.500 114.523 C 348.500 114.613,348.576 114.640,348.668 114.583 C 348.760 114.526,348.882 114.600,348.939 114.749 C 348.996 114.898,349.134 114.984,349.245 114.942 C 349.356 114.899,349.580 115.091,349.744 115.367 C 349.970 115.751,350.075 115.817,350.184 115.644 C 350.294 115.471,350.329 115.468,350.331 115.629 C 350.332 115.746,350.521 115.913,350.750 116.000 C 350.979 116.087,351.167 116.233,351.167 116.324 C 351.167 116.415,351.282 116.445,351.423 116.391 C 351.587 116.328,351.663 116.376,351.632 116.521 C 351.605 116.647,351.696 116.750,351.833 116.750 C 351.971 116.750,352.143 116.844,352.217 116.958 C 352.290 117.073,352.459 117.167,352.592 117.167 C 352.725 117.167,352.833 117.273,352.833 117.403 C 352.833 117.534,353.042 117.686,353.297 117.742 C 353.552 117.798,353.971 118.024,354.228 118.245 C 354.484 118.465,354.800 118.605,354.930 118.555 C 355.060 118.505,355.167 118.547,355.167 118.649 C 355.167 118.750,355.271 118.833,355.399 118.833 C 355.527 118.833,355.672 118.940,355.722 119.070 C 355.778 119.215,355.946 119.273,356.156 119.218 C 356.412 119.151,356.501 119.207,356.503 119.439 C 356.505 119.677,356.539 119.697,356.648 119.524 C 356.732 119.391,356.833 119.365,356.892 119.459 C 356.946 119.548,357.331 119.716,357.746 119.832 C 358.161 119.948,358.500 120.090,358.501 120.147 C 358.501 120.203,358.763 120.263,359.082 120.280 C 359.626 120.307,360.954 120.906,361.190 121.230 C 361.248 121.310,361.374 121.328,361.470 121.269 C 361.565 121.210,361.694 121.243,361.755 121.342 C 361.817 121.441,361.970 121.483,362.095 121.435 C 362.220 121.387,362.371 121.426,362.430 121.522 C 362.489 121.617,362.679 121.659,362.852 121.613 C 363.025 121.568,363.167 121.599,363.167 121.682 C 363.167 121.765,363.350 121.833,363.573 121.833 C 363.797 121.833,364.030 121.914,364.092 122.014 C 364.153 122.113,364.382 122.149,364.602 122.094 C 364.848 122.032,365.000 122.066,365.000 122.184 C 365.000 122.307,365.177 122.340,365.494 122.276 C 365.765 122.222,366.026 122.241,366.074 122.319 C 366.466 122.952,380.152 123.135,380.897 122.516 C 381.009 122.423,381.266 122.390,381.467 122.443 C 381.697 122.503,381.833 122.463,381.833 122.335 C 381.833 122.200,381.975 122.166,382.250 122.235 C 382.511 122.301,382.667 122.269,382.667 122.151 C 382.667 122.037,382.861 121.991,383.158 122.034 C 383.428 122.074,383.617 122.054,383.578 121.991 C 383.538 121.927,383.823 121.818,384.211 121.747 C 385.364 121.539,385.408 121.525,385.466 121.352 C 385.497 121.260,385.629 121.227,385.761 121.277 C 385.892 121.328,386.000 121.295,386.000 121.204 C 386.000 121.114,386.337 120.955,386.750 120.851 C 387.162 120.747,387.500 120.584,387.500 120.488 C 387.500 120.392,387.575 120.360,387.667 120.417 C 387.758 120.473,387.833 120.432,387.833 120.325 C 387.833 120.218,387.946 120.174,388.083 120.227 C 388.221 120.280,388.333 120.258,388.333 120.180 C 388.333 120.101,388.504 119.993,388.712 119.941 C 388.920 119.889,389.258 119.690,389.464 119.498 C 389.669 119.306,389.906 119.192,389.990 119.244 C 390.074 119.296,390.188 119.195,390.244 119.020 C 390.299 118.846,390.473 118.659,390.631 118.606 C 391.041 118.468,391.562 118.117,391.717 117.875 C 391.790 117.760,391.913 117.667,391.990 117.667 C 392.176 117.667,395.401 114.382,395.471 114.121 C 395.590 113.680,396.051 113.314,396.207 113.538 C 396.303 113.675,396.318 113.617,396.249 113.374 C 396.177 113.116,396.225 112.967,396.404 112.898 C 396.548 112.843,396.631 112.744,396.590 112.678 C 396.549 112.611,396.729 112.324,396.990 112.038 C 397.250 111.753,397.422 111.477,397.371 111.426 C 397.320 111.375,397.350 111.333,397.439 111.333 C 397.527 111.333,397.695 111.071,397.811 110.750 C 397.927 110.429,398.098 110.167,398.191 110.167 C 398.285 110.167,398.330 110.074,398.292 109.960 C 398.254 109.846,398.323 109.653,398.445 109.532 C 398.567 109.410,398.709 109.109,398.761 108.863 C 398.813 108.618,398.967 108.210,399.105 107.957 C 399.242 107.704,399.368 107.179,399.385 106.790 C 399.403 106.401,399.471 106.042,399.538 105.992 C 399.971 105.668,399.962 97.682,399.529 97.538 C 399.454 97.512,399.425 97.269,399.465 96.996 C 399.505 96.723,399.465 96.500,399.375 96.500 C 399.286 96.500,399.249 96.313,399.293 96.083 C 399.339 95.840,399.295 95.667,399.186 95.667 C 399.084 95.667,399.000 95.587,399.000 95.490 C 399.000 95.393,399.074 95.359,399.165 95.415 C 399.259 95.474,399.287 95.407,399.231 95.260 C 399.176 95.118,399.074 95.037,399.005 95.081 C 398.935 95.124,398.781 94.705,398.663 94.149 C 398.545 93.594,398.361 93.051,398.254 92.944 C 398.147 92.837,397.920 92.386,397.751 91.942 C 397.581 91.498,397.343 91.096,397.221 91.049 C 397.100 91.003,397.000 90.856,397.000 90.725 C 397.000 90.593,396.808 90.293,396.573 90.058 C 396.339 89.823,396.188 89.590,396.239 89.539 C 396.290 89.488,396.182 89.342,395.999 89.214 C 395.816 89.086,395.667 88.905,395.667 88.811 C 395.667 88.542,393.103 86.046,392.898 86.116 C 392.796 86.151,392.588 85.989,392.436 85.756 C 392.284 85.524,392.048 85.333,391.913 85.333 C 391.777 85.333,391.667 85.222,391.667 85.087 C 391.667 84.951,391.479 84.793,391.250 84.735 C 391.021 84.678,390.833 84.564,390.833 84.482 C 390.833 84.400,390.721 84.333,390.583 84.333 C 390.446 84.333,390.333 84.262,390.333 84.174 C 390.333 84.087,390.071 83.891,389.750 83.739 C 389.429 83.587,389.167 83.391,389.167 83.305 C 389.167 83.218,389.093 83.193,389.002 83.249 C 388.912 83.305,388.677 83.200,388.480 83.017 C 388.283 82.833,387.906 82.636,387.643 82.578 C 387.379 82.520,387.206 82.405,387.257 82.322 C 387.309 82.239,387.234 82.215,387.092 82.270 C 386.949 82.324,386.833 82.282,386.833 82.175 C 386.833 82.068,386.758 82.027,386.667 82.083 C 386.575 82.140,386.500 82.107,386.500 82.010 C 386.500 81.913,386.387 81.833,386.250 81.833 C 386.113 81.833,386.000 81.774,386.000 81.702 C 386.000 81.630,385.838 81.559,385.640 81.544 C 385.442 81.529,385.236 81.449,385.182 81.367 C 385.005 81.097,384.313 80.806,384.070 80.899 C 383.940 80.949,383.833 80.917,383.833 80.828 C 383.833 80.739,383.716 80.667,383.573 80.667 C 383.431 80.667,383.357 80.597,383.409 80.512 C 383.535 80.309,382.956 80.130,382.607 80.264 C 382.456 80.322,382.333 80.289,382.333 80.191 C 382.333 80.093,382.033 79.932,381.667 79.833 C 381.300 79.735,381.000 79.577,381.000 79.482 C 381.000 79.387,380.853 79.358,380.667 79.417 C 380.467 79.480,380.333 79.447,380.333 79.333 C 380.333 79.220,380.200 79.187,380.000 79.250 C 379.798 79.314,379.667 79.280,379.667 79.164 C 379.667 79.059,379.574 79.003,379.460 79.041 C 379.346 79.079,379.153 79.010,379.031 78.888 C 378.909 78.766,378.665 78.667,378.488 78.667 C 378.311 78.667,378.167 78.584,378.167 78.482 C 378.167 78.381,378.049 78.343,377.904 78.398 C 377.760 78.454,377.533 78.390,377.399 78.256 C 377.265 78.122,376.877 77.963,376.536 77.902 C 376.196 77.841,375.804 77.695,375.667 77.578 C 375.529 77.461,375.021 77.249,374.538 77.107 C 374.054 76.965,373.539 76.729,373.392 76.583 C 373.246 76.436,373.004 76.341,372.855 76.371 C 372.705 76.402,372.441 76.295,372.266 76.136 C 372.092 75.976,371.896 75.878,371.830 75.919 C 371.764 75.960,371.554 75.858,371.364 75.693 C 371.174 75.529,370.602 75.252,370.093 75.079 C 369.583 74.906,369.167 74.673,369.167 74.562 C 369.167 74.451,368.942 74.310,368.667 74.250 C 368.381 74.187,368.167 74.033,368.167 73.890 C 368.167 73.752,368.074 73.670,367.960 73.708 C 367.846 73.746,367.616 73.602,367.448 73.388 C 367.280 73.175,367.081 73.000,367.006 73.000 C 366.800 73.000,365.744 71.970,365.790 71.814 C 365.811 71.739,365.705 71.726,365.554 71.784 C 365.355 71.861,365.316 71.829,365.415 71.670 C 365.497 71.536,365.459 71.377,365.317 71.266 C 365.043 71.051,364.500 69.930,364.500 69.578 C 364.500 69.443,364.444 69.333,364.375 69.334 C 364.306 69.334,364.287 68.628,364.333 67.766 C 364.379 66.903,364.360 66.233,364.292 66.275 C 364.223 66.318,364.167 66.274,364.167 66.177 C 364.167 66.079,364.250 66.000,364.353 66.000 C 364.457 66.000,364.500 65.853,364.452 65.667 C 364.404 65.483,364.423 65.333,364.495 65.333 C 364.567 65.333,364.725 65.090,364.845 64.792 C 364.965 64.494,365.162 64.190,365.282 64.117 C 365.402 64.043,365.500 63.913,365.500 63.826 C 365.500 63.600,367.097 62.000,367.322 62.000 C 367.426 62.000,367.553 61.888,367.606 61.751 C 367.659 61.614,367.768 61.543,367.849 61.593 C 367.930 61.643,368.161 61.530,368.363 61.342 C 368.564 61.154,368.860 61.000,369.020 61.000 C 369.179 61.000,369.421 60.888,369.558 60.751 C 369.724 60.585,369.827 60.565,369.869 60.690 C 369.911 60.816,370.014 60.795,370.181 60.629 C 370.522 60.287,372.310 60.000,374.097 60.000 C 376.132 59.999,379.241 60.345,378.965 60.542 C 378.826 60.640,378.972 60.663,379.375 60.608 C 379.753 60.555,380.000 60.590,380.000 60.695 C 380.000 60.791,380.113 60.826,380.250 60.773 C 380.387 60.720,380.500 60.743,380.500 60.824 C 380.500 60.905,380.795 61.021,381.156 61.082 C 381.517 61.142,381.966 61.326,382.155 61.490 C 382.344 61.653,382.855 61.922,383.291 62.086 C 383.727 62.251,384.143 62.486,384.217 62.609 C 384.290 62.732,384.459 62.833,384.592 62.833 C 384.725 62.833,384.833 62.908,384.833 63.000 C 384.833 63.092,384.950 63.167,385.093 63.167 C 385.236 63.167,385.312 63.233,385.261 63.315 C 385.211 63.397,385.413 63.582,385.710 63.727 C 386.007 63.873,386.427 64.181,386.642 64.412 C 386.858 64.644,387.139 64.833,387.266 64.833 C 387.393 64.833,387.585 64.974,387.693 65.147 C 387.933 65.531,387.823 65.629,393.772 59.708 C 397.916 55.583,398.340 55.058,397.667 54.882 C 397.359 54.801,397.257 54.626,397.318 54.279 C 397.331 54.204,397.273 54.184,397.189 54.236 C 397.105 54.288,396.910 54.138,396.756 53.902 C 396.601 53.667,396.382 53.509,396.269 53.553 C 396.156 53.596,395.920 53.419,395.745 53.159 C 395.570 52.899,395.312 52.647,395.172 52.598 C 394.841 52.483,394.390 52.176,393.869 51.708 C 393.639 51.502,393.350 51.333,393.226 51.333 C 393.102 51.333,393.000 51.261,393.000 51.172 C 393.000 51.083,392.887 51.054,392.750 51.106 C 392.613 51.159,392.500 51.118,392.500 51.015 C 392.500 50.912,392.219 50.698,391.875 50.539 C 391.531 50.380,391.161 50.167,391.053 50.065 C 390.945 49.963,390.402 49.738,389.846 49.565 C 389.205 49.365,388.835 49.159,388.832 49.000 C 388.829 48.778,388.810 48.778,388.667 49.000 C 388.541 49.195,388.505 49.200,388.503 49.022 C 388.501 48.877,388.379 48.826,388.167 48.882 C 387.983 48.930,387.833 48.915,387.833 48.849 C 387.833 48.625,386.256 48.043,384.833 47.742 C 384.054 47.577,383.368 47.369,383.308 47.280 C 383.249 47.191,382.930 47.161,382.600 47.215 C 382.242 47.273,382.000 47.244,382.000 47.143 C 382.000 47.050,381.755 46.996,381.456 47.021 C 381.157 47.047,380.831 47.018,380.733 46.957 C 380.191 46.623,373.030 46.402,369.875 46.623 M278.262 67.208 C 278.313 77.773,278.348 87.673,278.341 89.208 C 278.332 91.102,278.385 92.000,278.507 92.000 C 278.629 92.000,278.653 92.390,278.581 93.208 C 278.513 93.986,278.532 94.336,278.633 94.191 C 278.742 94.036,278.828 94.362,278.910 95.233 C 278.975 95.930,279.103 96.500,279.194 96.500 C 279.292 96.500,279.315 96.706,279.250 97.000 C 279.178 97.329,279.206 97.500,279.331 97.500 C 279.444 97.500,279.481 97.631,279.421 97.819 C 279.365 97.995,279.391 98.183,279.479 98.237 C 279.566 98.291,279.688 98.634,279.750 99.000 C 279.812 99.366,279.934 99.709,280.021 99.763 C 280.109 99.817,280.135 100.005,280.079 100.181 C 280.018 100.372,280.056 100.500,280.173 100.500 C 280.281 100.500,280.327 100.610,280.275 100.745 C 280.223 100.879,280.258 101.037,280.352 101.095 C 280.446 101.153,280.482 101.305,280.433 101.434 C 280.384 101.562,280.408 101.667,280.486 101.667 C 280.564 101.667,280.683 101.835,280.750 102.042 C 280.916 102.552,280.952 102.653,281.000 102.750 C 281.023 102.796,281.052 102.890,281.065 102.958 C 281.078 103.027,281.148 103.177,281.221 103.292 C 281.293 103.406,281.307 103.575,281.250 103.667 C 281.193 103.758,281.231 103.833,281.333 103.833 C 281.436 103.833,281.477 103.902,281.425 103.986 C 281.374 104.070,281.414 104.166,281.514 104.199 C 281.615 104.233,281.709 104.464,281.724 104.713 C 281.738 104.963,281.836 105.166,281.941 105.167 C 282.168 105.167,282.373 105.634,282.241 105.848 C 282.189 105.932,282.217 106.000,282.303 106.000 C 282.389 106.000,282.553 106.225,282.667 106.500 C 282.781 106.775,282.937 107.000,283.015 107.000 C 283.093 107.000,283.113 107.112,283.060 107.250 C 283.008 107.388,283.052 107.500,283.159 107.500 C 283.266 107.500,283.312 107.567,283.261 107.649 C 283.210 107.731,283.281 107.841,283.418 107.894 C 283.555 107.947,283.667 108.104,283.667 108.245 C 283.667 108.385,283.746 108.500,283.843 108.500 C 283.940 108.500,283.973 108.575,283.917 108.667 C 283.860 108.758,283.890 108.833,283.982 108.833 C 284.075 108.833,284.284 109.115,284.447 109.458 C 284.610 109.802,285.007 110.364,285.330 110.707 C 285.653 111.051,285.926 111.407,285.938 111.499 C 285.949 111.591,285.969 111.798,285.982 111.958 C 285.998 112.165,286.043 112.190,286.135 112.045 C 286.259 111.850,286.833 112.316,286.833 112.613 C 286.833 112.746,286.998 112.929,288.462 114.426 C 289.095 115.072,289.691 115.575,289.788 115.543 C 289.884 115.511,290.130 115.755,290.335 116.086 C 290.539 116.416,290.797 116.652,290.907 116.610 C 291.017 116.568,291.196 116.676,291.305 116.850 C 291.414 117.024,291.607 117.167,291.734 117.167 C 291.860 117.167,292.008 117.279,292.060 117.417 C 292.113 117.554,292.260 117.667,292.387 117.667 C 292.514 117.667,292.806 117.841,293.035 118.053 C 293.264 118.266,293.707 118.540,294.018 118.664 C 294.329 118.787,294.733 119.011,294.917 119.163 C 295.100 119.314,295.587 119.581,296.000 119.756 C 296.412 119.931,296.799 120.143,296.858 120.228 C 296.918 120.313,297.086 120.336,297.233 120.280 C 297.380 120.223,297.500 120.231,297.500 120.298 C 297.500 120.457,298.283 120.798,298.960 120.934 C 299.257 120.993,299.500 121.112,299.500 121.199 C 299.500 121.285,299.650 121.308,299.833 121.250 C 300.030 121.188,300.167 121.220,300.167 121.329 C 300.167 121.431,300.260 121.499,300.375 121.481 C 300.490 121.462,300.794 121.534,301.053 121.640 C 301.311 121.746,301.662 121.833,301.834 121.833 C 302.006 121.833,302.195 121.911,302.254 122.007 C 302.313 122.102,302.505 122.135,302.681 122.079 C 302.856 122.023,303.000 122.051,303.000 122.140 C 303.000 122.513,307.670 123.000,311.250 123.000 C 314.756 123.000,319.667 122.495,319.667 122.134 C 319.667 122.049,319.745 122.029,319.841 122.088 C 319.936 122.147,320.105 122.122,320.216 122.033 C 320.326 121.944,320.735 121.818,321.125 121.754 C 321.515 121.690,321.833 121.579,321.833 121.508 C 321.833 121.438,322.009 121.413,322.224 121.454 C 322.441 121.496,322.726 121.417,322.866 121.276 C 323.005 121.138,323.396 120.972,323.734 120.909 C 324.073 120.845,324.450 120.693,324.572 120.571 C 324.694 120.449,324.840 120.396,324.897 120.452 C 324.954 120.509,325.000 120.467,325.000 120.358 C 325.000 120.230,325.148 120.197,325.417 120.265 C 325.651 120.324,325.833 120.297,325.833 120.204 C 325.833 120.113,326.260 119.865,326.783 119.653 C 327.305 119.442,327.867 119.133,328.033 118.967 C 328.198 118.802,328.448 118.667,328.589 118.667 C 328.729 118.667,328.887 118.554,328.940 118.417 C 328.992 118.279,329.140 118.167,329.268 118.167 C 329.396 118.167,329.500 118.092,329.500 118.000 C 329.500 117.908,329.615 117.833,329.755 117.833 C 329.896 117.833,330.052 117.726,330.102 117.594 C 330.153 117.462,330.291 117.391,330.409 117.437 C 330.527 117.482,330.666 117.408,330.718 117.272 C 330.771 117.136,331.080 116.899,331.405 116.744 C 331.731 116.590,331.956 116.397,331.905 116.315 C 331.855 116.233,331.894 116.167,331.993 116.167 C 332.091 116.167,332.815 115.510,333.601 114.708 C 334.387 113.906,334.980 113.362,334.919 113.500 C 334.858 113.638,334.983 113.526,335.196 113.251 C 335.409 112.977,335.715 112.621,335.875 112.460 C 336.035 112.299,336.133 112.167,336.091 112.167 C 336.050 112.167,336.200 111.968,336.425 111.726 C 336.649 111.483,336.833 111.179,336.833 111.049 C 336.833 110.920,336.895 110.852,336.969 110.898 C 337.044 110.944,337.236 110.761,337.396 110.491 C 337.555 110.221,337.764 110.000,337.861 110.000 C 337.957 110.000,337.992 109.888,337.940 109.750 C 337.887 109.612,337.920 109.500,338.014 109.500 C 338.107 109.500,338.290 109.247,338.419 108.937 C 338.548 108.627,338.786 108.323,338.947 108.261 C 339.198 108.165,339.205 108.126,338.995 107.994 C 338.814 107.879,338.807 107.838,338.968 107.836 C 339.088 107.834,339.145 107.766,339.094 107.684 C 339.043 107.602,339.114 107.492,339.251 107.439 C 339.388 107.387,339.500 107.240,339.500 107.114 C 339.500 106.988,339.643 106.720,339.817 106.519 C 339.991 106.318,340.233 105.819,340.353 105.410 C 340.474 105.001,340.629 104.667,340.698 104.667 C 340.767 104.667,340.775 104.542,340.716 104.389 C 340.652 104.222,340.677 104.154,340.780 104.217 C 340.879 104.278,341.078 103.875,341.258 103.244 C 341.427 102.652,341.634 102.167,341.718 102.167 C 341.801 102.167,341.822 102.045,341.765 101.895 C 341.703 101.734,341.780 101.534,341.955 101.401 C 342.117 101.278,342.161 101.175,342.052 101.172 C 341.908 101.168,341.920 101.040,342.095 100.708 C 342.228 100.456,342.383 99.969,342.440 99.625 C 342.496 99.281,342.599 99.000,342.669 99.000 C 342.883 99.000,342.976 98.354,342.774 98.271 C 342.634 98.214,342.635 98.190,342.778 98.180 C 342.894 98.172,343.058 97.563,343.184 96.676 C 343.300 95.856,343.451 95.219,343.519 95.262 C 343.587 95.304,343.626 94.962,343.605 94.503 C 343.584 94.043,343.633 93.667,343.715 93.667 C 343.796 93.667,343.838 93.217,343.806 92.666 C 343.775 92.116,343.806 91.666,343.875 91.666 C 343.944 91.667,344.000 81.842,344.000 69.833 L 344.000 48.000 336.589 48.000 L 329.178 48.000 329.123 70.292 C 329.067 92.774,329.032 94.147,328.472 95.276 C 328.374 95.473,328.345 95.717,328.407 95.817 C 328.469 95.918,328.449 96.000,328.362 96.000 C 328.275 96.000,328.153 96.281,328.092 96.625 C 327.933 97.510,327.621 98.377,327.362 98.650 C 327.240 98.778,327.177 99.022,327.221 99.192 C 327.266 99.361,327.242 99.500,327.169 99.500 C 327.096 99.500,326.988 99.691,326.930 99.923 C 326.871 100.156,326.759 100.307,326.679 100.258 C 326.600 100.209,326.421 100.456,326.280 100.806 C 326.031 101.429,325.736 101.837,324.773 102.894 C 324.511 103.181,324.231 103.587,324.151 103.795 C 324.071 104.003,323.836 104.239,323.628 104.320 C 323.182 104.494,322.500 105.111,322.500 105.340 C 322.500 105.428,322.385 105.500,322.245 105.500 C 322.104 105.500,321.945 105.617,321.890 105.760 C 321.835 105.902,321.694 105.982,321.576 105.937 C 321.458 105.891,321.319 105.963,321.268 106.095 C 321.218 106.228,321.118 106.319,321.046 106.298 C 320.975 106.277,320.401 106.550,319.770 106.906 C 319.140 107.262,318.399 107.570,318.124 107.592 C 317.850 107.614,317.571 107.718,317.505 107.825 C 317.379 108.029,315.135 108.484,314.208 108.494 C 313.910 108.497,313.667 108.556,313.667 108.625 C 313.668 109.066,305.114 108.288,304.826 107.821 C 304.759 107.713,304.620 107.676,304.517 107.739 C 304.415 107.803,304.213 107.737,304.070 107.594 C 303.927 107.451,303.665 107.333,303.488 107.333 C 303.311 107.333,303.167 107.254,303.167 107.157 C 303.167 107.060,303.098 107.023,303.013 107.075 C 302.929 107.127,302.742 107.052,302.598 106.908 C 302.454 106.763,302.260 106.692,302.168 106.749 C 302.076 106.806,302.000 106.772,302.000 106.673 C 302.000 106.574,301.794 106.402,301.542 106.291 C 301.290 106.179,300.985 105.956,300.866 105.794 C 300.746 105.632,300.540 105.500,300.409 105.500 C 300.277 105.500,300.080 105.357,299.972 105.183 C 299.863 105.009,299.694 104.895,299.595 104.930 C 299.497 104.965,299.210 104.714,298.957 104.372 C 298.705 104.030,298.281 103.605,298.016 103.427 C 297.751 103.249,297.570 103.011,297.614 102.898 C 297.657 102.785,297.535 102.608,297.342 102.504 C 297.149 102.401,297.031 102.251,297.080 102.172 C 297.130 102.092,296.982 101.879,296.752 101.698 C 296.522 101.517,296.333 101.292,296.333 101.198 C 296.333 101.104,296.261 101.003,296.171 100.972 C 296.082 100.942,295.984 100.744,295.952 100.534 C 295.920 100.323,295.786 100.023,295.655 99.867 C 295.523 99.711,295.268 99.246,295.088 98.833 C 294.907 98.421,294.716 98.046,294.662 98.000 C 294.534 97.890,293.833 95.436,293.833 95.098 C 293.833 94.952,293.767 94.833,293.687 94.833 C 293.162 94.833,293.101 92.477,293.045 70.208 L 292.990 48.000 285.580 48.000 L 278.171 48.000 278.262 67.208 M0.173 86.167 L 0.184 123.000 7.425 123.000 L 14.667 123.000 14.667 107.077 C 14.667 91.207,14.668 91.156,15.000 91.333 C 15.183 91.431,15.333 91.611,15.333 91.732 C 15.333 91.853,15.782 92.357,16.330 92.851 C 16.878 93.346,17.328 93.825,17.329 93.917 C 17.330 94.008,17.726 94.458,18.210 94.917 C 18.694 95.375,19.191 95.949,19.314 96.192 C 19.438 96.435,19.867 96.880,20.269 97.181 C 20.671 97.482,21.000 97.830,21.000 97.954 C 21.000 98.191,22.252 99.500,22.479 99.500 C 22.551 99.500,22.714 99.706,22.840 99.958 C 22.967 100.210,23.467 100.806,23.952 101.281 C 24.437 101.756,24.833 102.203,24.833 102.274 C 24.833 102.345,25.266 102.819,25.794 103.327 C 26.323 103.835,26.852 104.438,26.971 104.667 C 27.090 104.896,27.520 105.336,27.927 105.644 C 28.334 105.953,28.667 106.291,28.667 106.395 C 28.667 106.499,29.004 106.946,29.417 107.389 C 29.829 107.832,30.167 108.139,30.167 108.072 C 30.167 108.004,30.314 108.081,30.493 108.244 C 30.673 108.407,30.804 108.592,30.785 108.656 C 30.737 108.816,31.787 110.000,31.977 110.000 C 32.130 110.000,32.405 110.486,32.366 110.689 C 32.355 110.747,32.475 110.784,32.632 110.772 C 32.807 110.758,32.908 110.861,32.894 111.040 C 32.881 111.199,32.919 111.301,32.977 111.266 C 33.113 111.184,33.507 111.604,33.397 111.714 C 33.351 111.760,33.562 111.972,33.865 112.187 C 34.465 112.610,34.986 113.166,34.994 113.393 C 35.001 113.569,35.833 114.572,35.833 114.404 C 35.833 114.337,35.982 114.416,36.163 114.580 C 36.344 114.744,36.464 114.924,36.429 114.981 C 36.394 115.037,36.620 115.342,36.933 115.659 C 37.245 115.975,37.500 116.294,37.500 116.367 C 37.500 116.440,37.615 116.500,37.755 116.500 C 37.896 116.500,38.065 116.640,38.130 116.812 C 38.288 117.222,39.368 118.406,39.906 118.758 C 40.139 118.911,40.288 119.106,40.235 119.190 C 40.183 119.275,40.559 119.737,41.070 120.217 C 41.582 120.696,42.000 121.155,42.000 121.236 C 42.000 121.317,42.379 121.747,42.843 122.192 L 43.686 123.000 60.385 122.997 C 69.569 122.996,77.158 122.940,77.250 122.872 C 77.497 122.691,77.833 122.042,77.833 121.747 C 77.833 121.605,77.951 121.444,78.096 121.389 C 78.276 121.320,78.327 121.165,78.259 120.894 C 78.201 120.662,78.234 120.500,78.340 120.500 C 78.439 120.500,78.473 120.425,78.417 120.333 C 78.360 120.242,78.392 120.167,78.487 120.167 C 78.582 120.167,78.707 119.979,78.765 119.750 C 78.822 119.521,78.928 119.333,78.999 119.333 C 79.070 119.333,79.295 118.921,79.500 118.417 C 79.705 117.912,79.924 117.500,79.988 117.500 C 80.051 117.500,80.277 116.994,80.488 116.375 C 80.700 115.756,80.923 115.212,80.984 115.167 C 81.101 115.078,81.903 113.412,82.428 112.167 C 82.602 111.754,82.827 111.330,82.928 111.224 C 83.028 111.118,83.243 110.612,83.404 110.099 C 83.566 109.586,83.757 109.167,83.829 109.167 C 83.902 109.167,84.000 109.017,84.048 108.833 C 84.135 108.503,84.276 108.500,101.859 108.500 L 119.583 108.500 119.958 109.421 C 120.165 109.927,120.333 110.452,120.333 110.587 C 120.333 110.723,120.402 110.833,120.486 110.833 C 120.570 110.833,120.768 111.171,120.926 111.583 C 121.083 111.996,121.260 112.333,121.318 112.333 C 121.377 112.333,121.603 112.858,121.822 113.500 C 122.040 114.142,122.274 114.667,122.341 114.667 C 122.409 114.667,122.591 114.985,122.747 115.375 C 122.903 115.764,123.117 116.138,123.223 116.205 C 123.363 116.294,123.356 116.329,123.198 116.331 C 123.079 116.332,123.027 116.410,123.085 116.503 C 123.143 116.596,123.246 116.637,123.316 116.594 C 123.385 116.551,123.575 116.963,123.739 117.508 C 123.902 118.054,124.089 118.500,124.154 118.500 C 124.320 118.500,124.833 119.617,124.833 119.980 C 124.833 120.146,124.985 120.458,125.171 120.672 C 125.357 120.886,125.553 121.235,125.606 121.447 C 125.659 121.660,125.788 121.834,125.893 121.836 C 125.998 121.837,125.971 121.911,125.833 122.000 C 125.623 122.136,125.632 122.162,125.893 122.164 C 126.113 122.166,126.172 122.247,126.096 122.445 C 125.898 122.959,126.391 122.995,133.781 122.997 C 141.168 123.000,142.255 122.925,141.853 122.440 C 141.752 122.319,141.719 122.170,141.779 122.110 C 141.840 122.049,141.801 122.000,141.694 122.000 C 141.587 122.000,141.515 121.944,141.534 121.875 C 141.552 121.806,141.352 121.304,141.089 120.759 C 140.826 120.213,140.611 119.669,140.611 119.550 C 140.611 119.431,140.544 119.333,140.462 119.333 C 140.381 119.333,140.360 119.258,140.417 119.167 C 140.473 119.075,140.435 119.000,140.332 119.000 C 140.222 119.000,140.187 118.866,140.246 118.679 C 140.304 118.496,140.255 118.299,140.132 118.221 C 139.751 117.978,139.482 117.369,139.714 117.275 C 139.833 117.227,139.802 117.188,139.638 117.180 C 139.457 117.171,139.264 116.876,139.083 116.333 C 138.931 115.875,138.740 115.500,138.659 115.500 C 138.577 115.500,138.554 115.387,138.606 115.250 C 138.659 115.112,138.615 115.000,138.508 115.000 C 138.401 115.000,138.360 114.925,138.417 114.833 C 138.473 114.742,138.457 114.667,138.380 114.667 C 138.236 114.667,137.773 113.682,137.812 113.458 C 137.824 113.390,137.750 113.333,137.649 113.333 C 137.547 113.333,137.509 113.217,137.564 113.075 C 137.626 112.913,137.595 112.858,137.480 112.929 C 137.357 113.005,137.336 112.920,137.417 112.667 C 137.486 112.448,137.471 112.331,137.381 112.387 C 137.296 112.440,137.093 112.112,136.930 111.658 C 136.767 111.204,136.547 110.832,136.442 110.831 C 136.321 110.829,136.332 110.776,136.472 110.687 C 136.651 110.574,136.643 110.527,136.431 110.445 C 136.285 110.389,136.167 110.229,136.167 110.089 C 136.167 109.948,136.087 109.833,135.990 109.833 C 135.893 109.833,135.860 109.758,135.917 109.667 C 135.973 109.575,135.932 109.500,135.825 109.500 C 135.718 109.500,135.674 109.388,135.727 109.250 C 135.780 109.112,135.745 109.000,135.650 109.000 C 135.553 109.000,135.524 108.854,135.583 108.667 C 135.642 108.483,135.619 108.333,135.534 108.333 C 135.448 108.333,135.250 107.996,135.092 107.583 C 134.935 107.171,134.745 106.833,134.671 106.833 C 134.597 106.833,134.489 106.646,134.432 106.417 C 134.374 106.188,134.249 106.000,134.154 106.000 C 134.058 106.000,134.023 105.930,134.076 105.845 C 134.129 105.760,134.103 105.647,134.018 105.595 C 133.934 105.542,133.901 105.361,133.945 105.191 C 133.990 105.022,133.910 104.767,133.769 104.626 C 133.627 104.484,133.388 104.061,133.238 103.684 C 133.087 103.308,132.889 103.000,132.797 103.000 C 132.706 103.000,132.674 102.888,132.727 102.750 C 132.780 102.612,132.752 102.500,132.666 102.500 C 132.580 102.500,132.389 102.087,132.243 101.583 C 132.096 101.079,131.922 100.667,131.855 100.667 C 131.788 100.667,131.639 100.404,131.523 100.083 C 131.407 99.763,131.237 99.500,131.146 99.500 C 131.055 99.500,131.027 99.425,131.083 99.333 C 131.140 99.242,131.099 99.167,130.992 99.167 C 130.885 99.167,130.841 99.054,130.894 98.917 C 130.946 98.779,130.923 98.667,130.843 98.667 C 130.762 98.667,130.535 98.170,130.339 97.562 C 130.143 96.955,129.892 96.358,129.783 96.235 C 129.291 95.685,129.161 95.500,129.264 95.500 C 129.325 95.500,129.291 95.399,129.189 95.276 C 129.086 95.153,129.052 95.003,129.113 94.943 C 129.173 94.883,129.144 94.833,129.049 94.833 C 128.953 94.833,128.706 94.308,128.500 93.667 C 128.294 93.025,128.073 92.500,128.010 92.500 C 127.874 92.500,127.260 91.306,127.303 91.125 C 127.320 91.056,127.268 91.000,127.189 91.000 C 127.110 91.000,126.875 90.494,126.667 89.875 C 126.459 89.256,126.234 88.712,126.168 88.667 C 125.991 88.545,125.426 87.438,125.466 87.292 C 125.485 87.223,125.417 87.167,125.316 87.167 C 125.212 87.167,125.178 87.045,125.238 86.888 C 125.297 86.735,125.282 86.566,125.205 86.513 C 125.129 86.460,124.893 86.010,124.682 85.513 C 124.472 85.015,124.194 84.504,124.066 84.376 C 123.938 84.248,123.833 84.036,123.833 83.905 C 123.833 83.774,123.754 83.667,123.657 83.667 C 123.560 83.667,123.527 83.592,123.583 83.500 C 123.640 83.408,123.614 83.333,123.525 83.333 C 123.437 83.333,123.404 83.183,123.452 83.000 C 123.500 82.817,123.472 82.667,123.389 82.667 C 123.307 82.667,123.095 82.292,122.917 81.833 C 122.739 81.375,122.530 81.000,122.453 81.000 C 122.377 81.000,122.367 80.914,122.432 80.808 C 122.498 80.702,122.442 80.534,122.309 80.433 C 122.177 80.332,121.972 79.987,121.854 79.667 C 121.537 78.803,120.769 77.258,120.624 77.194 C 120.555 77.163,120.540 77.070,120.592 76.986 C 120.644 76.902,120.610 76.833,120.516 76.833 C 120.423 76.833,120.233 76.452,120.095 75.986 C 119.849 75.159,119.221 73.969,118.975 73.864 C 118.907 73.835,118.893 73.704,118.944 73.573 C 118.994 73.441,118.948 73.333,118.841 73.333 C 118.734 73.333,118.693 73.258,118.750 73.167 C 118.807 73.075,118.786 73.000,118.705 73.000 C 118.623 73.000,118.381 72.475,118.167 71.833 C 117.952 71.192,117.722 70.667,117.654 70.667 C 117.586 70.667,117.399 70.247,117.238 69.734 C 117.076 69.221,116.862 68.715,116.761 68.609 C 116.660 68.503,116.430 68.079,116.250 67.667 C 116.070 67.254,115.834 66.824,115.725 66.710 C 115.616 66.596,115.440 66.240,115.334 65.918 C 115.228 65.597,115.074 65.333,114.992 65.333 C 114.911 65.333,114.887 65.221,114.940 65.083 C 114.992 64.946,114.953 64.833,114.851 64.833 C 114.750 64.833,114.667 64.741,114.667 64.628 C 114.667 64.281,113.948 62.667,113.793 62.667 C 113.713 62.667,113.693 62.592,113.750 62.500 C 113.807 62.408,113.782 62.333,113.695 62.333 C 113.607 62.333,113.489 62.146,113.432 61.917 C 113.374 61.688,113.256 61.500,113.169 61.500 C 113.082 61.500,113.054 61.387,113.106 61.250 C 113.159 61.112,113.119 61.000,113.018 61.000 C 112.916 61.000,112.833 60.894,112.833 60.764 C 112.833 60.411,112.206 59.016,111.918 58.728 C 111.780 58.589,111.667 58.369,111.667 58.238 C 111.667 58.107,111.587 58.000,111.490 58.000 C 111.393 58.000,111.360 57.925,111.417 57.833 C 111.473 57.742,111.453 57.667,111.371 57.667 C 111.289 57.667,111.222 57.449,111.222 57.183 C 111.222 56.916,111.097 56.573,110.944 56.421 C 110.792 56.268,110.667 56.033,110.667 55.900 C 110.667 55.766,110.550 55.611,110.407 55.557 C 110.264 55.502,110.187 55.354,110.235 55.228 C 110.283 55.103,110.252 55.000,110.165 55.000 C 110.078 55.000,109.959 54.813,109.902 54.583 C 109.844 54.354,109.712 54.166,109.607 54.164 C 109.502 54.163,109.529 54.089,109.667 54.000 C 109.877 53.864,109.868 53.838,109.607 53.836 C 109.401 53.834,109.330 53.750,109.394 53.583 C 109.446 53.446,109.412 53.333,109.318 53.333 C 109.224 53.333,109.193 53.258,109.250 53.167 C 109.307 53.075,109.282 53.000,109.195 53.000 C 109.108 53.000,108.987 52.734,108.926 52.408 C 108.865 52.082,108.702 51.773,108.565 51.720 C 108.427 51.667,108.354 51.521,108.402 51.395 C 108.450 51.269,108.423 51.167,108.341 51.167 C 108.260 51.167,108.071 50.798,107.921 50.348 C 107.566 49.277,107.896 49.333,101.997 49.333 C 96.864 49.333,96.000 49.417,96.000 49.913 C 96.000 50.052,95.921 50.167,95.823 50.167 C 95.726 50.167,95.693 50.242,95.750 50.333 C 95.807 50.425,95.774 50.500,95.677 50.500 C 95.579 50.500,95.500 50.612,95.500 50.750 C 95.500 50.887,95.425 51.000,95.333 51.000 C 95.242 51.000,95.176 51.056,95.186 51.125 C 95.243 51.486,95.139 51.837,94.905 52.071 C 94.761 52.215,94.695 52.333,94.759 52.333 C 94.822 52.333,94.781 52.446,94.667 52.583 C 94.553 52.721,94.517 52.833,94.588 52.833 C 94.660 52.833,94.568 52.965,94.385 53.125 C 94.202 53.285,94.084 53.510,94.123 53.625 C 94.162 53.740,94.119 53.833,94.028 53.833 C 93.936 53.833,93.732 54.171,93.574 54.583 C 93.417 54.996,93.214 55.333,93.125 55.333 C 93.035 55.333,93.000 55.483,93.048 55.667 C 93.096 55.850,93.063 56.000,92.975 56.000 C 92.886 56.000,92.857 56.070,92.910 56.155 C 92.962 56.240,92.928 56.358,92.833 56.417 C 92.739 56.475,92.704 56.593,92.757 56.678 C 92.810 56.764,92.774 56.833,92.677 56.833 C 92.579 56.833,92.500 56.942,92.500 57.075 C 92.500 57.208,92.401 57.377,92.280 57.450 C 92.159 57.523,91.927 57.921,91.766 58.333 C 91.604 58.746,91.354 59.215,91.210 59.375 C 90.997 59.613,90.992 59.667,91.183 59.669 C 91.373 59.671,91.370 59.702,91.167 59.833 C 91.029 59.922,90.982 59.996,91.062 59.997 C 91.142 59.999,91.124 60.101,91.022 60.224 C 90.920 60.347,90.886 60.497,90.946 60.557 C 91.006 60.617,90.968 60.667,90.861 60.667 C 90.754 60.667,90.667 60.775,90.667 60.908 C 90.667 61.041,90.568 61.210,90.448 61.283 C 90.327 61.357,90.049 61.867,89.830 62.417 C 89.611 62.967,89.335 63.516,89.216 63.637 C 89.097 63.758,89.000 63.954,89.000 64.072 C 89.000 64.190,88.788 64.691,88.529 65.185 C 88.271 65.679,87.955 66.346,87.828 66.667 C 87.701 66.987,87.500 67.349,87.381 67.471 C 87.262 67.593,87.082 68.024,86.979 68.429 C 86.877 68.835,86.734 69.167,86.660 69.167 C 86.587 69.167,86.353 69.617,86.139 70.167 C 85.926 70.717,85.701 71.167,85.639 71.167 C 85.578 71.167,85.365 71.654,85.167 72.250 C 84.968 72.846,84.747 73.333,84.676 73.333 C 84.604 73.333,84.412 73.690,84.249 74.125 C 84.086 74.560,83.874 75.017,83.777 75.140 C 83.681 75.262,83.467 75.745,83.302 76.212 C 83.138 76.679,82.938 77.104,82.857 77.156 C 82.777 77.208,82.660 77.438,82.596 77.667 C 82.409 78.344,81.938 79.401,81.725 79.623 C 81.616 79.737,81.440 80.093,81.334 80.415 C 81.228 80.737,81.084 81.000,81.014 81.000 C 80.944 81.000,80.784 81.319,80.658 81.708 C 80.532 82.098,80.145 82.977,79.798 83.662 C 79.451 84.347,79.167 85.003,79.167 85.120 C 79.167 85.238,79.097 85.333,79.011 85.333 C 78.832 85.333,78.575 85.977,78.521 86.558 C 78.509 86.681,78.350 86.956,78.166 87.168 C 77.982 87.380,77.679 88.066,77.492 88.693 C 77.305 89.320,77.076 89.833,76.983 89.833 C 76.890 89.833,76.847 89.890,76.888 89.958 C 77.373 90.771,76.186 94.152,75.290 94.509 C 74.538 94.809,74.295 95.101,73.841 96.250 C 73.624 96.800,73.356 97.362,73.244 97.500 C 73.133 97.638,72.952 98.031,72.841 98.375 C 72.731 98.719,72.589 99.000,72.526 99.000 C 72.463 99.000,72.232 99.450,72.014 100.000 C 71.795 100.550,71.553 101.000,71.475 101.000 C 71.397 101.000,71.333 101.118,71.333 101.261 C 71.333 101.586,69.832 104.730,69.640 104.806 C 69.563 104.836,69.500 104.957,69.500 105.075 C 69.500 105.322,68.815 107.042,68.667 107.167 C 68.544 107.270,67.825 108.778,67.316 110.000 C 67.106 110.504,66.873 110.959,66.799 111.011 C 66.724 111.063,66.507 111.550,66.315 112.094 C 66.124 112.638,65.917 113.121,65.854 113.167 C 65.792 113.212,65.595 113.587,65.417 114.000 C 65.238 114.412,65.033 114.792,64.961 114.844 C 64.889 114.896,64.673 115.384,64.482 115.928 C 64.291 116.472,64.082 116.954,64.017 117.000 C 63.952 117.046,63.725 117.496,63.512 118.000 C 63.299 118.504,63.070 118.954,63.004 119.000 C 62.937 119.046,62.753 119.477,62.595 119.958 C 62.436 120.440,62.246 120.833,62.171 120.833 C 62.097 120.833,61.986 121.033,61.925 121.276 C 61.802 121.766,62.039 121.976,58.500 118.234 C 57.904 117.604,57.371 117.103,57.316 117.120 C 57.260 117.137,57.110 116.948,56.982 116.700 C 56.855 116.453,56.375 115.881,55.917 115.431 C 55.458 114.980,55.102 114.549,55.125 114.472 C 55.148 114.396,55.110 114.342,55.042 114.353 C 54.704 114.406,54.500 114.311,54.500 114.099 C 54.500 113.864,54.052 113.329,52.333 111.511 C 51.829 110.978,51.079 110.131,50.667 109.629 C 50.254 109.127,49.674 108.537,49.378 108.317 C 49.083 108.097,48.802 107.803,48.754 107.664 C 48.707 107.524,48.180 106.887,47.582 106.247 C 46.210 104.777,44.862 103.318,43.583 101.916 C 43.033 101.313,42.040 100.254,41.375 99.564 C 40.710 98.874,40.167 98.249,40.167 98.176 C 40.167 98.047,39.731 97.601,38.163 96.126 C 37.748 95.736,37.308 95.218,37.185 94.975 C 37.062 94.732,36.633 94.287,36.232 93.987 C 35.832 93.687,35.457 93.294,35.400 93.115 C 35.287 92.758,33.388 90.833,33.149 90.833 C 33.067 90.833,33.000 90.724,33.000 90.590 C 33.000 90.457,32.541 89.894,31.980 89.340 C 31.420 88.787,31.020 88.333,31.092 88.333 C 31.164 88.333,30.706 87.833,30.073 87.222 C 28.353 85.560,28.352 85.557,29.534 84.483 C 30.078 83.988,30.593 83.410,30.678 83.198 C 30.763 82.987,30.907 82.859,30.998 82.915 C 31.093 82.974,31.121 82.907,31.064 82.759 C 31.009 82.616,31.048 82.500,31.150 82.500 C 31.414 82.500,32.833 81.026,32.833 80.752 C 32.833 80.626,33.076 80.350,33.373 80.139 C 34.183 79.562,35.191 78.507,35.089 78.343 C 35.040 78.263,35.392 77.872,35.872 77.474 C 36.836 76.673,37.487 75.992,37.495 75.775 C 37.498 75.697,38.025 75.133,38.667 74.522 C 39.308 73.912,39.833 73.337,39.833 73.245 C 39.833 73.153,40.287 72.671,40.841 72.174 C 41.395 71.676,41.966 71.021,42.110 70.718 C 42.254 70.415,42.433 70.167,42.508 70.167 C 42.774 70.167,44.524 68.341,44.420 68.172 C 44.361 68.077,44.378 68.000,44.457 68.000 C 44.670 68.000,46.371 66.324,46.740 65.750 C 46.917 65.475,47.217 65.127,47.406 64.976 C 47.985 64.516,49.229 63.254,49.172 63.184 C 49.143 63.148,49.617 62.616,50.226 62.000 C 50.835 61.385,51.333 60.825,51.333 60.756 C 51.333 60.687,51.802 60.151,52.375 59.564 C 54.708 57.174,55.750 56.027,55.750 55.849 C 55.750 55.746,55.940 55.531,56.171 55.372 C 56.789 54.948,57.833 53.815,57.833 53.569 C 57.833 53.452,58.187 53.069,58.619 52.719 C 59.521 51.989,60.435 50.998,60.378 50.812 C 60.357 50.743,60.609 50.463,60.939 50.192 C 61.980 49.333,61.981 49.333,52.815 49.333 L 44.317 49.333 43.766 49.875 C 43.463 50.173,43.248 50.510,43.288 50.625 C 43.328 50.740,43.284 50.833,43.190 50.833 C 43.003 50.833,40.917 52.828,40.917 53.007 C 40.917 53.067,40.530 53.489,40.058 53.944 C 39.586 54.399,39.052 55.014,38.872 55.310 C 38.692 55.606,38.323 56.014,38.051 56.216 C 37.780 56.418,37.104 57.108,36.549 57.750 C 35.993 58.392,35.268 59.175,34.936 59.491 C 34.605 59.807,34.333 60.137,34.333 60.224 C 34.333 60.312,33.846 60.833,33.250 61.383 C 32.654 61.932,32.167 62.468,32.167 62.572 C 32.167 62.677,31.637 63.265,30.990 63.880 C 30.266 64.567,29.859 65.074,29.934 65.194 C 30.015 65.326,29.965 65.355,29.779 65.284 C 29.628 65.226,29.522 65.242,29.544 65.320 C 29.565 65.398,29.198 65.833,28.726 66.287 C 28.255 66.741,27.747 67.350,27.597 67.640 C 27.447 67.930,27.270 68.167,27.204 68.167 C 26.953 68.169,25.500 69.707,25.500 69.971 C 25.500 70.044,25.256 70.283,24.958 70.502 C 24.660 70.722,24.280 71.074,24.112 71.285 C 23.945 71.496,23.705 71.772,23.578 71.898 C 23.452 72.024,23.381 72.159,23.420 72.197 C 23.458 72.236,22.965 72.747,22.322 73.331 C 21.654 73.940,21.191 74.489,21.239 74.614 C 21.285 74.735,21.254 74.833,21.169 74.833 C 20.908 74.833,19.000 76.777,19.000 77.043 C 19.000 77.181,18.720 77.508,18.377 77.769 C 17.388 78.523,16.439 79.500,16.688 79.505 C 16.837 79.509,16.800 79.596,16.583 79.756 C 16.400 79.890,15.896 80.343,15.464 80.761 L 14.679 81.521 14.606 77.719 C 14.567 75.628,14.458 69.454,14.366 64.000 C 14.273 58.546,14.142 53.090,14.073 51.876 L 13.949 49.668 13.349 49.502 C 12.999 49.404,10.133 49.335,6.456 49.334 L 0.162 49.333 0.173 86.167 M224.425 49.498 C 223.142 49.565,222.075 49.693,222.044 49.784 C 222.014 49.875,221.616 50.600,221.161 51.394 L 220.333 52.837 220.333 87.919 L 220.333 123.000 227.583 123.000 L 234.833 123.000 234.833 111.102 L 234.833 99.204 238.458 99.079 C 240.452 99.010,243.246 98.999,244.667 99.053 C 247.558 99.165,251.330 98.941,251.512 98.647 C 251.577 98.543,251.710 98.507,251.809 98.568 C 251.908 98.630,252.373 98.629,252.842 98.566 C 253.401 98.492,253.618 98.405,253.472 98.313 C 253.313 98.212,253.357 98.171,253.628 98.169 C 254.259 98.165,256.075 97.614,256.217 97.383 C 256.290 97.264,256.459 97.167,256.592 97.167 C 256.725 97.167,256.833 97.110,256.834 97.042 C 256.834 96.973,257.064 96.901,257.344 96.881 C 257.625 96.861,258.081 96.655,258.357 96.423 C 258.633 96.190,258.966 96.000,259.096 96.000 C 259.227 96.000,259.333 95.921,259.333 95.823 C 259.333 95.726,259.408 95.693,259.500 95.750 C 259.592 95.807,259.667 95.772,259.667 95.673 C 259.667 95.574,259.872 95.401,260.123 95.288 C 260.374 95.175,260.706 94.971,260.861 94.833 C 261.425 94.333,261.655 94.167,261.785 94.165 C 261.857 94.164,262.494 93.545,263.200 92.790 C 263.906 92.035,265.290 90.554,266.276 89.500 C 267.262 88.446,268.125 87.601,268.195 87.623 C 268.264 87.645,268.279 87.551,268.226 87.415 C 268.163 87.250,268.235 87.166,268.441 87.164 C 268.656 87.162,268.687 87.122,268.543 87.030 C 268.329 86.894,268.387 86.790,269.262 85.734 C 269.452 85.505,269.703 84.946,269.819 84.492 C 269.936 84.038,270.089 83.667,270.159 83.667 C 270.230 83.667,270.417 83.235,270.574 82.708 C 270.732 82.181,270.966 81.525,271.095 81.250 C 271.366 80.672,271.833 77.980,271.833 77.000 C 271.833 76.633,271.908 76.333,272.000 76.333 C 272.101 76.333,272.167 75.580,272.167 74.407 C 272.167 73.165,272.107 72.517,272.000 72.583 C 271.899 72.646,271.833 72.405,271.834 71.968 C 271.834 70.889,271.470 68.500,271.305 68.500 C 271.225 68.500,271.207 68.313,271.265 68.083 C 271.333 67.810,271.300 67.667,271.167 67.667 C 271.055 67.667,271.007 67.554,271.060 67.417 C 271.113 67.279,271.084 67.167,270.995 67.167 C 270.906 67.167,270.833 67.021,270.833 66.843 C 270.833 66.665,270.762 66.475,270.674 66.421 C 270.586 66.367,270.557 66.213,270.608 66.078 C 270.660 65.943,270.611 65.833,270.500 65.833 C 270.389 65.833,270.341 65.721,270.394 65.583 C 270.446 65.446,270.425 65.333,270.346 65.333 C 270.267 65.333,270.151 65.129,270.089 64.879 C 269.673 63.222,263.320 54.779,262.471 54.753 C 262.409 54.752,262.083 54.506,261.746 54.208 C 261.410 53.910,261.029 53.667,260.901 53.667 C 260.772 53.667,260.667 53.588,260.667 53.491 C 260.667 53.395,260.448 53.240,260.180 53.146 C 259.912 53.053,259.655 52.877,259.608 52.755 C 259.562 52.633,259.256 52.445,258.928 52.337 C 258.601 52.229,258.333 52.074,258.333 51.992 C 258.333 51.910,257.921 51.723,257.417 51.576 C 256.912 51.430,256.500 51.248,256.500 51.173 C 256.500 51.097,256.384 50.991,256.241 50.936 C 256.093 50.879,256.026 50.907,256.085 51.002 C 256.232 51.240,256.014 51.204,255.757 50.948 C 255.637 50.828,255.099 50.626,254.561 50.499 C 254.023 50.373,253.546 50.217,253.500 50.153 C 253.044 49.514,232.897 49.060,224.425 49.498 M246.125 60.504 C 246.423 60.515,246.667 60.603,246.667 60.699 C 246.667 60.806,246.864 60.836,247.167 60.775 C 247.442 60.720,247.667 60.741,247.667 60.821 C 247.667 60.901,248.042 61.057,248.500 61.167 C 248.958 61.277,249.333 61.425,249.333 61.497 C 249.333 61.569,249.765 61.802,250.292 62.015 C 250.819 62.227,251.334 62.480,251.436 62.576 C 252.009 63.112,252.480 63.464,252.542 63.402 C 252.640 63.304,254.082 64.886,254.037 65.042 C 254.016 65.110,254.068 65.148,254.150 65.125 C 254.233 65.102,254.317 65.158,254.337 65.250 C 254.358 65.342,254.557 65.585,254.779 65.792 C 255.002 65.998,255.142 66.167,255.092 66.167 C 255.041 66.167,255.131 66.311,255.292 66.488 C 255.859 67.114,255.979 67.299,255.879 67.399 C 255.823 67.455,255.865 67.500,255.972 67.500 C 256.079 67.500,256.167 67.612,256.167 67.750 C 256.167 67.887,256.226 68.000,256.298 68.000 C 256.370 68.000,256.441 68.162,256.456 68.360 C 256.471 68.558,256.572 68.775,256.680 68.841 C 256.788 68.908,256.825 69.046,256.762 69.148 C 256.699 69.250,256.734 69.333,256.841 69.333 C 256.948 69.333,256.993 69.443,256.942 69.578 C 256.890 69.713,256.920 69.867,257.007 69.921 C 257.095 69.975,257.167 70.198,257.167 70.417 C 257.167 70.635,257.243 70.861,257.336 70.918 C 257.429 70.976,257.460 71.096,257.405 71.186 C 257.349 71.276,257.358 71.477,257.424 71.633 C 257.552 71.936,257.575 75.904,257.450 76.121 C 257.409 76.192,257.324 76.608,257.261 77.045 C 257.190 77.532,257.078 77.798,256.971 77.732 C 256.856 77.661,256.836 77.801,256.912 78.146 C 256.981 78.459,256.960 78.667,256.860 78.667 C 256.768 78.667,256.606 78.930,256.499 79.252 C 256.393 79.573,256.218 79.929,256.110 80.043 C 255.822 80.346,255.482 81.170,255.580 81.328 C 255.627 81.404,255.553 81.508,255.416 81.561 C 255.279 81.613,255.167 81.753,255.167 81.871 C 255.167 81.990,255.017 82.180,254.833 82.295 C 254.650 82.409,254.500 82.615,254.500 82.751 C 254.500 82.888,254.420 83.000,254.323 83.000 C 254.118 83.000,252.339 84.844,252.336 85.059 C 252.334 85.138,252.230 85.163,252.104 85.114 C 251.973 85.064,251.784 85.197,251.663 85.424 C 251.546 85.643,251.392 85.786,251.321 85.742 C 251.141 85.631,250.327 86.021,250.421 86.173 C 250.463 86.242,250.311 86.345,250.082 86.402 C 249.854 86.459,249.667 86.584,249.667 86.680 C 249.667 86.775,249.592 86.807,249.500 86.750 C 249.408 86.693,249.333 86.731,249.333 86.835 C 249.333 86.947,249.199 86.980,249.000 86.917 C 248.817 86.858,248.667 86.882,248.667 86.968 C 248.667 87.054,248.217 87.225,247.667 87.347 C 247.117 87.469,246.667 87.610,246.667 87.659 C 246.667 87.709,246.292 87.724,245.833 87.692 C 245.375 87.660,245.000 87.698,245.000 87.776 C 245.000 87.853,242.713 87.896,239.917 87.870 L 234.833 87.824 234.833 74.183 L 234.833 60.541 236.708 60.601 C 237.740 60.634,238.996 60.595,239.500 60.514 C 240.250 60.394,243.014 60.390,246.125 60.504 M243.458 60.618 C 243.665 60.657,244.002 60.657,244.208 60.618 C 244.415 60.578,244.246 60.545,243.833 60.545 C 243.421 60.545,243.252 60.578,243.458 60.618 M103.094 73.333 C 103.266 73.746,103.465 74.125,103.535 74.175 C 103.604 74.225,103.814 74.709,104.000 75.250 C 104.186 75.791,104.393 76.275,104.461 76.325 C 104.645 76.463,105.167 77.643,105.167 77.922 C 105.167 78.057,105.224 78.167,105.295 78.167 C 105.365 78.167,105.601 78.617,105.820 79.167 C 106.038 79.717,106.281 80.167,106.358 80.167 C 106.436 80.167,106.500 80.269,106.500 80.394 C 106.500 80.681,107.192 82.387,107.356 82.503 C 107.423 82.550,107.602 82.957,107.755 83.406 C 107.907 83.855,108.131 84.322,108.252 84.442 C 108.373 84.563,108.602 85.055,108.762 85.536 C 108.921 86.016,109.153 86.510,109.276 86.633 C 109.399 86.756,109.500 86.930,109.500 87.020 C 109.500 87.109,109.752 87.722,110.060 88.383 C 110.369 89.043,110.674 89.752,110.738 89.958 C 110.803 90.165,110.921 90.333,111.000 90.333 C 111.080 90.333,111.240 90.596,111.356 90.917 C 111.472 91.237,111.631 91.500,111.710 91.500 C 111.789 91.500,111.807 91.575,111.750 91.667 C 111.693 91.758,111.731 91.833,111.835 91.833 C 111.947 91.833,111.980 91.968,111.917 92.167 C 111.858 92.350,111.876 92.500,111.955 92.500 C 112.035 92.500,112.195 92.763,112.311 93.083 C 112.427 93.404,112.589 93.667,112.672 93.667 C 112.755 93.667,112.780 93.779,112.727 93.917 C 112.674 94.054,112.718 94.167,112.825 94.167 C 112.932 94.167,112.977 94.235,112.925 94.319 C 112.874 94.403,112.888 94.497,112.957 94.527 C 113.027 94.558,113.205 94.940,113.354 95.375 L 113.625 96.167 101.744 96.167 L 89.862 96.167 90.051 95.667 C 90.155 95.392,90.298 95.167,90.370 95.167 C 90.441 95.167,90.500 95.064,90.500 94.938 C 90.500 94.666,91.163 93.120,91.331 93.000 C 91.395 92.954,91.587 92.542,91.757 92.083 C 91.927 91.625,92.112 91.212,92.167 91.167 C 92.222 91.121,92.442 90.671,92.655 90.167 C 92.868 89.662,93.094 89.212,93.159 89.167 C 93.223 89.121,93.452 88.577,93.669 87.958 C 93.885 87.340,94.113 86.833,94.175 86.833 C 94.237 86.833,94.417 86.496,94.574 86.083 C 94.732 85.671,94.930 85.333,95.014 85.333 C 95.098 85.333,95.167 85.231,95.167 85.106 C 95.167 84.806,95.863 83.110,96.036 82.989 C 96.110 82.937,96.327 82.450,96.518 81.906 C 96.709 81.362,96.914 80.879,96.974 80.833 C 97.152 80.697,97.667 79.509,97.667 79.235 C 97.667 79.095,97.742 79.027,97.833 79.083 C 97.925 79.140,98.006 79.126,98.013 79.052 C 98.059 78.558,98.613 77.149,98.819 77.000 C 98.882 76.954,99.106 76.504,99.316 76.000 C 99.852 74.713,100.547 73.265,100.677 73.167 C 100.737 73.121,100.958 72.596,101.167 72.000 C 101.746 70.348,101.888 70.447,103.094 73.333 M154.833 98.153 L 154.833 123.000 177.583 123.000 L 200.333 123.000 200.353 121.708 C 200.368 120.735,200.405 120.540,200.505 120.917 C 200.609 121.310,200.632 121.216,200.611 120.475 C 200.595 119.952,200.515 119.575,200.430 119.627 C 200.337 119.685,200.337 119.597,200.430 119.402 C 200.520 119.214,200.602 109.751,200.628 96.375 C 200.677 72.123,200.693 72.627,199.911 74.292 C 199.750 74.635,199.564 74.954,199.498 75.000 C 199.432 75.046,199.217 75.402,199.019 75.792 C 198.821 76.181,198.598 76.500,198.523 76.500 C 198.448 76.500,198.285 76.808,198.161 77.184 C 198.037 77.561,197.842 77.904,197.728 77.948 C 197.614 77.992,197.562 78.134,197.612 78.264 C 197.662 78.394,197.628 78.500,197.537 78.500 C 197.446 78.500,197.239 78.781,197.078 79.125 C 196.917 79.469,196.689 79.807,196.572 79.876 C 196.454 79.946,196.270 80.270,196.163 80.596 C 196.055 80.922,195.925 81.148,195.875 81.097 C 195.824 81.046,195.596 81.397,195.367 81.877 C 195.139 82.357,194.891 82.790,194.816 82.839 C 194.741 82.888,194.523 83.282,194.332 83.714 C 194.141 84.146,193.924 84.500,193.851 84.500 C 193.777 84.500,193.584 84.796,193.421 85.157 C 193.258 85.518,193.036 85.848,192.928 85.889 C 192.820 85.931,192.627 86.281,192.500 86.667 C 192.373 87.053,192.181 87.402,192.074 87.443 C 191.967 87.484,191.707 87.926,191.496 88.426 C 191.285 88.925,191.061 89.333,190.998 89.333 C 190.935 89.333,190.750 89.631,190.585 89.995 C 190.421 90.360,190.211 90.611,190.118 90.553 C 190.025 90.496,189.994 90.523,190.051 90.614 C 190.107 90.705,190.026 90.959,189.872 91.180 C 189.717 91.401,189.575 91.690,189.555 91.824 C 189.536 91.958,189.346 92.200,189.135 92.363 C 188.923 92.526,188.840 92.661,188.950 92.663 C 189.061 92.665,188.970 92.862,188.748 93.101 C 188.527 93.340,188.351 93.584,188.359 93.643 C 188.401 93.971,188.313 94.173,188.167 94.083 C 188.075 94.027,188.000 94.097,188.000 94.240 C 188.000 94.383,187.921 94.500,187.823 94.500 C 187.726 94.500,187.692 94.572,187.746 94.661 C 187.801 94.749,187.687 94.980,187.492 95.174 C 187.298 95.369,187.178 95.567,187.226 95.615 C 187.274 95.663,187.172 95.854,186.998 96.040 C 186.825 96.226,186.636 96.593,186.578 96.856 C 186.514 97.147,186.365 97.334,186.195 97.336 C 185.954 97.338,185.951 97.360,186.167 97.500 C 186.330 97.605,186.345 97.662,186.211 97.664 C 186.097 97.666,185.889 97.910,185.749 98.208 C 185.434 98.875,184.757 100.011,184.506 100.292 C 184.404 100.406,184.379 100.501,184.452 100.503 C 184.524 100.504,184.503 100.560,184.405 100.628 C 184.307 100.695,184.057 101.106,183.849 101.542 C 183.641 101.977,183.409 102.333,183.335 102.333 C 183.260 102.333,183.121 102.558,183.025 102.833 C 182.929 103.108,182.759 103.333,182.648 103.333 C 182.536 103.333,182.494 103.383,182.554 103.443 C 182.614 103.503,182.580 103.653,182.478 103.776 C 182.376 103.899,182.339 104.000,182.396 104.000 C 182.453 104.000,182.350 104.150,182.167 104.333 C 181.983 104.517,181.833 104.779,181.833 104.917 C 181.833 105.054,181.758 105.167,181.665 105.167 C 181.572 105.167,181.313 105.560,181.088 106.042 C 180.862 106.523,180.673 106.842,180.667 106.750 C 180.661 106.658,180.472 106.958,180.246 107.417 C 180.021 107.875,179.834 108.175,179.831 108.083 C 179.826 107.925,178.991 109.365,178.309 110.708 C 178.135 111.052,177.937 111.333,177.870 111.333 C 177.803 111.333,177.649 111.558,177.527 111.832 C 177.259 112.438,177.094 112.311,176.498 111.042 C 176.273 110.560,176.038 110.167,175.977 110.167 C 175.915 110.167,175.694 109.754,175.485 109.250 C 175.276 108.746,175.044 108.333,174.968 108.333 C 174.892 108.333,174.711 108.033,174.564 107.667 C 174.417 107.300,174.248 107.000,174.187 107.000 C 174.127 107.000,173.899 106.587,173.682 106.083 C 173.464 105.579,173.229 105.167,173.159 105.167 C 173.089 105.167,172.861 104.754,172.652 104.250 C 172.443 103.746,172.218 103.333,172.153 103.333 C 172.087 103.333,171.894 102.996,171.725 102.584 C 171.555 102.172,171.358 101.834,171.286 101.834 C 171.214 101.834,171.003 101.479,170.817 101.045 C 170.631 100.611,170.413 100.216,170.333 100.167 C 170.253 100.117,170.036 99.722,169.850 99.288 C 169.664 98.855,169.446 98.500,169.366 98.500 C 169.286 98.500,169.118 98.192,168.994 97.816 C 168.870 97.439,168.679 97.097,168.569 97.055 C 168.460 97.013,168.239 96.627,168.078 96.198 C 167.917 95.768,167.646 95.282,167.476 95.119 C 167.306 94.955,167.167 94.711,167.167 94.577 C 167.167 94.443,167.027 94.193,166.856 94.022 C 166.685 93.851,166.409 93.356,166.243 92.923 C 166.078 92.489,165.853 92.100,165.745 92.058 C 165.636 92.017,165.451 91.688,165.332 91.329 C 165.213 90.969,164.996 90.540,164.850 90.375 C 164.703 90.209,164.434 89.776,164.252 89.412 C 164.069 89.048,163.876 88.712,163.823 88.667 C 163.770 88.621,163.550 88.208,163.333 87.750 C 163.117 87.292,162.891 86.879,162.831 86.833 C 162.772 86.787,162.542 86.375,162.320 85.917 C 162.098 85.458,161.871 85.046,161.815 85.000 C 161.759 84.954,161.580 84.654,161.417 84.333 C 161.254 84.012,161.074 83.712,161.018 83.667 C 160.962 83.621,160.729 83.210,160.500 82.753 C 160.271 82.296,160.006 81.838,159.911 81.736 C 159.817 81.633,159.594 81.219,159.416 80.816 C 159.238 80.413,159.045 80.046,158.986 80.000 C 158.928 79.954,158.746 79.654,158.583 79.333 C 158.420 79.012,158.236 78.712,158.174 78.667 C 158.111 78.621,157.883 78.208,157.667 77.750 C 157.450 77.292,157.225 76.879,157.167 76.833 C 157.108 76.787,156.883 76.375,156.667 75.917 C 156.450 75.458,156.210 75.041,156.134 74.989 C 156.058 74.937,155.827 74.565,155.623 74.164 C 154.803 72.556,154.833 71.625,154.833 98.153 " stroke="none" fill="#fcfcfc" fill-rule="evenodd"></path><path id="path1" d="M14.294 49.875 C 14.327 50.173,14.413 52.217,14.484 54.417 L 14.615 58.417 14.641 53.875 C 14.661 50.248,14.623 49.333,14.450 49.333 C 14.305 49.333,14.253 49.511,14.294 49.875 M220.333 50.444 C 220.333 51.707,220.341 51.708,220.960 50.484 C 221.415 49.587,221.420 49.583,222.333 49.485 C 223.150 49.398,223.091 49.385,221.792 49.360 L 220.333 49.333 220.333 50.444 M264.842 56.790 C 265.158 57.133,265.435 57.445,265.458 57.484 C 265.481 57.523,265.540 57.516,265.589 57.467 C 265.705 57.350,264.656 56.167,264.437 56.167 C 264.344 56.167,264.526 56.447,264.842 56.790 M266.200 58.362 C 266.335 58.566,266.540 58.763,266.655 58.802 C 266.982 58.911,266.571 58.230,266.232 58.099 C 265.981 58.003,265.978 58.029,266.200 58.362 M267.000 59.333 C 267.098 59.517,267.262 59.667,267.365 59.667 C 267.468 59.667,267.416 59.517,267.250 59.333 C 267.084 59.150,266.920 59.000,266.885 59.000 C 266.850 59.000,266.902 59.150,267.000 59.333 M267.717 60.375 C 267.937 60.673,268.164 61.048,268.220 61.208 C 268.277 61.369,268.400 61.500,268.495 61.500 C 268.749 61.500,268.703 61.238,268.406 60.991 C 268.262 60.872,268.035 60.563,267.901 60.304 C 267.768 60.045,267.581 59.833,267.487 59.833 C 267.393 59.833,267.497 60.077,267.717 60.375 M266.890 89.220 C 266.813 89.355,266.249 89.998,265.637 90.649 C 265.024 91.301,264.578 91.833,264.645 91.833 C 264.798 91.833,266.667 90.032,266.667 89.885 C 266.667 89.825,266.791 89.639,266.943 89.470 C 267.096 89.302,267.178 89.122,267.125 89.070 C 267.073 89.018,266.967 89.085,266.890 89.220 M75.750 92.167 C 75.572 92.625,75.375 93.000,75.313 93.000 C 75.170 93.000,74.804 94.026,74.909 94.131 C 75.054 94.276,75.916 93.120,76.112 92.518 C 76.550 91.170,76.250 90.879,75.750 92.167 M263.649 92.708 C 263.090 93.177,262.865 93.605,263.368 93.242 C 263.744 92.971,264.109 92.500,263.943 92.500 C 263.918 92.500,263.785 92.594,263.649 92.708 M0.057 106.083 C 0.058 106.817,0.087 107.096,0.122 106.704 C 0.157 106.312,0.157 105.712,0.121 105.371 C 0.085 105.029,0.057 105.350,0.057 106.083 M0.069 110.583 C 0.069 112.233,0.094 112.886,0.124 112.033 C 0.155 111.181,0.154 109.831,0.124 109.033 C 0.093 108.236,0.069 108.933,0.069 110.583 M395.036 114.837 C 394.841 115.150,394.850 115.159,395.163 114.964 C 395.499 114.754,395.614 114.500,395.373 114.500 C 395.304 114.500,395.152 114.652,395.036 114.837 " stroke="none" fill="#c9c9c9" fill-rule="evenodd"></path><path id="path2" d="M220.860 50.590 C 220.581 51.203,220.634 51.334,220.936 50.777 C 221.077 50.517,221.162 50.273,221.123 50.235 C 221.085 50.196,220.967 50.357,220.860 50.590 M14.399 54.833 C 14.399 56.071,14.425 56.577,14.457 55.958 C 14.489 55.340,14.489 54.327,14.457 53.708 C 14.425 53.090,14.399 53.596,14.399 54.833 M265.765 57.917 C 265.915 58.146,266.066 58.333,266.099 58.333 C 266.132 58.333,266.074 58.146,265.970 57.917 C 265.865 57.688,265.715 57.500,265.636 57.500 C 265.557 57.500,265.615 57.688,265.765 57.917 M14.556 60.667 C 14.556 61.354,14.585 61.635,14.621 61.292 C 14.657 60.948,14.657 60.385,14.621 60.042 C 14.585 59.698,14.556 59.979,14.556 60.667 M241.875 60.615 C 242.035 60.657,242.298 60.657,242.458 60.615 C 242.619 60.573,242.487 60.539,242.167 60.539 C 241.846 60.539,241.715 60.573,241.875 60.615 M76.102 92.530 C 76.043 92.828,75.794 93.280,75.549 93.536 C 75.305 93.791,75.188 94.000,75.290 94.000 C 75.715 94.000,76.568 92.346,76.288 92.066 C 76.245 92.023,76.162 92.232,76.102 92.530 M0.045 104.167 C 0.045 104.579,0.078 104.748,0.118 104.542 C 0.157 104.335,0.157 103.998,0.118 103.792 C 0.078 103.585,0.045 103.754,0.045 104.167 M0.048 114.250 C 0.049 114.708,0.081 114.876,0.120 114.623 C 0.158 114.369,0.157 113.994,0.117 113.789 C 0.078 113.584,0.046 113.792,0.048 114.250 " stroke="none" fill="#d4d4d4" fill-rule="evenodd"></path><path id="path3" d="M220.886 50.845 C 220.597 51.480,220.395 52.000,220.439 52.000 C 220.551 52.000,221.552 49.830,221.475 49.753 C 221.440 49.718,221.175 50.209,220.886 50.845 M264.333 56.385 C 264.333 56.414,264.577 56.658,264.875 56.927 L 265.417 57.417 264.927 56.875 C 264.471 56.370,264.333 56.257,264.333 56.385 M14.396 58.833 C 14.396 59.887,14.423 60.319,14.456 59.792 C 14.490 59.265,14.490 58.402,14.456 57.875 C 14.423 57.348,14.396 57.779,14.396 58.833 M243.083 60.433 C 243.850 60.558,245.130 60.574,245.058 60.458 C 245.015 60.390,244.479 60.344,243.865 60.356 C 243.252 60.369,242.900 60.403,243.083 60.433 M14.569 65.167 C 14.569 66.771,14.594 67.427,14.624 66.625 C 14.655 65.823,14.655 64.510,14.624 63.708 C 14.594 62.906,14.569 63.563,14.569 65.167 M354.567 82.142 C 354.742 82.339,354.953 82.500,355.036 82.500 C 355.270 82.500,355.021 82.189,354.616 81.977 C 354.253 81.786,354.252 81.787,354.567 82.142 M265.333 90.750 C 264.928 91.162,264.635 91.500,264.681 91.500 C 264.726 91.500,265.095 91.162,265.500 90.750 C 265.905 90.337,266.199 90.000,266.153 90.000 C 266.107 90.000,265.738 90.337,265.333 90.750 M75.943 93.409 C 75.889 93.549,75.598 93.815,75.297 93.998 C 74.996 94.182,74.843 94.332,74.956 94.333 C 75.232 94.334,76.277 93.388,76.145 93.257 C 76.088 93.199,75.997 93.268,75.943 93.409 M240.544 99.120 C 240.797 99.158,241.172 99.157,241.377 99.117 C 241.582 99.078,241.375 99.046,240.917 99.048 C 240.458 99.049,240.291 99.081,240.544 99.120 M0.050 102.667 C 0.050 103.171,0.081 103.377,0.119 103.125 C 0.158 102.873,0.158 102.460,0.119 102.208 C 0.081 101.956,0.050 102.162,0.050 102.667 M349.911 109.697 C 349.364 110.264,349.180 110.508,349.501 110.240 C 350.072 109.763,351.095 108.667,350.970 108.667 C 350.935 108.667,350.459 109.130,349.911 109.697 M0.061 116.583 C 0.061 117.500,0.089 117.854,0.123 117.369 C 0.157 116.885,0.156 116.135,0.122 115.703 C 0.088 115.270,0.060 115.667,0.061 116.583 M394.429 115.429 C 394.104 115.754,394.096 115.850,394.404 115.732 C 394.534 115.682,394.682 115.534,394.732 115.404 C 394.850 115.096,394.754 115.104,394.429 115.429 M0.052 120.750 C 0.053 121.300,0.084 121.505,0.121 121.205 C 0.158 120.906,0.157 120.456,0.119 120.205 C 0.081 119.955,0.051 120.200,0.052 120.750 " stroke="none" fill="#dcdcdc" fill-rule="evenodd"></path><path id="path4" d="M177.249 0.458 L 176.960 0.917 177.347 0.545 L 177.735 0.173 178.141 0.545 L 178.548 0.917 178.255 0.458 C 178.094 0.206,177.866 -0.000,177.750 -0.000 C 177.634 -0.000,177.408 0.206,177.249 0.458 M179.667 2.661 C 179.667 2.749,179.835 2.910,180.042 3.018 C 180.415 3.214,180.415 3.213,180.099 2.858 C 179.746 2.460,179.667 2.424,179.667 2.661 M13.458 49.520 C 13.997 49.675,14.000 49.682,14.022 50.796 C 14.033 51.413,14.095 53.042,14.159 54.417 L 14.274 56.917 14.304 53.288 L 14.333 49.658 13.906 49.496 C 13.671 49.406,13.352 49.340,13.197 49.348 C 13.043 49.357,13.160 49.434,13.458 49.520 M224.955 49.454 C 225.250 49.490,225.775 49.491,226.121 49.455 C 226.467 49.419,226.225 49.389,225.583 49.388 C 224.942 49.387,224.659 49.417,224.955 49.454 M278.214 50.083 C 278.216 50.542,278.248 50.709,278.286 50.456 C 278.325 50.203,278.324 49.828,278.284 49.623 C 278.244 49.418,278.213 49.625,278.214 50.083 M0.081 75.333 C 0.081 89.587,0.101 95.419,0.125 88.292 C 0.149 81.165,0.149 69.502,0.125 62.375 C 0.101 55.248,0.081 61.079,0.081 75.333 M221.833 49.611 C 221.582 49.683,220.330 52.129,220.337 52.533 C 220.342 52.787,221.359 51.195,221.764 50.301 C 221.984 49.815,222.152 49.671,222.563 49.619 L 223.083 49.553 222.583 49.546 C 222.308 49.542,221.971 49.571,221.833 49.611 M42.830 50.754 C 42.714 50.894,42.667 51.056,42.726 51.115 C 42.785 51.174,42.833 51.135,42.833 51.028 C 42.833 50.921,42.946 50.833,43.083 50.833 C 43.221 50.833,43.333 50.758,43.333 50.667 C 43.333 50.419,43.070 50.465,42.830 50.754 M261.949 54.402 C 262.206 54.624,262.446 54.776,262.482 54.740 C 262.563 54.660,261.800 54.013,261.616 54.006 C 261.542 54.002,261.692 54.181,261.949 54.402 M353.601 54.764 C 353.539 54.926,353.576 55.002,353.698 54.962 C 353.947 54.879,354.084 54.500,353.865 54.500 C 353.776 54.500,353.657 54.619,353.601 54.764 M38.417 55.667 C 38.251 55.850,38.199 56.000,38.302 56.000 C 38.404 56.000,38.569 55.850,38.667 55.667 C 38.765 55.483,38.817 55.333,38.782 55.333 C 38.747 55.333,38.583 55.483,38.417 55.667 M263.774 55.795 C 263.722 55.879,263.946 56.203,264.272 56.515 C 264.597 56.828,265.618 58.077,266.539 59.292 C 267.461 60.506,268.246 61.500,268.284 61.500 C 268.498 61.500,267.010 59.484,265.407 57.602 C 264.852 56.950,264.279 56.242,264.133 56.029 C 263.987 55.816,263.826 55.711,263.774 55.795 M53.751 57.999 C 53.585 58.183,53.526 58.333,53.620 58.333 C 53.830 58.333,54.246 57.857,54.134 57.745 C 54.090 57.701,53.917 57.815,53.751 57.999 M33.951 60.505 C 33.796 60.686,33.735 60.833,33.815 60.833 C 33.998 60.833,34.406 60.350,34.307 60.251 C 34.266 60.210,34.106 60.324,33.951 60.505 M240.276 60.458 C 240.233 60.527,240.859 60.583,241.667 60.583 C 242.474 60.583,243.048 60.528,242.942 60.461 C 242.689 60.300,240.375 60.297,240.276 60.458 M244.750 60.491 C 244.496 60.594,244.570 60.627,245.066 60.629 C 245.506 60.632,245.641 60.586,245.483 60.486 C 245.211 60.314,245.189 60.314,244.750 60.491 M14.353 66.264 C 14.364 69.373,14.431 72.404,14.502 73.000 C 14.574 73.596,14.593 71.083,14.546 67.417 C 14.498 63.750,14.430 60.719,14.396 60.681 C 14.362 60.642,14.342 63.155,14.353 66.264 M268.683 62.240 C 268.875 62.566,269.065 62.833,269.104 62.833 C 269.222 62.833,268.681 61.862,268.501 61.751 C 268.408 61.693,268.490 61.914,268.683 62.240 M31.663 62.921 C 31.341 63.309,31.571 63.382,31.916 63.001 C 32.082 62.817,32.141 62.667,32.046 62.667 C 31.952 62.667,31.779 62.781,31.663 62.921 M388.865 64.506 C 388.377 64.961,388.403 65.071,388.917 64.735 C 389.146 64.585,389.333 64.395,389.333 64.314 C 389.333 64.102,389.272 64.127,388.865 64.506 M387.429 65.145 C 387.606 65.317,387.779 65.431,387.815 65.399 C 387.921 65.306,387.476 64.833,387.284 64.833 C 387.187 64.833,387.253 64.974,387.429 65.145 M27.167 67.833 C 27.034 67.915,26.982 68.037,27.049 68.105 C 27.117 68.172,27.260 68.140,27.367 68.033 C 27.618 67.782,27.478 67.641,27.167 67.833 M42.203 70.504 C 42.008 70.816,42.017 70.826,42.330 70.630 C 42.665 70.421,42.781 70.167,42.540 70.167 C 42.470 70.167,42.319 70.318,42.203 70.504 M257.345 71.782 C 257.383 72.214,257.643 72.581,257.655 72.218 C 257.661 72.017,257.592 71.807,257.500 71.750 C 257.408 71.693,257.339 71.708,257.345 71.782 M271.833 72.343 C 271.833 72.532,271.908 72.640,272.000 72.583 C 272.092 72.527,272.167 72.372,272.167 72.240 C 272.167 72.108,272.092 72.000,272.000 72.000 C 271.908 72.000,271.833 72.154,271.833 72.343 M278.221 73.583 C 278.222 74.225,278.252 74.467,278.288 74.121 C 278.324 73.775,278.324 73.250,278.287 72.955 C 278.250 72.659,278.221 72.942,278.221 73.583 M40.000 72.917 C 39.882 73.059,39.823 73.212,39.869 73.258 C 39.915 73.304,40.049 73.225,40.167 73.083 C 40.284 72.941,40.343 72.788,40.298 72.742 C 40.252 72.696,40.118 72.775,40.000 72.917 M37.663 75.421 C 37.341 75.809,37.571 75.882,37.916 75.501 C 38.082 75.317,38.141 75.167,38.046 75.167 C 37.952 75.167,37.779 75.281,37.663 75.421 M257.333 75.833 C 257.333 76.144,257.378 76.189,257.533 76.033 C 257.689 75.878,257.689 75.789,257.533 75.633 C 257.378 75.478,257.333 75.522,257.333 75.833 M278.226 78.417 C 278.225 79.242,278.254 79.600,278.288 79.213 C 278.323 78.827,278.324 78.152,278.289 77.713 C 278.255 77.275,278.226 77.592,278.226 78.417 M18.410 77.344 C 18.214 77.661,18.499 77.739,18.790 77.448 C 19.050 77.189,19.050 77.167,18.796 77.167 C 18.644 77.167,18.470 77.247,18.410 77.344 M35.251 77.999 C 35.085 78.183,35.026 78.333,35.120 78.333 C 35.330 78.333,35.746 77.857,35.634 77.745 C 35.590 77.701,35.417 77.815,35.251 77.999 M33.033 80.367 C 32.761 80.639,32.781 80.843,33.070 80.732 C 33.329 80.633,33.569 80.167,33.361 80.167 C 33.291 80.167,33.143 80.257,33.033 80.367 M278.167 85.389 C 278.167 87.375,278.224 89.000,278.295 89.000 C 278.424 89.000,278.368 81.979,278.237 81.848 C 278.198 81.810,278.167 83.403,278.167 85.389 M268.743 86.392 C 268.442 86.723,268.308 87.000,268.450 87.000 C 268.597 87.000,269.058 86.334,268.970 86.251 C 268.941 86.223,268.838 86.286,268.743 86.392 M266.138 89.631 C 263.391 92.624,262.266 93.944,263.768 92.411 C 266.007 90.126,268.361 87.481,268.134 87.506 C 268.106 87.509,267.208 88.465,266.138 89.631 M33.000 90.545 C 33.000 90.684,33.112 90.841,33.250 90.894 C 33.387 90.946,33.500 90.926,33.500 90.849 C 33.500 90.771,33.387 90.614,33.250 90.500 C 33.046 90.331,33.000 90.339,33.000 90.545 M76.500 91.439 C 76.500 92.920,75.721 94.333,74.904 94.333 C 74.773 94.333,74.667 94.408,74.667 94.500 C 74.667 95.078,75.913 94.288,76.302 93.463 C 76.698 92.624,76.965 90.667,76.683 90.667 C 76.576 90.667,76.500 90.989,76.500 91.439 M278.333 92.333 C 278.333 92.517,278.408 92.667,278.500 92.667 C 278.592 92.667,278.667 92.517,278.667 92.333 C 278.667 92.150,278.592 92.000,278.500 92.000 C 278.408 92.000,278.333 92.150,278.333 92.333 M35.500 93.333 C 35.598 93.517,35.762 93.667,35.865 93.667 C 35.968 93.667,35.916 93.517,35.750 93.333 C 35.584 93.150,35.420 93.000,35.385 93.000 C 35.350 93.000,35.402 93.150,35.500 93.333 M37.333 95.284 C 37.333 95.476,37.806 95.921,37.899 95.815 C 37.931 95.779,37.817 95.606,37.645 95.429 C 37.474 95.253,37.333 95.187,37.333 95.284 M238.795 99.121 C 239.094 99.158,239.544 99.157,239.795 99.119 C 240.045 99.081,239.800 99.051,239.250 99.052 C 238.700 99.053,238.495 99.084,238.795 99.121 M242.875 99.123 C 243.402 99.156,244.265 99.156,244.792 99.123 C 245.319 99.090,244.887 99.063,243.833 99.063 C 242.779 99.063,242.348 99.090,242.875 99.123 M22.333 99.627 C 22.333 99.696,22.485 99.848,22.670 99.964 C 22.983 100.159,22.992 100.150,22.797 99.837 C 22.587 99.501,22.333 99.386,22.333 99.627 M183.268 102.097 C 183.205 102.260,183.243 102.336,183.364 102.295 C 183.614 102.212,183.751 101.833,183.532 101.833 C 183.442 101.833,183.323 101.952,183.268 102.097 M182.268 103.764 C 182.129 104.126,182.138 104.167,182.361 104.167 C 182.468 104.167,182.506 104.117,182.446 104.057 C 182.386 103.997,182.420 103.847,182.522 103.724 C 182.639 103.583,182.645 103.500,182.538 103.500 C 182.445 103.500,182.323 103.619,182.268 103.764 M323.784 104.005 C 323.630 104.186,323.568 104.333,323.648 104.333 C 323.831 104.333,324.239 103.850,324.140 103.751 C 324.099 103.710,323.939 103.824,323.784 104.005 M299.199 104.657 C 299.424 105.017,299.667 105.112,299.667 104.839 C 299.667 104.751,299.513 104.596,299.326 104.496 C 299.011 104.327,299.001 104.340,299.199 104.657 M0.225 107.833 C 0.225 108.612,0.254 108.931,0.289 108.542 C 0.324 108.152,0.324 107.515,0.289 107.125 C 0.254 106.735,0.225 107.054,0.225 107.833 M352.158 107.625 L 351.583 108.250 352.208 107.676 C 352.790 107.141,352.910 107.000,352.783 107.000 C 352.755 107.000,352.474 107.281,352.158 107.625 M285.006 110.423 C 285.014 110.641,285.800 111.590,285.893 111.493 C 285.934 111.451,285.750 111.157,285.484 110.840 C 285.218 110.522,285.003 110.335,285.006 110.423 M32.500 110.827 C 32.500 110.916,32.656 111.072,32.846 111.173 C 33.162 111.343,33.176 111.329,33.007 111.013 C 32.816 110.657,32.500 110.541,32.500 110.827 M396.667 112.417 C 396.553 112.554,396.520 112.667,396.595 112.667 C 396.669 112.667,396.585 112.783,396.407 112.926 C 396.093 113.178,396.093 113.180,396.438 113.014 C 396.632 112.921,396.832 112.692,396.880 112.505 C 396.986 112.101,396.943 112.084,396.667 112.417 M34.333 112.716 C 34.333 112.866,34.502 113.077,34.708 113.185 L 35.083 113.382 34.752 112.983 C 34.569 112.763,34.401 112.552,34.377 112.514 C 34.353 112.476,34.333 112.567,34.333 112.716 M334.487 113.772 C 334.102 114.190,334.101 114.200,334.455 113.984 C 334.660 113.859,334.863 113.662,334.908 113.545 C 335.028 113.234,334.939 113.282,334.487 113.772 M395.801 113.625 C 395.408 114.082,395.298 114.333,395.490 114.333 C 395.587 114.333,395.667 114.245,395.667 114.138 C 395.667 114.031,395.791 113.806,395.942 113.638 C 396.094 113.470,396.181 113.333,396.135 113.333 C 396.089 113.333,395.939 113.465,395.801 113.625 M54.500 114.132 C 54.500 114.199,54.647 114.345,54.827 114.457 C 55.097 114.626,55.139 114.621,55.064 114.427 C 54.968 114.175,54.500 113.930,54.500 114.132 M333.487 114.773 C 333.265 115.015,333.189 115.179,333.319 115.139 C 333.539 115.070,334.131 114.333,333.966 114.333 C 333.925 114.333,333.710 114.531,333.487 114.773 M393.410 116.370 C 392.956 116.848,392.739 117.111,392.930 116.953 C 393.120 116.796,393.345 116.666,393.430 116.666 C 393.514 116.666,393.730 116.446,393.910 116.178 C 394.090 115.910,394.308 115.734,394.394 115.788 C 394.481 115.841,394.498 115.798,394.433 115.692 C 394.274 115.435,394.343 115.389,393.410 116.370 M0.050 119.000 C 0.050 119.504,0.081 119.710,0.119 119.458 C 0.158 119.206,0.158 118.794,0.119 118.542 C 0.081 118.290,0.050 118.496,0.050 119.000 M391.083 118.334 C 391.019 118.438,390.805 118.588,390.608 118.668 C 390.400 118.752,390.355 118.814,390.500 118.817 C 390.807 118.824,391.429 118.373,391.296 118.241 C 391.243 118.188,391.147 118.230,391.083 118.334 M200.460 118.958 C 200.418 119.302,200.437 119.733,200.502 119.916 C 200.577 120.126,200.629 119.895,200.643 119.291 C 200.668 118.201,200.574 118.030,200.460 118.958 M78.417 120.333 C 78.473 120.425,78.440 120.500,78.343 120.500 C 78.246 120.500,78.167 120.584,78.167 120.687 C 78.167 120.816,78.244 120.810,78.417 120.667 C 78.707 120.426,78.745 120.167,78.490 120.167 C 78.393 120.167,78.360 120.242,78.417 120.333 M359.424 120.511 C 359.484 120.609,359.575 120.647,359.626 120.596 C 359.677 120.545,359.801 120.566,359.901 120.642 C 360.136 120.822,360.667 121.012,360.667 120.916 C 360.667 120.808,359.715 120.333,359.498 120.333 C 359.397 120.333,359.363 120.413,359.424 120.511 M200.353 121.708 C 200.341 122.471,200.402 123.000,200.500 123.000 C 200.690 123.000,200.690 121.664,200.500 120.917 C 200.407 120.549,200.368 120.759,200.353 121.708 M0.042 122.250 C 0.044 122.617,0.078 122.747,0.118 122.540 C 0.158 122.332,0.156 122.032,0.115 121.873 C 0.073 121.714,0.040 121.883,0.042 122.250 " stroke="none" fill="#e4e4e4" fill-rule="evenodd"></path></g></svg>