<svg width="98" height="68" viewBox="0 0 98 68" fill="none" xmlns="http://www.w3.org/2000/svg">
<path d="M28 68L27.9953 67.9901L25.4335 63.5121L5.12358 28H0L22.8717 67.9918L22.8666 68H22.8764H27.9889H28Z" fill="#F7F7FC"/>
<path d="M48 68L47.9949 67.9901L45.433 63.5121L42.8728 59.0354L40.3109 54.5569L37.7507 50.0785L35.1887 45.6L25.1221 28H20L32.6268 50.0785L35.1887 54.5569L37.7507 59.0354L40.3109 63.5121L42.8728 67.9901L42.8664 68H42.8779H47.9885H48Z" fill="#F7F7FC"/>
<path d="M55.4333 63.5121L52.8727 59.0354L50.3112 54.5569L47.7505 50.0785L45.1885 45.6L42.6283 41.1233L40.0664 36.6449L35.1222 28H30L37.5044 41.1216L42.6283 50.0785L45.1885 54.5569L47.7505 59.0354L50.3112 63.5121L52.8727 67.9901L52.8663 68H52.8778H57.9902H58L57.9953 67.9918L55.4333 63.5121Z" fill="#F7F7FC"/>
<path d="M67 0H61.8376L43 32.5421L45.5812 37L67 0Z" fill="#F7F7FC"/>
<path d="M32.8775 68H37.9885H38L37.9949 67.9901L35.433 63.5121L32.8728 59.0354L30.3109 54.5569L15.1221 28H10L27.7489 59.0336L30.3109 63.5121L32.8728 67.9901L32.8664 68H32.8775Z" fill="#F7F7FC"/>
<path d="M50.567 46L77 0H71.8677L48 41.5337L48.0274 41.581L50.567 46Z" fill="#F7F7FC"/>
<path d="M55.5571 55L87 0H81.888L53 50.5265L53.0273 50.5739L55.5571 55Z" fill="#F7F7FC"/>
<path d="M98 0H92.9023L59 59.5242L59.0272 59.5716L61.5497 64L98 0Z" fill="#F7F7FC"/>
</svg>
