<svg width="56" height="45" viewBox="0 0 56 45" fill="none" xmlns="http://www.w3.org/2000/svg">
<path d="M6.3 7.73438C6.3 6.42901 6.81625 5.17711 7.73518 4.25408C8.65411 3.33105 9.90044 2.8125 11.2 2.8125C12.4996 2.8125 13.7459 3.33105 14.6648 4.25408C15.5838 5.17711 16.1 6.42901 16.1 7.73438C16.1 9.03974 15.5838 10.2916 14.6648 11.2147C13.7459 12.1377 12.4996 12.6562 11.2 12.6562C9.90044 12.6562 8.65411 12.1377 7.73518 11.2147C6.81625 10.2916 6.3 9.03974 6.3 7.73438ZM5.6 21.5947C4.725 22.5791 4.2 23.8887 4.2 25.3125C4.2 26.7363 4.725 28.0459 5.6 29.0303V21.5947ZM18.235 17.2617C15.6362 19.5732 14 22.957 14 26.7188C14 29.7334 15.05 32.502 16.8 34.6729V36.5625C16.8 38.1182 15.5487 39.375 14 39.375H8.4C6.85125 39.375 5.6 38.1182 5.6 36.5625V34.207C2.2925 32.625 0 29.2412 0 25.3125C0 19.8721 4.38375 15.4688 9.8 15.4688H12.6C14.7 15.4688 16.6425 16.1279 18.235 17.2529V17.2617ZM39.2 36.5625V34.6729C40.95 32.502 42 29.7334 42 26.7188C42 22.957 40.3638 19.5732 37.765 17.2529C39.3575 16.1279 41.3 15.4688 43.4 15.4688H46.2C51.6162 15.4688 56 19.8721 56 25.3125C56 29.2412 53.7075 32.625 50.4 34.207V36.5625C50.4 38.1182 49.1488 39.375 47.6 39.375H42C40.4512 39.375 39.2 38.1182 39.2 36.5625ZM39.9 7.73438C39.9 6.42901 40.4162 5.17711 41.3352 4.25408C42.2541 3.33105 43.5004 2.8125 44.8 2.8125C46.0996 2.8125 47.3459 3.33105 48.2648 4.25408C49.1838 5.17711 49.7 6.42901 49.7 7.73438C49.7 9.03974 49.1838 10.2916 48.2648 11.2147C47.3459 12.1377 46.0996 12.6562 44.8 12.6562C43.5004 12.6562 42.2541 12.1377 41.3352 11.2147C40.4162 10.2916 39.9 9.03974 39.9 7.73438ZM50.4 21.5947V29.0391C51.275 28.0459 51.8 26.7451 51.8 25.3213C51.8 23.8975 51.275 22.5879 50.4 21.6035V21.5947ZM28 2.8125C29.4852 2.8125 30.9096 3.40513 31.9598 4.46002C33.01 5.51492 33.6 6.94566 33.6 8.4375C33.6 9.92934 33.01 11.3601 31.9598 12.415C30.9096 13.4699 29.4852 14.0625 28 14.0625C26.5148 14.0625 25.0904 13.4699 24.0402 12.415C22.99 11.3601 22.4 9.92934 22.4 8.4375C22.4 6.94566 22.99 5.51492 24.0402 4.46002C25.0904 3.40513 26.5148 2.8125 28 2.8125ZM21 26.7188C21 28.1426 21.525 29.4434 22.4 30.4365V23.001C21.525 23.9941 21 25.2949 21 26.7188ZM33.6 23.001V30.4453C34.475 29.4521 35 28.1514 35 26.7275C35 25.3037 34.475 23.9941 33.6 23.0098V23.001ZM39.2 26.7188C39.2 30.6475 36.9075 34.0313 33.6 35.6133V39.375C33.6 40.9307 32.3488 42.1875 30.8 42.1875H25.2C23.6512 42.1875 22.4 40.9307 22.4 39.375V35.6133C19.0925 34.0313 16.8 30.6475 16.8 26.7188C16.8 21.2783 21.1838 16.875 26.6 16.875H29.4C34.8162 16.875 39.2 21.2783 39.2 26.7188Z" fill="#2E318B"/>
</svg>
