<svg width="45" height="45" viewBox="0 0 45 45" fill="none" xmlns="http://www.w3.org/2000/svg">
<path d="M22.5 0C22.9043 0 23.3086 0.0878906 23.6778 0.254883L40.2276 7.27734C42.1612 8.09473 43.6026 10.002 43.5938 12.3047C43.5498 21.0234 39.9639 36.9756 24.8204 44.2266C23.3526 44.9297 21.6475 44.9297 20.1797 44.2266C5.03617 36.9756 1.45024 21.0234 1.40629 12.3047C1.3975 10.002 2.83891 8.09473 4.7725 7.27734L21.3311 0.254883C21.6914 0.0878906 22.0957 0 22.5 0ZM22.5 5.87109V39.0938C34.6289 33.2227 37.8897 20.2236 37.9688 12.4277L22.5 5.87109Z" fill="#2E318B"/>
</svg>
