<svg width="45" height="45" viewBox="0 0 45 45" fill="none" xmlns="http://www.w3.org/2000/svg">
<g clip-path="url(#clip0_68_311)">
<path d="M39.375 45H5.62501C4.59001 45 3.75001 44.16 3.75001 43.125C3.75001 42.09 4.59001 41.25 5.62501 41.25H39.375C40.4119 41.25 41.25 42.09 41.25 43.125C41.25 44.16 40.4119 45 39.375 45ZM45 33.75C45 28.5806 40.7944 24.375 35.625 24.375H30C29.2425 24.375 28.7756 23.9569 28.5638 23.7075C28.3556 23.4581 28.0219 22.9275 28.1513 22.1831C29.2388 15.9319 29.9981 9.8925 29.9981 7.5C29.9981 3.36375 26.6344 0 22.4981 0C18.3619 0 14.9981 3.36375 14.9981 7.5C14.9981 9.89625 15.7575 15.9338 16.845 22.1831C16.9744 22.9275 16.6444 23.4581 16.4344 23.7056C16.2244 23.955 15.7594 24.375 14.9981 24.375H9.37314C4.20376 24.375 -0.00186157 28.5806 -0.00186157 33.75C-0.00186157 35.5687 1.31251 37.5 3.74814 37.5H41.25C43.6856 37.5 45 35.5687 45 33.75Z" fill="#2E318B"/>
</g>
<defs>
<clipPath id="clip0_68_311">
<rect width="45" height="45" fill="white"/>
</clipPath>
</defs>
</svg>
