<svg width="32" height="38" viewBox="0 0 32 38" fill="none" xmlns="http://www.w3.org/2000/svg">
<path d="M27.5515 29.6301C30.2299 26.5007 31.8521 22.4523 31.8521 18.0438C31.8521 8.13403 23.691 0.0621338 13.6437 0.0621338H2.4898C1.18202 0.0621338 0.125732 1.10527 0.125732 2.39677C0.125732 3.68828 1.18202 4.73141 2.4898 4.73141H13.6437C21.0754 4.73141 27.1239 10.7046 27.1239 18.0438C27.1239 25.383 21.0754 31.3562 13.6437 31.3562H2.4898C1.18202 31.3562 0.125732 32.3994 0.125732 33.6909C0.125732 34.9824 1.18202 36.0255 2.4898 36.0255H13.6437C16.3347 36.0255 18.8874 35.4419 21.1886 34.3987L27.8533 37.7517C28.4694 38.0621 29.2239 37.9379 29.7018 37.4412C30.1293 37.0066 30.2551 36.3608 30.0287 35.802L27.5515 29.6301Z" fill="#2E318B"/>
<path d="M13.7694 25.172C12.9647 25.172 12.2982 24.5262 12.2982 23.7191V15.6968C12.2982 15.4236 12.0718 15.2125 11.8078 15.2125C11.5437 15.2125 11.3173 15.4361 11.3173 15.6968V23.7936C11.3173 24.5511 10.6886 25.1844 9.92154 25.1844C9.15447 25.1844 8.51316 24.5635 8.51316 23.7936V15.7713C8.51316 15.4609 8.26166 15.2125 7.94729 15.2125C7.63292 15.2125 7.38142 15.4609 7.38142 15.7713V22.1047C7.38142 22.8622 6.75268 23.4831 5.98561 23.4831C5.21854 23.4831 4.5898 22.8622 4.5898 22.1047V17.9197C4.5898 17.5968 4.32573 17.3236 3.98621 17.3236C3.65926 17.3236 3.38261 17.5844 3.38261 17.9197V22.1047C3.38261 22.3282 3.19399 22.5145 2.96765 22.5145C2.7413 22.5145 2.55267 22.3282 2.55267 22.1047V17.9073C2.55267 17.1249 3.19399 16.4792 3.99878 16.4792C4.791 16.4792 5.44489 17.1125 5.44489 17.9073V22.1047C5.44489 22.4027 5.69639 22.6511 5.99819 22.6511C6.29998 22.6511 6.55148 22.4027 6.55148 22.1047V15.7713C6.55148 15.0014 7.18022 14.3805 7.95986 14.3805C8.7395 14.3805 9.36824 15.0014 9.36824 15.7713V23.7936C9.36824 24.104 9.61974 24.3524 9.93411 24.3524C10.2485 24.3524 10.5 24.104 10.5 23.7936V15.6968C10.5 14.9766 11.1036 14.3805 11.8329 14.3805C12.5623 14.3805 13.1659 14.9766 13.1659 15.6968V23.7191C13.1659 24.0668 13.4425 24.34 13.7946 24.34C14.1467 24.34 14.4233 24.0668 14.4233 23.7191V17.3857C14.4233 16.6655 15.0269 16.0694 15.7563 16.0694C16.4856 16.0694 17.0892 16.6655 17.0892 17.3857V22.6262C17.0892 22.9491 17.3533 23.2223 17.6928 23.2223C18.0197 23.2223 18.2964 22.9615 18.2964 22.6262V20.2792C18.2964 19.4968 18.9377 18.8511 19.7425 18.8511C20.5473 18.8511 21.1886 19.4844 21.1886 20.2792V23.6321C21.1886 23.8557 21 24.0419 20.7736 24.0419C20.5473 24.0419 20.3587 23.8557 20.3587 23.6321V20.2792C20.3587 19.9563 20.0946 19.6831 19.7551 19.6831C19.4156 19.6831 19.1515 19.9439 19.1515 20.2792V22.6262C19.1515 23.4086 18.5102 24.0544 17.7054 24.0544C16.9132 24.0544 16.2593 23.421 16.2593 22.6262V17.3857C16.2593 17.1125 16.0329 16.9014 15.7688 16.9014C15.5048 16.9014 15.2784 17.1249 15.2784 17.3857V23.7191C15.2407 24.5262 14.5742 25.172 13.7694 25.172Z" fill="#2E318B"/>
</svg>
